<svg width="440" height="714" viewBox="0 0 440 714" fill="none" xmlns="http://www.w3.org/2000/svg">
<g clip-path="url(#clip0)">
<path d="M279.622 60.2269H47.1577C23.6374 60.2269 4.57037 79.288 4.57037 102.801V671.301C4.57037 694.814 23.6374 713.875 47.1577 713.875H279.622C303.143 713.875 322.21 694.814 322.21 671.301V102.801C322.21 79.288 303.143 60.2269 279.622 60.2269Z" fill="url(#paint0_linear)"/>
<g opacity="0.9">
<path opacity="0.9" d="M279.622 60.2269H96.6006V616.391C96.6006 630.987 102.401 644.985 112.725 655.307C123.049 665.628 137.052 671.426 151.653 671.426H322.21V102.801C322.21 91.5097 317.723 80.6808 309.736 72.6966C301.749 64.7124 290.917 60.2269 279.622 60.2269Z" fill="url(#paint1_linear)"/>
</g>
<path d="M3.32389 271.229H4.57035V191.688H3.32389C2.44234 191.688 1.5969 192.038 0.973545 192.661C0.350195 193.284 0 194.129 0 195.01L0 267.906C0 268.787 0.350195 269.632 0.973545 270.255C1.5969 270.879 2.44234 271.229 3.32389 271.229Z" fill="#ACADBD"/>
<path d="M120.491 75.1797H55.6752C34.1053 75.1797 16.6194 92.6602 16.6194 114.223V186.62C16.6194 208.183 34.1053 225.664 55.6752 225.664H120.491C142.061 225.664 159.547 208.183 159.547 186.62V114.223C159.547 92.6602 142.061 75.1797 120.491 75.1797Z" fill="url(#paint2_radial)"/>
<path d="M120.491 85.5637H55.6751C39.8419 85.5637 27.0066 98.3951 27.0066 114.223V186.62C27.0066 202.449 39.8419 215.28 55.6751 215.28H120.491C136.324 215.28 149.16 202.449 149.16 186.62V114.223C149.16 98.3951 136.324 85.5637 120.491 85.5637Z" fill="#CCCFDE"/>
<path d="M118.206 177.773C133.351 177.773 145.628 165.5 145.628 150.36C145.628 135.219 133.351 122.946 118.206 122.946C103.061 122.946 90.7838 135.219 90.7838 150.36C90.7838 165.5 103.061 177.773 118.206 177.773Z" fill="white"/>
<path d="M118.206 171.958C130.138 171.958 139.811 162.288 139.811 150.36C139.811 138.431 130.138 128.761 118.206 128.761C106.274 128.761 96.6006 138.431 96.6006 150.36C96.6006 162.288 106.274 171.958 118.206 171.958Z" fill="#161621"/>
<path d="M118.206 165.935C126.811 165.935 133.787 158.962 133.787 150.36C133.787 141.757 126.811 134.784 118.206 134.784C109.601 134.784 102.625 141.757 102.625 150.36C102.625 158.962 109.601 165.935 118.206 165.935Z" fill="#1E1E2E"/>
<path d="M118.206 158.874C122.91 158.874 126.723 155.062 126.723 150.36C126.723 145.657 122.91 141.845 118.206 141.845C113.502 141.845 109.688 145.657 109.688 150.36C109.688 155.062 113.502 158.874 118.206 158.874Z" fill="#0F0F17"/>
<path d="M59.2068 143.921C74.3516 143.921 86.6289 131.648 86.6289 116.508C86.6289 101.368 74.3516 89.0942 59.2068 89.0942C44.062 89.0942 31.7847 101.368 31.7847 116.508C31.7847 131.648 44.062 143.921 59.2068 143.921Z" fill="white"/>
<path d="M59.2067 138.106C71.139 138.106 80.812 128.436 80.812 116.508C80.812 104.579 71.139 94.9092 59.2067 94.9092C47.2745 94.9092 37.6014 104.579 37.6014 116.508C37.6014 128.436 47.2745 138.106 59.2067 138.106Z" fill="#161621"/>
<path d="M59.2068 211.832C74.3516 211.832 86.6289 199.559 86.6289 184.419C86.6289 169.279 74.3516 157.005 59.2068 157.005C44.062 157.005 31.7847 169.279 31.7847 184.419C31.7847 199.559 44.062 211.832 59.2068 211.832Z" fill="white"/>
<path d="M59.2067 206.017C71.139 206.017 80.812 196.347 80.812 184.419C80.812 172.49 71.139 162.82 59.2067 162.82C47.2745 162.82 37.6014 172.49 37.6014 184.419C37.6014 196.347 47.2745 206.017 59.2067 206.017Z" fill="#161621"/>
<path d="M118.206 114.846C124.401 114.846 129.424 109.825 129.424 103.632C129.424 97.4381 124.401 92.4171 118.206 92.4171C112.01 92.4171 106.988 97.4381 106.988 103.632C106.988 109.825 112.01 114.846 118.206 114.846Z" fill="#A7ABC7"/>
<path d="M118.206 110.07C121.763 110.07 124.646 107.187 124.646 103.632C124.646 100.076 121.763 97.1937 118.206 97.1937C114.649 97.1937 111.766 100.076 111.766 103.632C111.766 107.187 114.649 110.07 118.206 110.07Z" fill="#EDEBE7"/>
<path d="M118.206 188.365C117.606 188.365 117.011 188.483 116.457 188.713C115.902 188.942 115.399 189.279 114.974 189.703C114.55 190.127 114.213 190.631 113.983 191.185C113.754 191.74 113.636 192.334 113.636 192.934C113.635 193.524 113.754 194.109 113.986 194.652C114.218 195.195 114.558 195.686 114.986 196.093C115.413 196.501 115.919 196.818 116.472 197.025C117.026 197.231 117.616 197.323 118.206 197.295C118.779 197.295 119.346 197.182 119.875 196.963C120.405 196.744 120.886 196.423 121.291 196.018C121.696 195.613 122.017 195.132 122.236 194.603C122.456 194.074 122.568 193.506 122.568 192.934C122.597 192.344 122.505 191.754 122.298 191.201C122.091 190.648 121.774 190.142 121.367 189.715C120.959 189.287 120.468 188.947 119.925 188.715C119.381 188.483 118.797 188.364 118.206 188.365Z" fill="#414159"/>
<path d="M59.2068 132.084C67.8118 132.084 74.7875 125.11 74.7875 116.508C74.7875 107.906 67.8118 100.932 59.2068 100.932C50.6018 100.932 43.626 107.906 43.626 116.508C43.626 125.11 50.6018 132.084 59.2068 132.084Z" fill="#1E1E2E"/>
<path d="M59.2069 125.023C63.9109 125.023 67.7243 121.21 67.7243 116.508C67.7243 111.805 63.9109 107.993 59.2069 107.993C54.5028 107.993 50.6894 111.805 50.6894 116.508C50.6894 121.21 54.5028 125.023 59.2069 125.023Z" fill="#0F0F17"/>
<path d="M59.2068 199.995C67.8118 199.995 74.7875 193.021 74.7875 184.419C74.7875 175.817 67.8118 168.843 59.2068 168.843C50.6018 168.843 43.626 175.817 43.626 184.419C43.626 193.021 50.6018 199.995 59.2068 199.995Z" fill="#1E1E2E"/>
<path d="M59.2069 192.934C63.9109 192.934 67.7243 189.121 67.7243 184.419C67.7243 179.716 63.9109 175.904 59.2069 175.904C54.5028 175.904 50.6894 179.716 50.6894 184.419C50.6894 189.121 54.5028 192.934 59.2069 192.934Z" fill="#0F0F17"/>
<path d="M392.427 3.32286H161.209C139.18 3.32286 121.322 21.1752 121.322 43.1972V610.327C121.322 632.349 139.18 650.201 161.209 650.201H392.427C414.456 650.201 432.314 632.349 432.314 610.327V43.1972C432.314 21.1752 414.456 3.32286 392.427 3.32286Z" fill="#161621"/>
<path d="M393.05 4.15358C398.087 4.1535 403.075 5.14875 407.726 7.0821C412.377 9.01545 416.6 11.8488 420.153 15.4192C423.705 18.9896 426.516 23.2267 428.425 27.8869C430.334 32.5471 431.302 37.5385 431.275 42.5742V611.199C431.275 616.217 430.286 621.186 428.365 625.822C426.444 630.459 423.629 634.671 420.079 638.219C416.53 641.768 412.316 644.583 407.678 646.503C403.04 648.423 398.07 649.412 393.05 649.412H160.378C150.221 649.412 140.477 645.393 133.275 638.232C126.074 631.072 122 621.353 121.945 611.199V42.5742C121.945 32.3844 125.994 22.612 133.202 15.4067C140.409 8.20145 150.185 4.15358 160.378 4.15358H393.05ZM393.05 3.05814e-09H160.378C149.083 3.05815e-09 138.251 4.48548 130.264 12.4697C122.277 20.4539 117.79 31.2828 117.79 42.5742V611.199C117.79 616.78 118.893 622.306 121.036 627.46C123.179 632.614 126.319 637.293 130.276 641.23C134.234 645.167 138.93 648.283 144.096 650.4C149.262 652.517 154.795 653.593 160.378 653.565H393.05C404.29 653.565 415.069 649.102 423.017 641.157C430.965 633.211 435.43 622.435 435.43 611.199V42.5742C435.457 36.9931 434.381 31.4616 432.264 26.2974C430.146 21.1333 427.029 16.4383 423.091 12.4822C419.153 8.52608 414.471 5.3868 409.316 3.24471C404.161 1.10262 398.633 -6.70529e-05 393.05 3.05814e-09V3.05814e-09Z" fill="#989AAD"/>
<mask id="mask0" mask-type="alpha" maskUnits="userSpaceOnUse" x="132" y="17" width="289" height="620">
<path d="M420.888 44.8586V608.915C420.888 616.24 417.977 623.266 412.795 628.446C407.614 633.626 400.586 636.536 393.258 636.536H160.17C152.823 636.536 145.774 633.633 140.559 628.458C135.344 623.284 132.387 616.259 132.332 608.915V44.8586C132.332 37.4779 135.265 30.3995 140.486 25.1806C145.706 19.9616 152.787 17.0297 160.17 17.0297H199.434C201.07 17.0816 202.625 17.7547 203.783 18.9121C204.941 20.0694 205.614 21.6241 205.666 23.26V26.1675C205.638 27.6031 205.897 29.0298 206.428 30.3641C206.958 31.6984 207.75 32.9135 208.755 33.9384C209.761 34.9633 210.962 35.7774 212.286 36.3331C213.61 36.8887 215.032 37.1748 216.468 37.1745H336.752C339.672 37.1745 342.472 36.0149 344.537 33.9506C346.602 31.8864 347.762 29.0868 347.762 26.1675V23.26C347.814 21.6241 348.487 20.0694 349.645 18.9121C350.803 17.7547 352.358 17.0816 353.994 17.0297H393.258C396.904 17.0296 400.514 17.7508 403.88 19.1519C407.245 20.553 410.301 22.6061 412.869 25.193C415.437 27.78 417.468 30.8495 418.844 34.2246C420.221 37.5998 420.915 41.2139 420.888 44.8586Z" fill="#36393F"/>
</mask>
<g mask="url(#mask0)">
<path d="M420.888 44.8586V608.915C420.888 616.24 417.977 623.266 412.795 628.446C407.614 633.626 400.586 636.536 393.258 636.536H160.17C152.823 636.536 145.774 633.633 140.559 628.458C135.344 623.284 132.387 616.259 132.332 608.915V44.8586C132.332 37.4779 135.265 30.3995 140.486 25.1806C145.706 19.9616 152.787 17.0297 160.17 17.0297H199.434C201.07 17.0816 202.625 17.7547 203.783 18.9121C204.941 20.0694 205.614 21.6241 205.666 23.26V26.1675C205.638 27.6031 205.897 29.0298 206.428 30.3641C206.958 31.6984 207.75 32.9135 208.755 33.9384C209.761 34.9633 210.962 35.7774 212.286 36.3331C213.61 36.8887 215.032 37.1748 216.468 37.1745H336.752C339.672 37.1745 342.472 36.0149 344.537 33.9506C346.602 31.8864 347.762 29.0868 347.762 26.1675V23.26C347.814 21.6241 348.487 20.0694 349.645 18.9121C350.803 17.7547 352.358 17.0816 353.994 17.0297H393.258C396.904 17.0296 400.514 17.7508 403.88 19.1519C407.245 20.553 410.301 22.6061 412.869 25.193C415.437 27.78 417.468 30.8495 418.844 34.2246C420.221 37.5998 420.915 41.2139 420.888 44.8586Z" fill="#292841"/>
<g clip-path="url(#clip1)">
<rect x="131.607" y="16.6913" width="290.714" height="520.375" rx="8" fill="#292841"/>
<path fill-rule="evenodd" clip-rule="evenodd" d="M160.971 76.5834C160.66 76.5834 160.424 76.3024 160.478 75.996L161.071 72.6561H157.738C157.427 72.6561 157.192 72.3758 157.245 72.0699L157.414 71.1062C157.456 70.867 157.664 70.6924 157.907 70.6924H161.415L162.456 64.8014H159.123C158.812 64.8014 158.577 64.5211 158.63 64.2152L158.799 63.2515C158.841 63.0122 159.049 62.8377 159.292 62.8377H162.8L163.424 59.3229C163.466 59.0842 163.674 58.9103 163.916 58.9103H164.865C165.176 58.9103 165.412 59.1914 165.357 59.4978L164.764 62.8377H170.657L171.281 59.3229C171.324 59.0842 171.531 58.9103 171.774 58.9103H172.722C173.033 58.9103 173.269 59.1914 173.214 59.4978L172.621 62.8377H175.955C176.265 62.8377 176.501 63.1179 176.447 63.4239L176.279 64.3876C176.237 64.6268 176.029 64.8014 175.786 64.8014H172.278L171.237 70.6924H174.57C174.881 70.6924 175.116 70.9727 175.063 71.2786L174.894 72.2423C174.852 72.4815 174.644 72.6561 174.401 72.6561H170.893L170.269 76.1709C170.226 76.4095 170.019 76.5834 169.776 76.5834H168.828C168.517 76.5834 168.281 76.3024 168.336 75.996L168.929 72.6561H163.036L162.412 76.1709C162.369 76.4095 162.162 76.5834 161.919 76.5834H160.971ZM164.421 64.8014L163.38 70.6924H169.273L170.314 64.8014H164.421Z" fill="#B9BBBE"/>
<path d="M189.711 70.0051C189.711 67.9236 190.595 66.9221 191.832 66.9221C192.637 66.9221 193.089 67.0596 193.679 67.3345V71.3993C193.05 72.2044 192.382 72.715 191.518 72.715C190.477 72.715 189.711 71.851 189.711 70.0051ZM187.334 70.1426C187.334 73.3434 188.925 74.8161 190.909 74.8161C192.225 74.8161 193.148 74.1092 193.816 73.3041L194.012 74.6198H196.036V60.442L193.679 60.8151V65.3905C193.109 65.1941 192.382 65.037 191.479 65.037C189.279 65.037 187.334 66.608 187.334 70.1426Z" fill="white"/>
<path d="M204.149 67.2756L203.775 64.9388C202.302 65.0174 201.359 65.9403 200.731 67.04L200.436 65.1352H198.432V74.6198H200.79V69.1804C201.477 68.1593 202.675 67.3738 204.149 67.2756Z" fill="white"/>
<path d="M210.485 72.0081C209.837 72.6365 209.071 73.0292 208.266 73.0292C207.539 73.0292 207.107 72.6168 207.107 71.9295C207.107 71.0262 207.755 70.2211 210.485 69.8873V72.0081ZM212.843 74.6198V68.12C212.843 65.8421 211.625 64.9388 209.169 64.9388C207.657 64.9388 206.498 65.2727 205.398 65.7047L205.693 67.5898C206.714 67.1382 207.755 66.824 208.855 66.824C209.896 66.824 210.485 67.2167 210.485 68.2378V68.5127C206.655 68.8858 204.769 69.8873 204.769 72.1848C204.769 73.8343 205.85 74.8161 207.46 74.8161C208.875 74.8161 209.857 74.1878 210.623 73.3826L210.819 74.6198H212.843Z" fill="white"/>
<path d="M227.656 65.1352H225.397L223.767 71.3993L222.058 65.1352H219.976L218.267 71.419L216.597 64.9977L214.201 65.3119L217.029 74.6394H219.19L220.899 68.3753L222.647 74.6394H224.808L227.656 65.1352Z" fill="white"/>
<path d="M231.892 62.2093C231.892 61.4042 231.264 60.8347 230.498 60.8347C229.712 60.8347 229.083 61.4042 229.083 62.2093C229.083 62.9948 229.712 63.5446 230.498 63.5446C231.264 63.5446 231.892 62.9948 231.892 62.2093ZM231.656 74.6198V65.1352H229.299V74.6198H231.656Z" fill="white"/>
<path d="M242.243 74.6198V67.7862C242.243 66.0189 241.3 64.9388 239.532 64.9388C238.256 64.9388 237.254 65.6261 236.37 66.4705L236.154 65.1352H234.15V74.6198H236.507V68.2182C237.195 67.4916 237.941 67.0203 238.668 67.0203C239.532 67.0203 239.886 67.5898 239.886 68.4145V74.6198H242.243Z" fill="white"/>
<path d="M249.751 68.2182C249.751 69.2589 249.123 70.0248 248.081 70.0248C247.06 70.0248 246.431 69.2786 246.431 68.2967C246.431 67.256 247.04 66.4509 248.081 66.4509C249.083 66.4509 249.751 67.2167 249.751 68.2182ZM253.11 75.0125C253.11 73.5594 251.892 72.9506 249.948 72.6757L248.73 72.5579C247.256 72.3419 246.962 72.2634 246.962 71.9492C246.962 71.7921 247.119 71.6153 247.355 71.4386C247.59 71.4779 247.846 71.4975 248.121 71.4975C250.164 71.4975 251.912 70.28 251.912 68.2378C251.912 67.8058 251.833 67.3738 251.656 67.0007L253.385 66.8829L253.071 64.9977L250.753 65.8225C250.065 65.253 249.162 64.9388 248.062 64.9388C245.94 64.9388 244.251 66.2152 244.251 68.2967C244.251 69.5535 244.919 70.5353 246.039 71.0655C245.253 71.5368 244.84 72.0473 244.84 72.5775C244.84 72.9506 245.017 73.3041 245.39 73.5987C244.212 74.2663 243.603 74.9536 243.603 75.8372C243.603 77.4082 245.548 78.1937 248.121 78.1937C250.871 78.1937 253.11 77.0547 253.11 75.0125ZM248.278 76.7994C246.49 76.7994 245.646 76.2889 245.646 75.582C245.646 75.091 245.96 74.6394 246.648 74.1485C247.119 74.2467 247.414 74.3056 248.062 74.3841L249.339 74.5412C250.517 74.7179 250.93 75.0125 250.93 75.5231C250.93 76.23 249.967 76.7994 248.278 76.7994Z" fill="white"/>
<path d="M259.546 70.1033V67.8254H254.439V70.1033H259.546Z" fill="white"/>
<path d="M268.808 73.8932L268.494 71.8706C267.629 72.5383 266.824 72.7739 265.999 72.7739C264.624 72.7739 263.544 71.8313 263.544 69.8677C263.544 67.9825 264.526 66.9811 265.92 66.9811C266.863 66.9811 267.61 67.2952 268.376 67.8647L268.71 65.7439C268.022 65.3119 267.04 64.9388 265.803 64.9388C263.229 64.9388 261.167 66.6276 261.167 69.9266C261.167 73.0292 263.033 74.7965 265.665 74.7965C266.922 74.7965 267.904 74.5019 268.808 73.8932Z" fill="white"/>
<path d="M273.148 74.6198V60.442L270.791 60.8151V74.6198H273.148Z" fill="white"/>
<path d="M275.603 65.1352V71.9492C275.603 73.7361 276.526 74.8161 278.313 74.8161C279.57 74.8161 280.592 74.1288 281.476 73.2845L281.692 74.6198H283.695V65.1352H281.338V71.5368C280.651 72.2437 279.904 72.715 279.178 72.715C278.313 72.715 277.96 72.1652 277.96 71.3404V65.1352H275.603Z" fill="white"/>
<path d="M294.72 69.6124C294.72 66.4312 293.148 64.9388 291.145 64.9388C289.946 64.9388 289.062 65.5672 288.453 66.1956V60.442L286.096 60.8151V74.1092C287.275 74.5019 288.512 74.7376 289.986 74.7376C292.814 74.7376 294.72 73.1077 294.72 69.6124ZM292.343 69.7498C292.343 71.9099 291.439 72.8132 289.946 72.8132C289.278 72.8132 288.945 72.7346 288.453 72.5579V68.2574C289.043 67.5505 289.75 67.0203 290.536 67.0203C291.596 67.0203 292.343 67.9236 292.343 69.7498Z" fill="white"/>
<g clip-path="url(#clip2)">
<path d="M276.964 96.2202H422.321V232.696H276.964V96.2202Z" fill="#5E87F9"/>
<path d="M447.229 175.952C429.425 171.091 408.365 177.513 401.985 191.874C382.843 185.764 360.712 197.092 350.271 210.427H447.229V175.952Z" fill="#6E94FF"/>
<path d="M255.365 155.347C267.011 153.385 280.754 155.972 284.948 161.77C297.441 159.317 311.898 163.91 318.725 169.262H255.365V155.347Z" fill="#7A9DFF"/>
<path d="M301.011 216.894C304.581 209.267 304.492 208.955 310.828 206.681L302.395 218.767L301.011 216.894Z" fill="#FF707E"/>
<path d="M398.906 149.639L398.504 149.995L397.657 150.798L397.344 151.066L396.675 151.645C381.772 164.445 362.675 169.842 349.736 173.722C333.048 178.717 319.171 180.189 308.775 180.233C295.255 180.1 292.534 173.053 298.245 164.668L301.457 160.699L317.967 140.63L318.77 139.648C329.657 126.759 339.428 120.961 359.998 125.421L391.276 132.2H391.365C402.297 134.609 407.428 141.254 398.906 149.639Z" fill="url(#paint3_linear)"/>
<path d="M362.898 127.919C375.392 130.996 396.809 137.24 396.809 137.24L401.985 137.954C400.155 135.322 396.363 133.315 391.365 132.2H391.276L359.998 125.421C350.271 123.325 342.998 123.548 336.84 125.644C346.344 123.37 351.877 125.198 362.898 127.919Z" fill="#FFFDC4"/>
<path d="M350.672 175.372C361.649 172.072 385.118 162.751 394.221 153.653C392.079 155.793 394.176 151.958 390.071 153.965C368.475 164.49 319.439 178.717 308.775 180.233C319.216 180.858 339.473 178.717 350.672 175.372Z" fill="#FFFDC4"/>
<path d="M401.404 137.24C391.767 134.341 370.037 136.973 345.943 144.51C320.822 152.359 300.877 163.197 295.523 171.18C294.898 176.398 299.003 180.144 308.775 180.234C318.546 180.323 333.048 178.717 349.735 173.722C362.675 169.842 381.772 164.446 396.675 151.646L397.344 151.066L397.656 150.798L398.504 149.995L398.906 149.639C403.858 144.733 404.171 140.451 401.404 137.24Z" fill="url(#paint4_linear)"/>
<path d="M308.561 173.714C307.154 169.224 324.98 159.644 348.377 152.315C371.775 144.986 391.883 142.684 393.29 147.173C394.698 151.663 376.872 161.243 353.474 168.572C330.077 175.901 309.969 178.203 308.561 173.714Z" fill="#6B3143"/>
<path d="M393.105 148.791C393.37 148.284 393.449 147.7 393.328 147.141C393.227 146.89 393.075 146.662 392.882 146.472L368.743 156.819L386.858 144.911C386.071 144.867 385.281 144.867 384.494 144.911L367.717 156.106C366.725 155.968 365.719 155.968 364.727 156.106L373.919 146.026L370.438 146.651L363.389 156.284C361.961 156.462 360.31 156.775 358.481 157.176L363.746 148.078L360.622 148.836L357.142 157.488L353.84 158.38L356.25 149.996C355 150.293 353.751 150.65 352.502 151.066L351.341 159.005H351.609L350.717 159.317L348.173 152.359L345.362 153.296L349.78 159.584L347.549 160.343L341.213 154.678L337.866 155.883L345.675 161.012L343.355 161.903L333.672 157.488L329.567 159.138L341.57 162.617L338.759 163.91L321.759 162.751C320.331 163.464 318.948 164.178 317.699 164.892H336.885L335.546 165.739L312.21 168.46C311.206 169.18 310.292 170.018 309.489 170.957L334.431 166.765C334.354 166.847 334.297 166.947 334.266 167.056C334.235 167.164 334.23 167.278 334.252 167.389C334.29 167.486 334.35 167.573 334.428 167.643C334.505 167.712 334.598 167.763 334.698 167.791L308.864 174.213C309.265 174.748 310.069 175.194 311.229 175.506L337.153 168.014C338.547 167.937 339.934 167.758 341.302 167.478L320.688 175.729C321.67 175.685 322.74 175.551 323.856 175.417L343.979 166.943L344.693 166.809L331.754 174.124C333.717 173.722 335.769 173.321 337.911 172.786L347.236 166.185L352.278 164.713C354.42 164.044 356.428 163.331 358.257 162.662L366.2 164.133C368.877 163.152 371.375 162.126 373.696 161.101L361.559 161.324H361.604L380.21 158.113C382.307 157.042 384.226 156.016 385.877 155.035L365.307 159.584L366.646 158.826L393.105 148.791Z" fill="#7A384C"/>
<path d="M285.261 232.459H393.418C391.499 230.496 389.179 229.292 385.476 227.597L377.132 226.438L374.053 226.037L367.36 225.1L362.274 224.431L359.24 224.03L357.946 223.851L345.408 222.156L342.507 221.755L337.778 221.131L335.904 220.863L332.245 220.372L331.352 220.239L323.232 219.124L303.956 216.537L302.975 216.403C302.395 216.359 301.814 216.359 301.234 216.403C292.088 216.626 288.92 220.685 285.261 232.459Z" fill="#2347A1"/>
<path d="M301.502 228.177L304.893 232.459H324.659L313.683 221.398L308.864 224.074L301.502 228.177Z" fill="#2A52C2"/>
<path d="M302.974 216.404L303.51 217.162C303.688 217.34 303.822 217.608 304.045 217.875L304.625 218.633C305.652 219.971 307.079 221.845 308.864 224.075L313.058 229.159L314.442 230.764C314.932 231.3 315.379 231.879 315.869 232.459H384.717C385.252 229.471 385.475 227.598 385.475 227.598C385.482 227.133 385.361 226.674 385.125 226.273C384.889 225.872 384.547 225.544 384.137 225.323L377.89 221.711H377.846V221.265C377.846 221.086 377.89 220.953 377.89 220.819C377.89 220.685 377.979 219.392 377.979 218.856V218.277C378.012 218.01 378.027 217.742 378.024 217.474C378.047 217.417 378.062 217.357 378.069 217.295L378.292 213.549C378.335 212.806 378.194 212.063 377.883 211.387C377.572 210.71 377.099 210.12 376.507 209.669L368.252 203.158L367.538 202.578L365.218 200.794L359.462 196.289L356.205 195.843H356.161L351.833 195.174H351.788L345.898 194.327L344.203 194.059L339.83 193.39L337.733 193.078H337.376L336.216 193.257L334.699 193.48L331.62 193.97C330.276 194.184 328.993 194.681 327.855 195.426C326.716 196.172 325.749 197.15 325.016 198.296L321.625 203.514L321.358 203.604L319.26 204.228L312.255 206.324L310.827 206.726L309.89 207.082H309.801C307.925 207.911 306.406 209.382 305.518 211.23L302.974 216.404Z" fill="#EF6270"/>
<path d="M319.26 204.183C320.911 200.036 321.804 195.13 332.245 193.034L339.964 191.874L339.339 198.162L324.749 207.796L319.26 204.183Z" fill="#FF707E"/>
<path d="M302.975 216.403L303.51 217.161C303.689 217.34 303.822 217.607 304.046 217.875L304.626 218.633C305.652 219.971 307.08 221.844 308.864 224.074L313.059 229.158L314.442 230.764L315.914 232.459H348.174C347.416 229.783 346.3 225.769 345.765 223.494C345.678 223.04 345.558 222.593 345.408 222.156C344.649 219.347 344.024 217.607 348.709 216.894L348.219 214.441L346.077 203.603L345.542 200.704L345.095 198.608L344.381 195.04L344.203 194.104L339.83 193.435L337.733 193.122H337.376L336.216 193.301L334.699 193.524L331.62 194.014C330.276 194.229 328.993 194.725 327.855 195.47C326.717 196.216 325.749 197.194 325.017 198.34L321.626 203.559L321.358 203.648L319.261 204.272L312.256 206.368L310.828 206.77L309.891 207.126H309.801C307.925 207.955 306.406 209.426 305.518 211.274L302.975 216.403Z" fill="#E05164"/>
<path d="M332.691 204.807C327.426 200.838 327.783 201.15 330.727 199.232C332.499 198.076 334.548 197.414 336.662 197.315L332.691 204.807Z" fill="#BD3C53"/>
<path d="M331.352 220.239L339.963 232.459H346.433C342.908 228.623 339.205 224.565 335.903 220.863C331.218 215.511 327.336 210.828 325.864 208.554L326.31 211.453L326.622 213.504L331.352 220.239Z" fill="#E05164"/>
<path d="M320.287 227.776C322.069 229.444 323.946 231.007 325.909 232.459H333.985C330.192 230.853 325.195 228.534 321.938 226.483C317.029 223.405 317.654 225.323 320.287 227.776Z" fill="#E05164"/>
<path d="M369.814 206.056C375.659 211.14 378.56 209.758 364.772 228.668L361.47 226.482L351.833 215.689L364.058 200.303L369.814 206.056Z" fill="#C74153"/>
<path d="M368.029 155.347C367.672 154.188 359.775 155.526 350.316 158.335C340.856 161.145 333.539 164.356 333.851 165.516C335.814 181.215 335.502 195.129 332.691 204.807L361.47 226.483C373.518 197.493 369.859 171.804 368.029 155.347Z" fill="#FFB685"/>
<path d="M355.357 195.219L344.202 195.04L342.998 201.552C347.37 205.923 353.751 204.183 357.008 201.284C361.291 205.031 365.486 204.986 368.43 201.686L368.52 201.597C368.787 199.813 369.055 198.029 369.234 196.245C364.682 194.907 355.357 195.219 355.357 195.219Z" fill="#FE9B77"/>
<path d="M344.202 212.701C346.969 193.836 346.344 171.135 345.987 159.718C338.759 162.126 333.583 164.535 333.851 165.516C335.814 181.215 335.502 195.129 332.691 204.807L344.202 212.701Z" fill="#FE9B77"/>
<g style="mix-blend-mode:multiply" opacity="0.4">
<path d="M368.029 155.347C367.672 154.188 359.775 155.526 350.315 158.335C340.856 161.145 333.538 164.356 333.851 165.516C334.118 167.523 334.341 169.485 334.52 171.447C344.782 170.199 359.016 171.804 369.814 175.105C369.457 167.612 368.654 160.922 368.029 155.347Z" fill="#A8387E"/>
</g>
<path d="M357.499 131.532L362.853 132.557L361.291 135.055L357.499 131.532Z" fill="#FFCD8F"/>
<path d="M348.337 186.652C347.7 185.512 347.846 184.218 348.664 183.761C349.481 183.305 350.66 183.858 351.298 184.998C351.935 186.138 351.789 187.432 350.971 187.888C350.154 188.345 348.975 187.791 348.337 186.652Z" fill="#543247"/>
<path d="M342.998 126.269C342.998 126.269 345.764 126.046 346.969 126.982C345.586 128.588 342.998 126.269 342.998 126.269Z" fill="#FFD08F"/>
<path d="M351.833 126.224C357.722 124.842 358.213 127.919 358.213 127.919L351.833 126.224Z" fill="#FFFDC4"/>
<path d="M308.507 162.617C308.819 164.758 313.594 166.14 313.594 166.14L311.63 167.657C306.678 167.523 305.384 165.025 305.384 165.025C306.297 164.069 307.35 163.257 308.507 162.617Z" fill="#D4655B"/>
<path d="M295.835 171.893C296.639 174.257 306.856 172.83 306.856 172.83L307.169 174.034C299.628 175.372 296.371 174.703 296.371 174.703C296.371 174.703 295.925 173.99 295.835 171.893Z" fill="#D4655B"/>
<path d="M333.449 149.995C334.029 152.76 337.42 154.634 337.42 154.634L342.953 152.939C341.391 150.709 340.722 147.632 340.722 147.632C340.722 147.632 336.93 148.657 333.449 149.995Z" fill="#DC7363"/>
<path d="M369.993 232.369L370.126 232.459H375.749C376.195 230.719 376.686 228.534 377.132 226.438C377.578 224.342 377.801 222.825 377.89 221.666V221.22C377.89 221.041 377.935 220.908 377.935 220.774C377.935 220.64 378.024 219.347 378.024 218.811V218.232C378.057 217.965 378.072 217.697 378.069 217.429C378.091 217.372 378.106 217.312 378.113 217.25C377.019 220.299 375.645 223.241 374.008 226.036C372.536 228.579 371.063 230.809 369.993 232.369Z" fill="#D14658"/>
<path d="M312.255 206.279C315.666 210.767 319.33 215.055 323.232 219.124C327.872 224.074 332.78 228.891 336.662 232.459H341.213C338.759 229.292 335.547 225.011 332.245 220.372C330.237 217.474 328.184 214.441 326.31 211.453C325.373 209.981 324.481 208.509 323.633 207.082C322.919 205.878 322.25 204.718 321.625 203.559H321.358L319.261 204.183L312.255 206.279Z" fill="#CC4355"/>
<path d="M327.202 203.514L341.436 217.251L344.202 229.248L328.586 209.49L327.202 203.514Z" fill="#E65568"/>
<path d="M362.318 224.297L333.003 203.782L332.468 203.38C331.62 202.622 330.951 202.622 332.691 204.807L361.47 226.482L362.318 224.297Z" fill="#BD3C53"/>
<path d="M290.347 141.254L294.051 139.604C294.095 139.604 294.095 139.47 294.051 139.47L290.347 137.82H290.303L288.652 134.118C288.652 134.073 288.518 134.073 288.518 134.118L286.867 137.82H286.822L283.119 139.47C283.074 139.47 283.074 139.604 283.119 139.604L286.822 141.254H286.867L288.518 144.956H288.652L290.303 141.254H290.347Z" fill="#FF99B9"/>
<path d="M417.467 199.054L421.171 197.404C421.195 197.404 421.217 197.394 421.234 197.378C421.251 197.361 421.26 197.338 421.26 197.315C421.26 197.291 421.251 197.268 421.234 197.252C421.217 197.235 421.195 197.225 421.171 197.225L417.467 195.575H417.423L415.772 191.918C415.772 191.829 415.683 191.829 415.638 191.918L413.987 195.575H413.943L410.239 197.225C410.217 197.25 410.205 197.282 410.205 197.315C410.205 197.347 410.217 197.379 410.239 197.404L413.943 199.054H413.987L415.638 202.711C415.683 202.8 415.772 202.8 415.772 202.711L417.423 199.054H417.467Z" fill="#5580F9"/>
<path d="M308.864 151.735C314.799 146.338 319.751 144.108 319.751 144.108C314.219 145.223 310.247 147.052 308.864 151.735Z" fill="#EB9363"/>
<path d="M369.1 127.919L378.515 129.971C377.399 127.83 376.15 127.428 369.1 127.919Z" fill="#FFFDC4"/>
<path d="M352.055 200.437C355.937 200.437 359.64 200.347 360.8 201.329C361.961 202.31 360.131 204.584 357.276 206.725C356.026 207.662 355.446 207.751 352.457 205.12C350.27 203.246 349.066 200.392 352.055 200.437Z" fill="#C74153"/>
<path d="M353.662 200.615L350.405 201.15C349.959 202.087 350.94 203.826 352.457 205.12C355.447 207.751 356.027 207.662 357.276 206.725L358.57 205.655C358.079 204.495 356.518 201.552 353.662 200.615Z" fill="#A82C3C"/>
<path d="M359.462 200.794C357.767 200.392 354.956 200.437 352.056 200.437C350.405 200.392 350.048 201.284 350.405 202.355L359.239 202.533C359.73 202.533 359.641 201.552 359.462 200.794Z" fill="white"/>
<path d="M372.357 195.308C373.25 193.747 372.759 191.25 370.84 189.956C370.95 190.248 370.994 190.561 370.97 190.872C370.946 191.183 370.854 191.485 370.701 191.757C370.548 192.029 370.338 192.264 370.084 192.446C369.831 192.628 369.541 192.752 369.234 192.81C368.163 192.989 366.2 192.587 365.352 192.275C362.987 191.383 360.31 191.339 357.098 192.989C352.725 190.625 349.78 192.677 345.809 192.677C344.722 192.688 343.639 192.538 342.596 192.231C339.25 191.25 339.295 189.644 340.053 187.949C335.279 189.064 335.502 194.148 337.599 196.378C338.848 197.939 341.169 198.653 344.247 197.895C349.066 201.998 351.431 202.265 357.098 198.653C361.693 202.488 366.111 202.087 368.743 197.27C368.743 197.27 371.42 197.047 372.357 195.308Z" fill="#6B3143"/>
<path d="M357.097 198.653C361.693 202.488 366.111 202.087 368.743 197.27C368.743 197.27 372.893 196.913 372.803 193.747C372.268 194.996 370.082 196.2 368.029 195.754C364.727 198.43 361.202 197.627 357.901 195.085C357.901 195.085 350.895 198.831 345.943 194.728C340.276 196.111 336.26 193.524 336.93 189.956C335.591 191.963 336.171 194.862 337.599 196.378C338.848 197.939 341.168 198.653 344.247 197.895C349.066 201.998 351.431 202.265 357.097 198.653Z" fill="#5E2737"/>
<path d="M361.573 187.874C360.757 187.526 360.488 186.326 360.971 185.193C361.455 184.06 362.508 183.424 363.324 183.772C364.14 184.12 364.41 185.32 363.926 186.453C363.443 187.586 362.389 188.222 361.573 187.874Z" fill="#543247"/>
</g>
<g clip-path="url(#clip3)">
<rect width="145.357" height="136.476" transform="matrix(-1 0 0 1 276.964 96.2202)" fill="#F7E5BC"/>
<path d="M306.386 129.603H131.667V232.472H306.386V129.603Z" fill="#F7E5BC"/>
<path d="M306.387 223.922V187.08C298.586 184.196 280.179 189.07 271.687 200.809C261.691 190.654 242.432 190.004 224.716 200.809C219.962 188.908 202.165 180.256 178.923 188.664C177.176 174.609 151.415 162.342 131.668 178.793V232.493H297.814C300.084 232.482 302.259 231.576 303.864 229.97C305.47 228.365 306.376 226.192 306.387 223.922Z" fill="#6ADBC6"/>
<path d="M238.978 198.169C258.238 198.291 274.694 207.471 282.617 232.533H224.716L238.978 198.169Z" fill="#44C9C5"/>
<path d="M258.847 232.493H306.387V210.395C294.847 211.573 273.922 216.001 258.847 232.493Z" fill="#44C9C5"/>
<path d="M270.793 222.053H167.018C160.476 228.268 160.151 232.493 160.151 232.493H278.554C278.554 232.493 275.344 225.587 270.793 222.053Z" fill="#FAFAFA"/>
<path d="M273.231 226.603C273.574 226.317 273.803 225.919 273.877 225.479C273.952 225.04 273.867 224.588 273.637 224.206C272.134 221.728 271.646 219.779 268.233 217.991C264.82 216.204 262.585 214.051 252.184 212.711C250.071 207.268 250.518 205.602 234.793 204.384H191.316C184.165 205.521 183.677 205.521 182.418 209.746C181.158 213.97 181.199 213.442 177.461 214.945C173.723 216.448 167.912 216.732 165.677 221.688C164.946 223.312 164.662 224.49 168.928 232.493H264.739C267.739 230.785 270.581 228.814 273.231 226.603Z" fill="#CC4F79"/>
<path d="M238.978 206.13C246.495 207.43 246.21 207.43 241.131 213.401C236.052 219.372 229.592 224.897 222.319 227.862C210.942 232.493 201.19 228.146 195.258 221.241C186.644 211.208 182.946 206.13 190.219 206.13H238.978Z" fill="#590942"/>
<path d="M261.448 149.628L258.075 148.125C258.054 148.125 258.033 148.117 258.018 148.101C258.002 148.086 257.994 148.065 257.994 148.044C257.994 148.022 258.002 148.002 258.018 147.986C258.033 147.971 258.054 147.963 258.075 147.963L261.448 146.46C261.458 146.46 261.469 146.455 261.476 146.448C261.484 146.44 261.488 146.43 261.488 146.419L262.992 143.048C262.992 143.007 263.073 143.007 263.114 143.048L264.617 146.419C264.617 146.46 264.617 146.46 264.658 146.46L268.03 147.963C268.05 147.985 268.061 148.014 268.061 148.044C268.061 148.074 268.05 148.103 268.03 148.125L264.658 149.628H264.617L263.114 153C263.073 153.081 262.992 153.081 262.992 153L261.488 149.628H261.448Z" fill="#FAFAFA"/>
<path d="M166.775 154.381L164.58 153.406C164.54 153.406 164.54 153.325 164.58 153.325L166.775 152.35C166.775 152.339 166.779 152.329 166.786 152.321C166.794 152.313 166.804 152.309 166.815 152.309L167.79 150.116C167.79 150.075 167.872 150.075 167.872 150.116L168.847 152.309H168.887L171.082 153.325C171.122 153.325 171.122 153.406 171.082 153.406L168.887 154.381C168.887 154.392 168.883 154.402 168.876 154.41C168.868 154.417 168.858 154.421 168.847 154.421L167.872 156.615H167.79L166.815 154.421C166.775 154.421 166.775 154.421 166.775 154.381Z" fill="#F7D78D"/>
<path d="M196.233 173.147C193.308 165.023 188.188 159.093 185.75 157.996C183.312 156.899 183.921 158.28 186.197 165.145C188.472 172.01 188.513 183.261 192.739 183.343C196.964 183.424 196.233 173.147 196.233 173.147Z" fill="#2E64E8"/>
<path d="M190.87 175.3C189.122 171.806 189 170.1 188.31 167.46C187.944 166.038 187.416 164.048 186.969 162.464C189.082 166.242 192.779 174.65 193.551 177.331C194.323 180.012 192.617 178.752 190.87 175.3Z" fill="#1C4BBA"/>
<path d="M234.793 173.675C238.937 165.023 245.56 158.889 248.608 157.874C251.655 156.858 250.842 158.28 247.592 165.592C244.341 172.903 243.529 185.211 238.368 185.008C233.208 184.805 234.793 173.675 234.793 173.675Z" fill="#2E64E8"/>
<path d="M219.353 150.481C224.088 150.481 227.926 146.644 227.926 141.91C227.926 137.177 224.088 133.34 219.353 133.34C214.618 133.34 210.779 137.177 210.779 141.91C210.779 146.644 214.618 150.481 219.353 150.481Z" fill="#201E2F"/>
<path d="M227.525 144.151C227.815 141.949 224.244 139.663 219.55 139.045C214.855 138.427 210.814 139.711 210.524 141.913C210.234 144.115 213.805 146.401 218.499 147.019C223.194 147.637 227.235 146.352 227.525 144.151Z" fill="#41314A"/>
<path d="M233.696 148.775C224.838 140.489 210.292 139.433 200.296 146.622C190.301 153.812 192.373 165.023 193.998 177.331L236.296 178.549C238.044 171.847 242.513 157.102 233.696 148.775Z" fill="#4D7AE8"/>
<path d="M237.272 174.894L194.526 173.635C186.684 190.857 178.883 222.906 214.111 223.922C247.714 224.897 245.114 194.31 237.272 174.894Z" fill="#4D7AE8"/>
<path d="M237.271 174.894C239.1 167.379 241.132 155.803 233.696 148.775L232.883 148.085H230.648C230.648 148.085 231.583 162.586 230.811 168.354C230.039 174.122 230.323 174.731 232.071 175.503C233.818 176.275 235.443 177.209 235.118 184.602C234.793 191.995 234.346 192.97 235.971 201.743C237.596 210.517 235.402 216.123 230.811 220.753C246.373 212.508 243.448 190.248 237.271 174.894Z" fill="#2E64E8"/>
<path d="M204.237 208.08C208.869 214.295 221.384 215.879 226.463 208.324C229.023 204.546 222.278 204.343 215.452 204.384C208.625 204.424 201.759 204.709 204.237 208.08Z" fill="#3366E0"/>
<path d="M221.899 175.833C222.007 172.178 219.277 169.131 215.8 169.028C212.323 168.925 209.417 171.804 209.308 175.459C209.2 179.115 211.93 182.161 215.407 182.264C218.884 182.368 221.79 179.488 221.899 175.833Z" fill="#DBE7FF"/>
<path d="M217.924 176.662C217.99 175.25 216.954 174.054 215.609 173.991C214.264 173.927 213.12 175.02 213.053 176.432C212.986 177.844 214.023 179.04 215.368 179.103C216.713 179.166 217.857 178.073 217.924 176.662Z" fill="#201E2F"/>
<path d="M208.748 164.13C211.389 158.605 221.141 159.174 223.375 164.576L208.748 164.13Z" fill="#201E2F"/>
<path d="M206.31 187.242L207.488 187.648L208.666 187.933L209.845 188.217L211.023 188.379C214.224 188.763 217.471 188.373 220.49 187.242L221.628 186.795L222.725 186.267L223.822 185.698L224.919 185.049H225.041C225.39 184.856 225.774 184.736 226.17 184.693C226.566 184.65 226.966 184.687 227.348 184.8C227.73 184.913 228.085 185.101 228.394 185.353C228.702 185.605 228.958 185.916 229.145 186.267C229.393 186.732 229.515 187.254 229.501 187.781C229.487 188.308 229.336 188.822 229.064 189.273C227.76 191.384 225.943 193.131 223.782 194.35C221.622 195.588 219.235 196.377 216.764 196.67C214.292 196.964 211.787 196.755 209.398 196.057C207.021 195.337 204.867 194.023 203.14 192.238C202.58 191.656 202.274 190.876 202.29 190.069C202.305 189.261 202.64 188.493 203.222 187.933C203.61 187.578 204.083 187.328 204.595 187.207C205.107 187.087 205.641 187.098 206.147 187.242H206.31Z" fill="#400015"/>
<path d="M205.009 193.823C206.349 194.777 207.83 195.517 209.398 196.016C211.787 196.714 214.292 196.923 216.764 196.63C219.235 196.337 221.622 195.548 223.782 194.31C225.319 193.426 226.693 192.286 227.845 190.939C226.066 189.189 223.988 187.772 221.709 186.755H221.628L220.49 187.202C217.471 188.332 214.224 188.722 211.023 188.339L209.845 188.176H209.723C207.725 189.657 206.109 191.593 205.009 193.823Z" fill="#590942"/>
<path d="M226.951 188.826L227.073 184.724C226.384 184.554 225.657 184.656 225.041 185.008H224.919L223.822 185.658L222.725 186.227L221.628 186.755L220.49 187.202C217.471 188.332 214.224 188.722 211.023 188.339L209.845 188.176L208.666 187.892L207.488 187.608L206.31 187.202H206.147C205.75 187.094 205.336 187.066 204.928 187.12L204.847 189.233C212.933 193.173 222.075 190.939 226.951 188.826Z" fill="#DBE7FF"/>
<path d="M207.854 187.73L207.488 187.648L206.31 187.242H206.147C205.75 187.134 205.336 187.107 204.928 187.161L204.847 189.273C205.679 189.664 206.533 190.003 207.407 190.289L207.854 187.73Z" fill="#B5CDFF"/>
<path d="M222.441 190.37C223.986 189.986 225.495 189.47 226.951 188.826L227.073 184.724C226.384 184.554 225.657 184.656 225.041 185.008H224.919L223.822 185.658L222.725 186.227L222.319 186.43L222.441 190.37Z" fill="#B5CDFF"/>
<path d="M225.569 181.352L231.827 184.48C231.908 180.702 228.779 180.255 225.569 181.352Z" fill="#3366E0"/>
<path d="M198.265 189.679L204.034 183.992C199.646 183.87 197.899 186.795 198.265 189.679Z" fill="#3366E0"/>
<path d="M201.718 195.488C203.668 198.25 205.659 200.809 205.659 200.809C201.677 200.484 201.718 195.488 201.718 195.488Z" fill="#3366E0"/>
<path d="M233.696 148.775C224.838 140.489 210.291 139.433 200.296 146.622C195.704 149.912 193.713 154.299 193.063 159.336C198.549 163.561 199.158 156.209 201.474 148.572C209.682 155.234 222.115 155.315 230.079 149.384L230.404 155.843C230.77 162.098 234.996 162.83 238.775 159.499C238.287 155.559 236.865 151.74 233.696 148.775Z" fill="#201E2F"/>
<path d="M206.195 158.751C207.233 157.694 207.634 156.405 207.089 155.87C206.545 155.336 205.263 155.758 204.224 156.815C203.186 157.871 202.786 159.16 203.33 159.695C203.874 160.229 205.157 159.807 206.195 158.751Z" fill="#618AED"/>
<path d="M246.089 162.017C243.884 165.186 241.915 168.512 240.197 171.969C239.181 174.081 240.238 174.366 240.563 176.925C240.888 179.484 241.7 178.265 242.757 173.919C243.813 169.573 244.382 168.029 245.439 165.673C246.495 163.317 248.283 158.849 246.089 162.017Z" fill="#1C4BBA"/>
<path d="M251.452 214.742C249.461 220.063 244.179 232.493 244.179 232.493H228.698C236.906 226.765 243.122 220.307 245.926 215.351C248.73 210.395 249.299 207.43 251.411 212.954C251.647 213.524 251.661 214.162 251.452 214.742Z" fill="#BA3B66"/>
<path d="M248.567 232.493C256.003 223.678 258.441 220.672 260.432 219.535C262.423 218.397 265.755 216.651 262.179 222.094C258.603 227.537 252.59 232.493 252.59 232.493H248.567Z" fill="#BA3B66"/>
<path d="M197.249 232.493C191.479 225.506 187.497 218.682 185.993 214.904C184.49 211.127 184.043 210.192 183.677 212.305C183.312 214.417 182.499 215.392 183.23 218.316C183.962 221.241 186.359 229.162 187.862 232.493H197.249Z" fill="#BA3B66"/>
<path d="M173.479 232.493H171.203C168.603 225.912 167.546 222.947 167.424 220.753C167.303 218.56 169.944 225.831 173.479 232.493Z" fill="#BA3B66"/>
<path d="M182.946 232.533H178.152C176.892 222.987 176.892 221.119 177.176 218.438C177.461 215.757 178.802 218.072 179.777 222.866C180.514 226.184 181.576 229.422 182.946 232.533Z" fill="#BA3B66"/>
<path d="M163.686 213.848C167.953 206.943 172.544 203.571 178.111 200.525C183.678 197.478 184.409 195.732 180.305 194.351C176.201 192.969 172.666 193.498 167.75 195.529C162.833 197.56 159.339 198.738 157.835 204.506C156.332 210.274 158.445 213.767 163.686 213.848Z" fill="#542113"/>
<path d="M165.108 206.618C167.749 195.529 169.537 187.12 171.244 179.565C172.95 172.01 174.86 167.623 171.935 166.282C169.009 164.942 167.424 165.429 163.564 174.041C159.704 182.652 157.998 188.867 156.738 193.335C155.478 197.803 151.253 209.949 165.108 206.618Z" fill="#542113"/>
<path d="M159.582 189.233L157.023 188.867C158.404 174.163 159.136 167.907 159.461 163.683C159.786 159.458 158.038 159.377 155.357 159.255C152.675 159.133 151.7 160.23 150.521 165.754C149.343 171.279 147.921 180.865 147.393 184.643C146.865 188.42 145.971 197.113 146.052 199.875C146.133 202.637 159.582 203.896 159.582 189.233Z" fill="#542113"/>
<path d="M147.149 192.929C147.555 187.202 146.702 171.929 146.621 169.085C146.539 166.242 145.524 166.567 143.086 166.486C140.648 166.404 139.632 167.501 139.307 174.203C138.982 180.906 138.454 188.176 138.535 191.548C136.781 196.295 136.114 201.376 136.585 206.415C137.072 211.736 137.763 213.158 138.738 214.823C139.713 216.488 145.524 218.357 152.959 219.088C160.395 219.819 161.086 218.763 163.686 213.848C166.287 208.933 161.411 195.691 161.411 195.691L147.149 192.929Z" fill="#542113"/>
<path d="M137.072 210.233C135.975 212.792 133.821 218.844 131.709 224.856C131.948 226.953 132.949 228.889 134.522 230.297C136.095 231.705 138.13 232.486 140.241 232.493H161.086C161.045 231.802 160.476 222.053 162.427 216.123C162.427 216.123 139.551 204.546 137.072 210.233Z" fill="#542113"/>
<path d="M162.427 198.778C157.632 201.825 156.291 203.287 155.113 205.399C153.935 207.511 152.797 207.714 148.449 207.796C144.102 207.877 144.02 207.958 142.801 202.799C141.582 197.641 143.411 195.447 148.124 195.65C154.382 195.894 165.312 197.153 162.427 198.778Z" fill="#4A1A0D"/>
<path d="M140.526 189.882H156.616C151.618 187.608 144.63 187.892 140.526 189.882Z" fill="#4A1A0D"/>
<path d="M159.501 190.614C161.899 191.467 166.571 193.457 166.571 193.457C163.158 188.42 159.501 190.614 159.501 190.614Z" fill="#4A1A0D"/>
<path d="M162.102 179.809C164.58 180.296 169.537 181.515 169.537 181.515C165.352 177.087 162.102 179.809 162.102 179.809Z" fill="#4A1A0D"/>
<path d="M149.993 176.315C152.309 176.518 156.982 177.087 156.982 177.087C152.472 173.269 149.993 176.315 149.993 176.315Z" fill="#4A1A0D"/>
<path d="M140.16 179.89C142.07 179.606 146.011 179.281 146.011 179.281C141.623 176.884 140.16 179.89 140.16 179.89Z" fill="#4A1A0D"/>
<path d="M182.499 195.488C178.761 198.331 173.194 198.9 167.871 201.622C162.548 204.343 161.614 207.227 160.151 211.208C159.222 213.841 158.448 216.527 157.835 219.251C160.923 218.926 161.817 217.382 163.686 213.848C167.952 206.943 172.544 203.571 178.111 200.525C182.296 198.291 183.758 196.747 182.499 195.488Z" fill="#732D1A"/>
<path d="M162.427 216.123L163.686 213.848C163.93 213.401 164.215 213.036 164.458 212.63C161.817 216.163 154.91 216.895 148.977 217.301C143.045 217.707 138.169 215.798 137.072 210.233C136.381 211.858 133.903 218.154 131.668 224.003V232.493H161.086C161.045 231.802 160.476 222.053 162.427 216.123Z" fill="#4A1A0D"/>
<path d="M171.975 166.282C172.362 167.702 172.389 169.195 172.057 170.629C171.285 174.325 169.537 181.515 165.84 196.3L167.668 195.61C169.05 189.598 170.188 184.399 171.244 179.565C172.951 172.091 174.86 167.663 171.975 166.282Z" fill="#732D1A"/>
<path d="M159.461 163.683C159.136 167.866 158.364 174.366 157.023 188.867L155.926 188.623L157.713 159.539C158.973 159.905 159.664 160.88 159.461 163.683Z" fill="#732D1A"/>
</g>
<rect width="145.357" height="136.476" transform="matrix(-1 0 0 1 422.321 232.696)" fill="#F7E5BC"/>
<mask id="mask1" mask-type="alpha" maskUnits="userSpaceOnUse" x="306" y="258" width="87" height="87">
<ellipse cx="349.643" cy="301.425" rx="43.2143" ry="43.2009" fill="#C4C4C4"/>
</mask>
<g mask="url(#mask1)">
<ellipse cx="349.643" cy="301.425" rx="43.2143" ry="43.2009" fill="#CFDEFF"/>
<path d="M397.941 359.401C397.12 357.376 395.764 355.612 394.017 354.298C392.27 352.985 390.199 352.171 388.025 351.943L383.487 351.464C376.975 328.009 380.266 322.683 361.041 317.421L345.481 316.871C345.481 316.871 329.67 317.136 323.854 324.919L331.987 351.574C331.987 351.574 328.659 369.265 330.173 378.234L350.441 375.618L359.228 404.036C392.344 399.123 407.769 383.777 407.769 383.777L397.941 359.401Z" fill="#CFDEFF"/>
<path d="M327.562 318.972C349.63 339.638 369.573 353.758 366.215 321.159L327.562 318.972Z" fill="#B8C5FF"/>
<path d="M338.394 321.41C357.608 330.439 362.596 333.845 361.337 322.996L338.394 321.41Z" fill="#5697B0"/>
<path d="M379.861 336.588C377.522 326.732 375.766 322.483 365.927 318.922C368.574 325.116 369.728 337.896 369.728 337.896L379.861 336.588Z" fill="white"/>
<path d="M347.064 288.965L346.36 283.515C346.123 281.737 345.327 280.081 344.087 278.785C342.846 277.489 341.226 276.622 339.46 276.307C337.52 275.969 335.523 276.324 333.818 277.31C332.114 278.296 330.811 279.851 330.138 281.701C327.666 288.414 323.803 299.212 321.139 308.294C316.898 322.764 336.089 326.113 354.945 324.674C373.802 323.235 375.578 314.979 372.968 303.026C371.294 295.57 369.174 287.959 367.852 283.228C367.448 281.907 366.667 280.733 365.607 279.848C364.546 278.963 363.251 278.406 361.879 278.245C360.342 278.066 358.788 278.404 357.464 279.205C356.14 280.006 355.119 281.225 354.564 282.669L352.445 288.271L347.064 288.965Z" fill="#7CE4CC"/>
<path d="M370.439 308.751L369.1 308.284L362.23 310.663L355.241 311.565L343.134 309.149C343.134 309.149 336.475 298.855 336.959 310.301C337.341 318.208 340.698 322.747 342.744 324.828C346.808 325.014 350.881 324.939 354.936 324.604C357.997 324.433 361.029 323.923 363.977 323.082C366.019 320.19 369.31 314.864 370.439 308.751Z" fill="#AAFAE7"/>
<path opacity="0.74" d="M336.762 309.333C335.206 304.987 332.389 295.832 333.559 288.932C334.728 282.033 336.269 276.364 339.46 276.308C337.519 275.97 335.522 276.325 333.818 277.311C332.113 278.297 330.811 279.852 330.138 281.702C327.666 288.414 323.803 299.213 321.139 308.294C317.337 321.216 332.282 325.255 349.011 324.943C345.381 324.346 340.768 320.537 336.762 309.333Z" fill="url(#paint5_linear)"/>
<path d="M349.011 324.942L347.665 324.974L346.389 324.997L344.387 324.9L343.758 324.981L342.752 324.897C340.716 322.887 337.359 318.348 336.977 310.441C336.948 310.299 336.953 310.152 336.992 310.013C340.926 320.658 345.46 324.406 349.011 324.942Z" fill="#AAFAE7"/>
<path d="M368.791 307.545L368.782 309.14C361.434 313.945 360.241 315.273 341.31 309.331L341.118 307.846L341.938 308.076C357.968 312.128 361.03 312.488 368.791 307.545Z" fill="#2C4661"/>
<path d="M339.819 313.746C342.293 313.057 343.673 310.25 342.901 307.476C342.128 304.703 339.496 303.012 337.021 303.701C334.547 304.39 333.167 307.196 333.939 309.97C334.712 312.744 337.344 314.434 339.819 313.746Z" fill="#738EFF"/>
<path d="M372.326 307.992C372.829 305.593 372.125 303.416 370.754 303.128C369.383 302.841 367.863 304.552 367.36 306.951C366.857 309.35 367.561 311.528 368.932 311.816C370.303 312.103 371.823 310.391 372.326 307.992Z" fill="#738EFF"/>
<path opacity="0.41" d="M353.548 303.401C353.196 302.878 353.789 302.518 354.26 302.315C354.451 302.242 354.659 302.231 354.856 302.282C355.054 302.332 355.231 302.443 355.363 302.599L357.155 304.925C357.674 305.639 356.896 305.668 356.125 305.2C355.354 304.731 354.085 304.255 353.548 303.401Z" fill="#284E7A"/>
<path opacity="0.41" d="M361.576 304.496L362.121 303.218C362.217 302.999 362.245 302.757 362.202 302.522C362.159 302.287 362.047 302.07 361.88 301.899L361.634 301.647C361.611 301.62 361.582 301.6 361.55 301.588C361.517 301.575 361.482 301.571 361.447 301.576C361.413 301.58 361.38 301.593 361.351 301.613C361.323 301.634 361.3 301.661 361.285 301.692C360.951 302.602 360.692 303.539 360.51 304.491C360.426 305.497 361.055 305.415 361.576 304.496Z" fill="#284E7A"/>
<path d="M353.806 289.445L347.065 288.965L352.447 288.271L354.565 282.67C355.121 281.225 356.141 280.006 357.465 279.205C358.79 278.404 360.343 278.066 361.881 278.245L363.193 278.502C359.991 277.92 358.905 281.612 358.277 286.098C357.954 288.555 358.047 289.821 353.806 289.445Z" fill="#61C7C7"/>
<path d="M366.384 288.422C366.394 286.71 365.266 285.315 363.865 285.307C362.464 285.298 361.32 286.679 361.31 288.391C361.299 290.103 362.427 291.497 363.828 291.506C365.229 291.514 366.374 290.133 366.384 288.422Z" fill="#21354A"/>
<path d="M342.659 287.396C342.827 285.693 341.833 284.2 340.439 284.062C339.044 283.924 337.777 285.194 337.609 286.897C337.441 288.601 338.435 290.094 339.829 290.231C341.223 290.369 342.49 289.1 342.659 287.396Z" fill="#21354A"/>
<path d="M331.987 351.575C334.906 351.625 338.628 351.287 341.949 351.142C341.887 349.816 342.002 348.487 342.291 347.191C342.8 345.014 343.579 342.909 344.608 340.925C341.95 340.7 338.724 340.477 336.084 340.391C335.532 327.321 328.651 320.253 324.855 323.868C323.055 325.577 321.961 327.898 321.787 330.373C321.69 332.375 321.896 335.616 321.776 336.341C321.445 338.728 319.761 339.443 321.825 343.865C322.891 346.072 320.894 351.515 331.987 351.575Z" fill="white"/>
<path d="M341.089 276.808C343.797 278.519 344.478 282.693 344.694 284.37C344.911 286.047 345.299 289.051 345.398 289.82C345.498 290.588 345.744 290.841 348.309 292.002C350.875 293.162 349.804 292.022 348.636 290.681L347.064 288.966L346.36 283.516C346.162 282.028 345.569 280.621 344.642 279.442C343.714 278.262 342.487 277.352 341.089 276.808Z" fill="#D4FFDC"/>
<path d="M364.921 286.376C365.893 286.748 366.112 288.993 365.147 288.123C364.182 287.253 363.582 285.91 364.921 286.376Z" fill="#335A70"/>
<path d="M341.445 285.073C342.347 285.454 342.575 287.769 341.671 286.82C340.767 285.871 340.036 284.616 341.445 285.073Z" fill="#335A70"/>
<path d="M341.247 310.834C342.176 310.343 342.251 308.662 341.415 307.08C340.578 305.497 339.147 304.613 338.218 305.103C337.289 305.594 337.214 307.275 338.05 308.857C338.887 310.44 340.318 311.325 341.247 310.834Z" fill="#B2A6FF"/>
<path d="M372.265 306.085C372.266 304.957 371.825 304.042 371.28 304.042C370.735 304.041 370.293 304.956 370.292 306.084C370.291 307.212 370.732 308.127 371.277 308.128C371.822 308.128 372.265 307.214 372.265 306.085Z" fill="#B2A6FF"/>
<path d="M365.159 280.521C366.668 281.747 367.096 283.965 365.403 282.408C363.71 280.85 363.335 279.052 365.159 280.521Z" fill="#D4FFDC"/>
</g>
<rect width="145.357" height="136.476" transform="matrix(-1 0 0 1 422.321 369.171)" fill="#EF6270"/>
<mask id="mask2" mask-type="alpha" maskUnits="userSpaceOnUse" x="306" y="394" width="87" height="88">
<ellipse cx="349.643" cy="437.9" rx="43.2143" ry="43.2009" fill="#C4C4C4"/>
</mask>
<g mask="url(#mask2)">
<ellipse cx="349.643" cy="437.9" rx="43.2143" ry="43.2009" fill="#CC4355"/>
<path d="M397.941 495.877C397.12 493.852 395.764 492.088 394.017 490.774C392.27 489.46 390.199 488.646 388.025 488.419L383.487 487.939C376.975 464.485 380.266 459.159 361.041 453.896L345.481 453.347C345.481 453.347 329.67 453.611 323.854 461.395L331.987 488.049C331.987 488.049 328.659 505.741 330.173 514.709L350.441 512.094L359.228 540.511C392.344 535.599 407.769 520.253 407.769 520.253L397.941 495.877Z" fill="#CFDEFF"/>
<path d="M327.562 455.447C349.63 476.113 369.573 490.234 366.215 457.635L327.562 455.447Z" fill="#B8C5FF"/>
<path d="M338.394 457.886C357.608 466.915 362.596 470.32 361.337 459.472L338.394 457.886Z" fill="#5697B0"/>
<path d="M379.861 473.064C377.522 463.207 375.766 458.959 365.927 455.398C368.574 461.591 369.728 474.371 369.728 474.371L379.861 473.064Z" fill="white"/>
<path d="M347.064 425.441L346.36 419.991C346.123 418.213 345.327 416.556 344.087 415.261C342.846 413.965 341.226 413.097 339.46 412.783C337.52 412.444 335.523 412.799 333.818 413.786C332.114 414.772 330.811 416.326 330.138 418.177C327.666 424.889 323.803 435.688 321.139 444.769C316.898 459.24 336.089 462.589 354.945 461.15C373.802 459.711 375.578 451.455 372.968 439.502C371.294 432.046 369.174 424.434 367.852 419.703C367.448 418.383 366.667 417.209 365.607 416.324C364.546 415.439 363.251 414.882 361.879 414.72C360.342 414.542 358.788 414.88 357.464 415.681C356.14 416.482 355.119 417.701 354.564 419.145L352.445 424.746L347.064 425.441Z" fill="#7CE4CC"/>
<path d="M370.439 445.227L369.1 444.76L362.23 447.138L355.241 448.04L343.134 445.624C343.134 445.624 336.475 435.331 336.959 446.776C337.341 454.683 340.698 459.223 342.744 461.303C346.808 461.489 350.881 461.414 354.936 461.079C357.997 460.909 361.029 460.398 363.977 459.558C366.019 456.666 369.31 451.339 370.439 445.227Z" fill="#AAFAE7"/>
<path opacity="0.74" d="M336.762 445.808C335.206 441.463 332.389 432.307 333.559 425.408C334.728 418.509 336.269 412.84 339.46 412.784C337.519 412.445 335.522 412.8 333.818 413.787C332.113 414.773 330.811 416.327 330.138 418.178C327.666 424.89 323.803 435.689 321.139 444.77C317.337 457.692 332.282 461.73 349.011 461.418C345.381 460.821 340.768 457.012 336.762 445.808Z" fill="url(#paint6_linear)"/>
<path d="M349.011 461.418L347.665 461.45L346.389 461.472L344.387 461.375L343.758 461.456L342.752 461.373C340.716 459.363 337.359 454.823 336.977 446.917C336.948 446.775 336.953 446.628 336.992 446.488C340.926 457.133 345.46 460.882 349.011 461.418Z" fill="#AAFAE7"/>
<path d="M368.791 444.021L368.782 445.615C361.434 450.421 360.241 451.749 341.31 445.806L341.118 444.322L341.938 444.551C357.968 448.604 361.03 448.963 368.791 444.021Z" fill="#2C4661"/>
<path d="M339.819 450.221C342.293 449.533 343.673 446.726 342.901 443.952C342.128 441.178 339.496 439.488 337.021 440.177C334.547 440.865 333.167 443.672 333.939 446.446C334.712 449.22 337.344 450.91 339.819 450.221Z" fill="#738EFF"/>
<path d="M372.326 444.468C372.829 442.069 372.125 439.891 370.754 439.604C369.383 439.316 367.863 441.028 367.36 443.427C366.857 445.826 367.561 448.004 368.932 448.291C370.303 448.579 371.823 446.867 372.326 444.468Z" fill="#738EFF"/>
<path opacity="0.41" d="M353.548 439.877C353.196 439.354 353.789 438.993 354.26 438.79C354.451 438.718 354.659 438.706 354.856 438.757C355.054 438.808 355.231 438.919 355.363 439.074L357.155 441.4C357.674 442.115 356.896 442.144 356.125 441.675C355.354 441.206 354.085 440.731 353.548 439.877Z" fill="#284E7A"/>
<path opacity="0.41" d="M361.576 440.971L362.121 439.693C362.217 439.475 362.245 439.232 362.202 438.997C362.159 438.762 362.047 438.545 361.88 438.375L361.634 438.122C361.611 438.096 361.582 438.076 361.55 438.063C361.517 438.051 361.482 438.047 361.447 438.051C361.413 438.056 361.38 438.069 361.351 438.089C361.323 438.109 361.3 438.136 361.285 438.167C360.951 439.078 360.692 440.014 360.51 440.967C360.426 441.972 361.055 441.891 361.576 440.971Z" fill="#284E7A"/>
<path d="M353.806 425.921L347.065 425.441L352.447 424.746L354.565 419.145C355.121 417.701 356.141 416.482 357.465 415.681C358.79 414.88 360.343 414.542 361.881 414.72L363.193 414.977C359.991 414.396 358.905 418.088 358.277 422.573C357.954 425.03 358.047 426.297 353.806 425.921Z" fill="#61C7C7"/>
<path d="M366.384 424.897C366.394 423.185 365.266 421.791 363.865 421.782C362.464 421.774 361.32 423.155 361.31 424.867C361.299 426.578 362.427 427.973 363.828 427.981C365.229 427.99 366.374 426.609 366.384 424.897Z" fill="#21354A"/>
<path d="M342.659 423.872C342.827 422.168 341.833 420.675 340.439 420.538C339.044 420.4 337.777 421.669 337.609 423.373C337.441 425.077 338.435 426.569 339.829 426.707C341.223 426.845 342.49 425.575 342.659 423.872Z" fill="#21354A"/>
<path d="M331.987 488.051C334.906 488.1 338.628 487.762 341.949 487.618C341.887 486.291 342.002 484.963 342.291 483.667C342.8 481.49 343.579 479.385 344.608 477.401C341.95 477.175 338.724 476.952 336.084 476.867C335.532 463.796 328.651 456.728 324.855 460.344C323.055 462.053 321.961 464.373 321.787 466.849C321.69 468.85 321.896 472.091 321.776 472.817C321.445 475.204 319.761 475.919 321.825 480.341C322.891 482.547 320.894 487.991 331.987 488.051Z" fill="white"/>
<path d="M341.089 413.284C343.797 414.994 344.478 419.169 344.694 420.846C344.911 422.522 345.299 425.527 345.398 426.295C345.498 427.064 345.744 427.316 348.309 428.477C350.875 429.638 349.804 428.497 348.636 427.156L347.064 425.441L346.36 419.991C346.162 418.504 345.569 417.097 344.642 415.917C343.714 414.737 342.487 413.828 341.089 413.284Z" fill="#D4FFDC"/>
<path d="M364.921 422.852C365.893 423.224 366.112 425.469 365.147 424.599C364.182 423.729 363.582 422.386 364.921 422.852Z" fill="#335A70"/>
<path d="M341.445 421.549C342.347 421.93 342.575 424.245 341.671 423.296C340.767 422.347 340.036 421.091 341.445 421.549Z" fill="#335A70"/>
<path d="M341.247 447.309C342.176 446.819 342.251 445.138 341.415 443.555C340.578 441.973 339.147 441.088 338.218 441.579C337.289 442.07 337.214 443.751 338.05 445.333C338.887 446.915 340.318 447.8 341.247 447.309Z" fill="#B2A6FF"/>
<path d="M372.265 442.561C372.266 441.433 371.825 440.518 371.28 440.517C370.735 440.517 370.293 441.431 370.292 442.559C370.291 443.688 370.732 444.603 371.277 444.603C371.822 444.604 372.265 443.689 372.265 442.561Z" fill="#B2A6FF"/>
<path d="M365.159 416.997C366.668 418.223 367.096 420.441 365.403 418.883C363.71 417.326 363.335 415.527 365.159 416.997Z" fill="#D4FFDC"/>
</g>
<rect x="131.607" y="232.696" width="145.357" height="136.476" fill="#628BF7"/>
<mask id="mask3" mask-type="alpha" maskUnits="userSpaceOnUse" x="161" y="258" width="87" height="87">
<ellipse cx="204.286" cy="301.425" rx="43.2143" ry="43.2009" fill="#C4C4C4"/>
</mask>
<g mask="url(#mask3)">
<ellipse cx="204.286" cy="301.425" rx="43.2143" ry="43.2009" fill="#628BF7"/>
<path d="M194.768 227.69L226.812 287.754C227.555 289.102 227.841 290.654 227.627 292.178C227.413 293.703 226.711 295.116 225.625 296.208L225.18 296.653C219.887 302.187 213.258 306.267 205.931 308.501C198.605 310.734 190.827 311.046 183.345 309.407C182.258 309.171 181.285 308.573 180.584 307.71C179.883 306.848 179.496 305.772 179.488 304.661L178.004 232.139C177.856 204.702 179.191 198.622 194.768 227.69Z" fill="#33BEB5"/>
<path d="M225.18 296.653C226.344 295.426 227.097 293.867 227.336 292.194C227.576 290.52 227.289 288.813 226.515 287.309L194.768 227.69C187.202 213.601 183.048 207.669 180.674 208.707C186.757 250.826 199.218 305.699 199.218 305.699L207.823 307.776C214.404 305.487 220.352 301.676 225.18 296.653Z" fill="#33A2BE"/>
<path d="M217.466 270.254C215.537 266.695 214.647 265.508 213.757 267.288C200.554 246.228 194.174 250.381 194.174 270.847C194.174 270.847 184.977 265.953 186.015 284.046C184.704 283.693 183.314 283.776 182.056 284.285C180.797 284.794 179.739 285.699 179.043 286.864L179.488 304.661C179.497 305.61 179.783 306.537 180.31 307.327C180.836 308.117 181.582 308.736 182.455 309.11C190.308 310.359 198.343 309.777 205.935 307.411C213.526 305.044 220.468 300.956 226.219 295.466C227.034 294.367 227.522 293.06 227.627 291.696C227.732 290.331 227.449 288.965 226.812 287.754L217.466 270.254Z" fill="#F7E5BC"/>
<path d="M226.812 287.754L217.466 270.254C215.537 266.695 214.647 265.508 213.757 267.288C200.554 246.228 194.174 250.381 194.174 270.847C193.393 270.451 192.528 270.248 191.652 270.254C194.174 270.847 194.323 273.368 195.806 278.856C197.29 284.343 198.328 289.237 198.328 289.237L221.768 299.174C223.352 298.064 224.841 296.824 226.219 295.466C227.034 294.367 227.522 293.06 227.627 291.696C227.732 290.331 227.449 288.965 226.812 287.754Z" fill="#F7D197"/>
<path d="M225.774 288.496C214.499 276.335 204.411 272.034 181.565 305.403C181.341 305.761 181.206 306.167 181.171 306.587C181.135 307.007 181.199 307.43 181.358 307.821C181.517 308.212 181.767 308.559 182.087 308.835C182.406 309.111 182.786 309.307 183.196 309.407C190.702 311.03 198.497 310.71 205.845 308.478C213.192 306.246 219.847 302.176 225.18 296.653L225.625 296.208L226.664 294.873C227.23 293.858 227.449 292.686 227.289 291.535C227.128 290.384 226.596 289.317 225.774 288.496Z" fill="#242236"/>
<path d="M223.845 298.877L220.878 283.75C212.57 276.928 203.817 276.779 189.13 295.169L195.213 309.555C205.533 308.59 215.413 304.905 223.845 298.877Z" fill="#9E4B34"/>
<path d="M224.587 298.284L213.757 297.394L212.273 301.547L209.603 295.763C207.081 289.83 206.933 289.979 204.707 295.021C202.482 300.063 192.543 298.284 192.543 298.284L190.466 293.686C203.372 278.114 211.532 277.224 219.098 282.415L224.587 298.284Z" fill="#7A2F28"/>
<path d="M175.482 318.899L177.411 313.856C177.829 312.861 178.477 311.979 179.302 311.283C180.127 310.587 181.106 310.096 182.158 309.852L189.724 308.369L219.691 307.776L236.01 316.081C236.673 316.405 237.249 316.884 237.688 317.478C238.127 318.072 238.416 318.762 238.532 319.492L239.125 323.348L246.988 328.538C247.424 328.82 247.768 329.222 247.979 329.697C248.19 330.171 248.258 330.696 248.175 331.208C246.098 349.301 227.554 376.886 201.74 364.577C182.455 355.382 164.652 342.034 156.048 335.212L152.784 339.661C151.894 335.361 152.636 333.729 155.454 331.505C156.357 330.892 157.202 330.197 157.976 329.428C158.236 328.713 158.386 327.963 158.421 327.204C159.163 323.793 158.421 322.903 162.427 322.013L175.482 318.899Z" fill="#33BEB5"/>
<path d="M189.872 310.149C182.899 311.335 179.042 311.187 189.872 317.564C200.702 323.941 189.872 310.149 189.872 310.149Z" fill="#1E6470"/>
<path d="M209.009 288.644L210.196 293.983C210.345 294.131 210.493 294.428 210.79 294.428L213.015 294.725L211.086 290.275V289.979L211.531 286.864L209.454 288.051L209.009 288.644Z" fill="#66251F"/>
<path d="M198.329 293.983L202.334 294.576C200.851 296.801 199.07 296.504 198.329 293.983Z" fill="#5E221D"/>
<path d="M213.015 292.5L217.02 291.313C216.575 293.983 214.795 294.428 213.015 292.5Z" fill="#5E221D"/>
<path d="M200.998 294.725C201.654 294.725 202.185 293.795 202.185 292.648C202.185 291.502 201.654 290.572 200.998 290.572C200.343 290.572 199.812 291.502 199.812 292.648C199.812 293.795 200.343 294.725 200.998 294.725Z" fill="black"/>
<path d="M215.241 292.055C215.896 292.055 216.428 291.126 216.428 289.979C216.428 288.832 215.896 287.902 215.241 287.902C214.585 287.902 214.054 288.832 214.054 289.979C214.054 291.126 214.585 292.055 215.241 292.055Z" fill="black"/>
<path d="M219.097 282.415L222.361 284.936C223.548 288.199 223.993 292.796 225.18 296.652C226.367 300.508 227.999 306.292 227.257 309.555C226.515 312.818 227.108 313.114 229.185 317.267C231.262 321.42 235.119 325.869 233.784 330.911C236.01 334.322 235.268 336.399 234.674 339.513C234.081 342.628 231.559 350.933 225.922 350.784C224.018 353.439 221.355 355.455 218.284 356.567C215.212 357.679 211.875 357.834 208.713 357.013C199.663 354.789 190.614 348.56 191.652 340.403C188.685 338.03 189.279 331.801 189.724 328.39C190.042 325.359 189.582 322.296 188.388 319.492C187.35 316.526 187.35 313.559 188.24 307.331C187.2 304.753 186.454 302.066 186.015 299.322L190.465 293.538L192.542 298.284C193.538 300.263 194.429 302.292 195.213 304.364C195.96 304.037 196.772 303.885 197.586 303.919C198.138 302.778 198.973 301.797 200.012 301.07C201.051 300.343 202.259 299.894 203.52 299.767L212.273 301.547L213.757 297.394C217.911 296.801 219.988 296.801 221.471 297.839C222.257 295.494 222.36 292.973 221.768 290.572C221.026 287.754 219.097 282.415 219.097 282.415Z" fill="white"/>
<path d="M213.015 304.958L209.603 304.216C207.971 303.771 208.12 303.623 203.521 299.767L212.274 301.547L213.757 297.394C217.911 296.801 219.988 296.801 221.472 297.839C222.257 295.494 222.36 292.973 221.768 290.572C221.027 287.754 219.098 282.415 219.098 282.415L222.213 284.936C223.548 288.199 223.994 292.796 225.18 296.652C226.367 300.508 227.999 306.292 227.257 309.555C226.516 312.818 227.109 313.114 229.186 317.267C231.263 321.42 235.12 325.869 233.785 330.911C236.01 334.322 235.268 336.399 234.675 339.513C234.082 342.628 231.56 350.933 225.922 350.784C224.019 353.439 221.356 355.455 218.284 356.567C215.212 357.679 211.875 357.834 208.713 357.013C199.664 354.789 190.614 348.56 191.653 340.403C194.471 348.115 200.405 346.632 200.405 346.632C204.011 345.852 207.696 345.504 211.384 345.594C213.461 341.886 215.983 338.327 218.059 336.844C222.51 328.39 219.098 319.343 217.021 314.301L213.015 304.958Z" fill="#D6DFFF"/>
<path d="M213.015 304.958C215.241 305.403 215.092 303.475 214.944 301.547C214.863 300.091 214.457 298.673 213.757 297.394L212.274 301.547L203.521 299.767C208.12 303.623 207.971 303.771 209.603 304.216L213.015 304.958Z" fill="#CAD5FC"/>
<path d="M196.252 291.462L204.411 289.089C203.722 288.699 202.962 288.451 202.175 288.359C201.388 288.268 200.591 288.334 199.831 288.556C199.071 288.777 198.362 289.148 197.747 289.647C197.133 290.146 196.624 290.763 196.252 291.462Z" fill="#CFDEFF"/>
<path d="M210.345 288.199L218.801 286.568C217.452 285.699 215.821 285.384 214.245 285.688C212.67 285.992 211.273 286.891 210.345 288.199Z" fill="#CFDEFF"/>
<path d="M216.576 308.072C216.545 308.628 216.32 309.154 215.941 309.561C215.561 309.968 215.051 310.228 214.499 310.297C205.598 311.483 201.74 309.407 200.257 308.22C200.078 308.052 199.944 307.842 199.866 307.609C199.788 307.376 199.77 307.128 199.812 306.886V306.589C204.559 308.22 211.68 307.479 213.312 307.182C214.944 306.886 214.35 306.441 214.202 305.699C214.514 305.699 214.822 305.761 215.11 305.88C215.398 305.999 215.66 306.174 215.88 306.394C216.101 306.615 216.276 306.876 216.395 307.164C216.514 307.452 216.576 307.761 216.576 308.072Z" fill="#DE5D70"/>
<path d="M205.672 269.057C207.15 268.349 207.315 265.62 206.041 262.96C204.766 260.301 202.535 258.719 201.057 259.427C199.579 260.135 199.415 262.864 200.689 265.524C201.963 268.183 204.195 269.765 205.672 269.057Z" fill="#FF9CCD"/>
<path d="M206.043 262.838C204.856 260.169 202.482 258.538 200.999 259.279C200.822 259.37 200.665 259.496 200.537 259.649C200.41 259.802 200.315 259.978 200.257 260.169C202.779 260.021 201.444 262.987 206.043 262.838Z" fill="#FFEBF5"/>
<path d="M199.812 261.949C199.844 263.17 200.096 264.375 200.553 265.508L201.147 266.398C201.592 266.25 202.63 265.953 203.075 266.695C203.52 267.436 204.114 268.771 205.746 269.067C206.147 268.753 206.465 268.346 206.672 267.88C206.879 267.415 206.968 266.906 206.933 266.398H206.488C203.372 266.398 201.592 263.135 199.812 261.949Z" fill="#FF70B7"/>
<path d="M190.465 278.708C191.285 278.708 191.949 277.844 191.949 276.78C191.949 275.715 191.285 274.852 190.465 274.852C189.646 274.852 188.982 275.715 188.982 276.78C188.982 277.844 189.646 278.708 190.465 278.708Z" fill="#F7D197"/>
<path d="M182.603 291.462C183.422 291.462 184.086 290.598 184.086 289.534C184.086 288.469 183.422 287.606 182.603 287.606C181.784 287.606 181.119 288.469 181.119 289.534C181.119 290.598 181.784 291.462 182.603 291.462Z" fill="#F7D197"/>
<path d="M186.015 299.322C186.454 301.633 187.049 303.913 187.795 306.144C187.795 304.364 188.537 302.288 189.724 301.843C190.91 301.398 191.059 298.432 192.542 298.284L190.465 293.538L186.015 299.322Z" fill="#A8C3FF"/>
<path d="M217.614 315.784C221.323 319.492 222.658 322.161 222.955 324.238C221.446 323.686 220.042 322.884 218.801 321.865L217.614 315.784Z" fill="white"/>
<path d="M203.372 286.419C206.637 285.437 209.956 284.645 213.312 284.046C207.971 283.453 205.004 284.343 203.372 286.419Z" fill="#66251F"/>
<path d="M206.784 292.797C206.815 293.481 206.99 294.152 207.296 294.765C207.603 295.378 208.035 295.92 208.565 296.356C209.306 296.949 208.713 295.911 207.823 293.983C206.933 292.055 206.488 291.61 206.784 292.797Z" fill="#C27059"/>
</g>
<rect width="145.357" height="136.476" transform="matrix(-1 0 0 1 276.964 369.171)" fill="#FFB869"/>
<mask id="mask4" mask-type="alpha" maskUnits="userSpaceOnUse" x="161" y="394" width="87" height="88">
<ellipse cx="204.286" cy="437.9" rx="43.2143" ry="43.2009" fill="#C4C4C4"/>
</mask>
<g mask="url(#mask4)">
<ellipse cx="204.286" cy="437.9" rx="43.2143" ry="43.2009" fill="#FFB869"/>
<path d="M182.109 452.009C187.153 469.541 207.442 481.688 223.719 470.229C239.996 458.77 223.834 435.278 223.834 435.278C223.834 435.278 232.66 413.047 210.537 407.776C188.414 402.505 182.912 412.131 182.109 452.009Z" fill="#4D7AE8"/>
<path d="M214.893 439.174C212.424 439.174 210.422 436.507 210.422 433.216C210.422 429.925 212.424 427.257 214.893 427.257C217.362 427.257 219.363 429.925 219.363 433.216C219.363 436.507 217.362 439.174 214.893 439.174Z" fill="#DBE7FF"/>
<path d="M216.809 437.74C216.178 437.697 215.733 436.69 215.814 435.49C215.896 434.291 216.475 433.353 217.106 433.396C217.738 433.439 218.184 434.446 218.101 435.646C218.02 436.846 217.441 437.783 216.809 437.74Z" fill="#201E2F"/>
<path d="M220.051 422.1C219.754 421.21 219.186 420.436 218.424 419.888C217.662 419.339 216.749 419.044 215.81 419.044C214.871 419.044 213.956 419.339 213.196 419.888C212.434 420.436 211.865 421.21 211.568 422.1H220.051Z" fill="#201E2F"/>
<path d="M219.593 447.425C215.237 448.571 210.537 447.54 206.64 443.3C206.13 442.719 205.415 442.359 204.646 442.294C203.876 442.23 203.111 442.468 202.513 442.956C201.861 443.398 201.411 444.08 201.26 444.853C201.11 445.626 201.272 446.427 201.71 447.081C207.671 456.822 216.956 458.311 222.688 452.811C223.081 452.458 223.373 452.006 223.535 451.503C223.695 450.999 223.719 450.462 223.605 449.946C223.525 449.508 223.355 449.09 223.106 448.721C222.856 448.352 222.532 448.039 222.154 447.802C221.777 447.564 221.354 447.408 220.913 447.344C220.472 447.279 220.022 447.307 219.593 447.425Z" fill="#590942"/>
<path d="M216.268 447.883C217.393 447.893 218.513 447.738 219.592 447.425H220.624V450.29C220.624 450.29 218.905 451.55 212.486 450.863V449.259L201.252 445.477C201.256 445.005 201.373 444.54 201.592 444.122C201.811 443.703 202.127 443.343 202.513 443.071C202.513 443.04 202.525 443.011 202.546 442.99C202.568 442.968 202.597 442.956 202.627 442.956C203.099 442.633 203.662 442.473 204.232 442.498C204.347 442.383 204.576 442.498 204.691 442.498H205.722C205.837 442.612 205.952 442.612 205.952 442.727C205.952 442.841 206.181 442.727 206.181 442.841L206.639 443.185C207.318 443.962 208.088 444.655 208.932 445.248L210.537 446.279C211.284 446.739 212.095 447.087 212.944 447.31C214.015 447.679 215.137 447.872 216.268 447.883Z" fill="#DBE7FF"/>
<path d="M202.513 442.956C202.513 442.926 202.525 442.896 202.546 442.875C202.568 442.853 202.597 442.841 202.627 442.841C203.099 442.519 203.662 442.358 204.232 442.383C204.347 442.268 204.576 442.383 204.691 442.383H205.722C205.837 442.498 205.952 442.498 205.952 442.612C205.952 442.727 206.181 442.612 206.181 442.727L206.639 443.071C207 443.546 207.424 443.971 207.9 444.331L204.691 446.279L201.252 445.133C201.291 444.7 201.423 444.281 201.641 443.905C201.859 443.529 202.156 443.205 202.513 442.956Z" fill="#B5CDFF"/>
<path d="M186.809 415.798C190.936 406.63 198.157 404.797 210.537 407.776C213.03 408.333 215.426 409.26 217.644 410.526C218.332 414.193 212.715 415.339 202.284 412.016C205.723 418.204 198.616 429.205 186.809 415.798Z" fill="#201E2F"/>
<path d="M201.252 407.432L201.825 399.869C201.877 399.179 201.778 398.486 201.537 397.837C201.296 397.188 200.918 396.598 200.428 396.109C199.939 395.619 199.349 395.241 198.7 395C198.051 394.759 197.357 394.661 196.667 394.713C195.889 394.757 195.133 394.989 194.465 395.389C193.797 395.789 193.235 396.346 192.83 397.011C192.424 397.676 192.185 398.429 192.135 399.207C192.085 399.984 192.224 400.762 192.54 401.474L195.979 409.266L201.252 407.432Z" fill="#201E2F"/>
<path d="M171.449 447.884L174.888 449.144L182.109 444.446V450.29L188.07 454.988C189.322 456.018 190.353 457.289 191.102 458.726C191.85 460.164 192.301 461.738 192.426 463.354L192.655 468.052C201.367 475.271 213.288 477.563 223.719 470.229C225.416 469.096 226.924 467.704 228.19 466.104L231.743 467.364C231.743 467.364 224.522 497.732 212.486 503.232C200.45 508.733 192.082 503.232 192.082 503.232C179.473 460.374 183.141 452.353 151.962 464.729L150.472 456.02L171.449 447.884Z" fill="#EF6767"/>
<path d="M196.438 434.247L173.741 413.047L171.678 415.683L189.216 448.342L196.438 434.247Z" fill="#4D7AE8"/>
<path d="M188.184 429.434L179.243 423.131L186.121 435.507L184.86 430.695L188.184 429.434Z" fill="#3366E0"/>
</g>
</g>
</g>
<path d="M293.541 20.9756H259.887C258.28 20.9756 256.978 22.2355 256.978 23.7896C256.978 25.3438 258.28 26.6037 259.887 26.6037H293.541C295.147 26.6037 296.45 25.3438 296.45 23.7896C296.45 22.2355 295.147 20.9756 293.541 20.9756Z" fill="black"/>
<path d="M306.837 28.6597C309.59 28.6597 311.823 26.4281 311.823 23.6754C311.823 20.9226 309.59 18.6911 306.837 18.6911C304.083 18.6911 301.851 20.9226 301.851 23.6754C301.851 26.4281 304.083 28.6597 306.837 28.6597Z" fill="black"/>
<path d="M436.676 211.002H435.43V131.461H436.676C437.558 131.461 438.403 131.811 439.026 132.434C439.65 133.057 440 133.902 440 134.784V207.471C440.002 208.373 439.658 209.241 439.04 209.897C438.422 210.553 437.576 210.949 436.676 211.002Z" fill="#ACADBD"/>
</g>
<defs>
<linearGradient id="paint0_linear" x1="163.369" y1="160.66" x2="163.369" y2="640.025" gradientUnits="userSpaceOnUse">
<stop stop-color="#CCCFDE"/>
<stop offset="0.58" stop-color="#D2D4E3"/>
<stop offset="1" stop-color="#DADCEB"/>
</linearGradient>
<linearGradient id="paint1_linear" x1="209.426" y1="154.118" x2="209.426" y2="602.29" gradientUnits="userSpaceOnUse">
<stop stop-color="#B6B9CC"/>
<stop offset="0.55" stop-color="#BCBFD0"/>
<stop offset="1" stop-color="#C5C8D6"/>
</linearGradient>
<radialGradient id="paint2_radial" cx="0" cy="0" r="1" gradientUnits="userSpaceOnUse" gradientTransform="translate(88.1454 150.463) scale(94.3985 94.3693)">
<stop offset="0.51" stop-color="#A6A7BD"/>
<stop offset="0.65" stop-color="#ACADC2"/>
<stop offset="0.85" stop-color="#BBBDCF"/>
<stop offset="1" stop-color="#CCCFDE"/>
</radialGradient>
<linearGradient id="paint3_linear" x1="360.168" y1="128.699" x2="340.698" y2="178.884" gradientUnits="userSpaceOnUse">
<stop stop-color="#FFC285"/>
<stop offset="1" stop-color="#DB8D6B"/>
</linearGradient>
<linearGradient id="paint4_linear" x1="295.456" y1="158.162" x2="403.153" y2="158.162" gradientUnits="userSpaceOnUse">
<stop stop-color="#D67569"/>
<stop offset="1" stop-color="#E39E7F"/>
</linearGradient>
<linearGradient id="paint5_linear" x1="319.341" y1="309.45" x2="333.517" y2="304.072" gradientUnits="userSpaceOnUse">
<stop stop-color="#61C7C7"/>
<stop offset="1" stop-color="#54B9C7"/>
</linearGradient>
<linearGradient id="paint6_linear" x1="319.341" y1="445.925" x2="333.517" y2="440.548" gradientUnits="userSpaceOnUse">
<stop stop-color="#61C7C7"/>
<stop offset="1" stop-color="#54B9C7"/>
</linearGradient>
<clipPath id="clip0">
<rect width="440" height="714" fill="white"/>
</clipPath>
<clipPath id="clip1">
<rect width="290.714" height="520.375" fill="white" transform="translate(131.607 16.6913)"/>
</clipPath>
<clipPath id="clip2">
<rect width="145.357" height="136.476" fill="white" transform="matrix(-1 0 0 1 422.321 96.2202)"/>
</clipPath>
<clipPath id="clip3">
<rect width="145.357" height="136.476" fill="white" transform="matrix(-1 0 0 1 276.964 96.2202)"/>
</clipPath>
</defs>
</svg>
