<svg width="488" height="286" viewBox="0 0 488 286" fill="none" xmlns="http://www.w3.org/2000/svg">
<path d="M436.281 0H51.6381C44.3175 0 38.3829 5.92102 38.3829 13.225V264.15C38.3829 271.454 44.3175 277.375 51.6381 277.375H436.281C443.601 277.375 449.536 271.454 449.536 264.15V13.225C449.536 5.92102 443.601 0 436.281 0Z" fill="#11111A"/>
<path d="M436.281 2.43404C439.157 2.43396 441.916 3.56826 443.957 5.58965C445.999 7.61105 447.156 10.3556 447.178 13.225V264.094C447.178 266.977 446.029 269.742 443.986 271.781C441.942 273.82 439.171 274.966 436.281 274.966H51.7194C48.8294 274.966 46.0577 273.82 44.0141 271.781C41.9706 269.742 40.8225 266.977 40.8225 264.094V13.225C40.844 10.3556 42.0015 7.61105 44.0428 5.58965C46.084 3.56826 48.8434 2.43396 51.7194 2.43404H436.281ZM436.281 2.30257e-09H51.7194C48.1964 -6.53423e-05 44.8165 1.39068 42.3177 3.86854C39.819 6.34639 38.4044 9.71004 38.3829 13.225V264.094C38.3829 267.623 39.788 271.007 42.2891 273.502C44.7902 275.998 48.1823 277.4 51.7194 277.4H436.281C439.818 277.4 443.21 275.998 445.711 273.502C448.212 271.007 449.617 267.623 449.617 264.094V13.225C449.596 9.71004 448.181 6.34639 445.682 3.86854C443.184 1.39068 439.804 -6.53423e-05 436.281 2.30257e-09V2.30257e-09Z" fill="#B8B9C9"/>
<path d="M488 271.639H0V281.043H488V271.639Z" fill="url(#paint0_linear)"/>
<path d="M277.382 274.073H210.618C209.978 274.053 209.369 273.79 208.916 273.338C208.463 272.886 208.199 272.278 208.179 271.639H279.821C279.801 272.278 279.537 272.886 279.084 273.338C278.631 273.79 278.022 274.053 277.382 274.073Z" fill="#B8B9C9"/>
<path d="M0 281.051C9.94376 283.444 20.0572 285.072 30.251 285.919H457.749C467.943 285.072 478.056 283.444 488 281.051H0Z" fill="#ACADBF"/>
<mask id="mask0" mask-type="alpha" maskUnits="userSpaceOnUse" x="47" y="8" width="394" height="250">
<path d="M440.672 8.76256H47.3281V257.465H440.672V8.76256Z" fill="#36393F"/>
</mask>
<g mask="url(#mask0)">
<rect x="47.6473" y="8.43432" width="482.711" height="337.193" rx="6.63796" fill="#292841"/>
<path d="M47.6473 15.0723C47.6473 11.4062 50.6192 8.43432 54.2853 8.43432H147.76V345.627H54.2853C50.6192 345.627 47.6473 342.655 47.6473 338.989V15.0723Z" fill="#1C1B29"/>
<path fill-rule="evenodd" clip-rule="evenodd" d="M169.483 47.2433C169.225 47.2433 169.03 47.0099 169.075 46.7557L169.441 44.6984H167.384C167.127 44.6984 166.931 44.4658 166.976 44.2119L167.053 43.7692C167.088 43.5708 167.26 43.426 167.462 43.426H169.664L170.34 39.6087H168.283C168.026 39.6087 167.83 39.3761 167.875 39.1222L167.952 38.6795C167.987 38.4811 168.16 38.3363 168.361 38.3363H170.563L170.955 36.1337C170.99 35.9357 171.162 35.7915 171.364 35.7915H171.796C172.054 35.7915 172.25 36.0248 172.205 36.279L171.839 38.3363H175.665L176.056 36.1337C176.092 35.9357 176.264 35.7915 176.465 35.7915H176.897C177.156 35.7915 177.351 36.0248 177.306 36.279L176.94 38.3363H178.997C179.254 38.3363 179.45 38.5689 179.405 38.8229L179.328 39.2655C179.293 39.464 179.12 39.6087 178.919 39.6087H176.717L176.041 43.426H178.097C178.355 43.426 178.551 43.6586 178.506 43.9126L178.428 44.3552C178.394 44.5537 178.221 44.6984 178.02 44.6984H175.818L175.426 46.9011C175.391 47.0991 175.218 47.2433 175.017 47.2433H174.585C174.327 47.2433 174.131 47.0099 174.176 46.7557L174.542 44.6984H170.716L170.324 46.9011C170.289 47.0991 170.117 47.2433 169.916 47.2433H169.483ZM171.616 39.6087L170.94 43.426H174.766L175.442 39.6087H171.616Z" fill="#B9BBBE"/>
<path d="M191.364 44.164C191.364 43.0061 190.739 42.5735 189.145 42.1663C188.227 41.9245 187.997 41.7337 187.997 41.4028C187.997 41.072 188.278 40.843 188.851 40.843C189.464 40.843 190.191 41.0593 190.803 41.4028L191.007 40.1304C190.395 39.8632 189.655 39.6978 188.851 39.6978C187.423 39.6978 186.581 40.4485 186.581 41.5174C186.581 42.6371 187.206 43.0697 188.698 43.4515C189.68 43.6932 189.948 43.8714 189.948 44.304C189.948 44.7112 189.591 44.9529 188.928 44.9529C188.163 44.9529 187.347 44.6603 186.683 44.2276L186.479 45.5001C187.066 45.8182 187.984 46.0981 188.877 46.0981C190.497 46.0981 191.364 45.3728 191.364 44.164Z" fill="white"/>
<path d="M195.868 45.9709L195.677 44.6857C195.536 44.7239 195.371 44.7366 195.192 44.7366C194.605 44.7366 194.389 44.4694 194.389 43.9731V41.072H195.83L195.638 39.825H194.389V37.6492L192.871 37.8782V39.825H192.004V41.072H192.871V44.2276C192.871 45.6273 193.687 46.0726 194.899 46.0726C195.345 46.0726 195.626 46.0218 195.868 45.9709Z" fill="white"/>
<path d="M196.985 39.825V44.2404C196.985 45.3983 197.585 46.0981 198.745 46.0981C199.561 46.0981 200.225 45.6527 200.798 45.1056L200.939 45.9709H202.24V39.825H200.709V43.9731C200.263 44.4312 199.778 44.7366 199.306 44.7366C198.745 44.7366 198.516 44.3803 198.516 43.8459V39.825H196.985Z" fill="white"/>
<path d="M205.035 42.9807C205.035 41.6319 205.609 40.9829 206.413 40.9829C206.936 40.9829 207.229 41.072 207.612 41.2502V43.8841C207.204 44.4058 206.77 44.7366 206.209 44.7366C205.533 44.7366 205.035 44.1767 205.035 42.9807ZM203.492 43.0697C203.492 45.1438 204.525 46.0981 205.813 46.0981C206.668 46.0981 207.267 45.64 207.701 45.1183L207.828 45.9709H209.142V36.7839L207.612 37.0257V39.9905C207.242 39.8632 206.77 39.7614 206.183 39.7614C204.755 39.7614 203.492 40.7794 203.492 43.0697Z" fill="white"/>
<path d="M211.349 48.2867C212.458 48.2867 213.172 47.8413 213.695 46.3653L216.054 39.825H214.511L213.134 44.1513L211.731 39.736L210.137 39.9396L212.369 45.9581L212.318 46.1363C212.114 46.7979 211.706 47.027 211.195 47.027C210.928 47.027 210.711 46.9888 210.52 46.9379L210.724 48.223C210.864 48.2612 211.017 48.2867 211.349 48.2867Z" fill="white"/>
<path d="M220.013 43.0443V41.5683H216.697V43.0443H220.013Z" fill="white"/>
<path d="M224.725 41.8227C224.725 42.4971 224.317 42.9934 223.641 42.9934C222.978 42.9934 222.57 42.5099 222.57 41.8736C222.57 41.1993 222.965 40.6776 223.641 40.6776C224.292 40.6776 224.725 41.1738 224.725 41.8227ZM226.906 46.2253C226.906 45.2837 226.115 44.8893 224.853 44.7112L224.062 44.6348C223.106 44.4948 222.914 44.4439 222.914 44.2404C222.914 44.1386 223.016 44.024 223.169 43.9095C223.322 43.935 223.488 43.9477 223.667 43.9477C224.993 43.9477 226.128 43.1588 226.128 41.8355C226.128 41.5555 226.077 41.2756 225.962 41.0338L227.085 40.9575L226.881 39.736L225.376 40.2704C224.929 39.9014 224.343 39.6978 223.629 39.6978C222.251 39.6978 221.154 40.5249 221.154 41.8736C221.154 42.688 221.588 43.3242 222.315 43.6678C221.805 43.9731 221.537 44.304 221.537 44.6475C221.537 44.8893 221.652 45.1183 221.894 45.3092C221.129 45.7418 220.734 46.1872 220.734 46.7598C220.734 47.7777 221.996 48.2867 223.667 48.2867C225.452 48.2867 226.906 47.5487 226.906 46.2253ZM223.769 47.3832C222.608 47.3832 222.06 47.0524 222.06 46.5943C222.06 46.2762 222.264 45.9836 222.71 45.6655C223.016 45.7291 223.208 45.7673 223.629 45.8182L224.457 45.92C225.223 46.0345 225.49 46.2253 225.49 46.5562C225.49 47.0142 224.866 47.3832 223.769 47.3832Z" fill="white"/>
<path d="M231.708 41.212L231.466 39.6978C230.51 39.7487 229.897 40.3467 229.489 41.0593L229.298 39.825H227.997V45.9709H229.528V42.4462C229.974 41.7846 230.752 41.2756 231.708 41.212Z" fill="white"/>
<path d="M238.002 42.8916C238.002 40.8939 236.778 39.6978 235.094 39.6978C233.424 39.6978 232.199 40.9066 232.199 42.9043C232.199 44.902 233.411 46.0981 235.082 46.0981C236.765 46.0981 238.002 44.8893 238.002 42.8916ZM236.51 42.9043C236.51 44.0495 236.025 44.8511 235.082 44.8511C234.189 44.8511 233.691 44.024 233.691 42.8916C233.691 41.7591 234.176 40.9448 235.082 40.9448C236 40.9448 236.51 41.7719 236.51 42.9043Z" fill="white"/>
<path d="M239.218 39.825V44.2404C239.218 45.3983 239.817 46.0981 240.978 46.0981C241.794 46.0981 242.457 45.6527 243.031 45.1056L243.172 45.9709H244.472V39.825H242.942V43.9731C242.496 44.4312 242.011 44.7366 241.539 44.7366C240.978 44.7366 240.748 44.3803 240.748 43.8459V39.825H239.218Z" fill="white"/>
<path d="M250.138 42.8152C250.138 44.164 249.538 44.8129 248.748 44.8129C248.225 44.8129 247.931 44.7239 247.562 44.5457V41.9118C247.97 41.3901 248.403 41.0466 248.952 41.0466C249.64 41.0466 250.138 41.6319 250.138 42.8152ZM251.681 42.7262C251.681 40.6648 250.648 39.6978 249.36 39.6978C248.505 39.6978 247.906 40.1686 247.472 40.6648L247.332 39.825H246.031V48.3376L247.562 48.1085V45.7927C247.931 45.9327 248.403 46.0345 248.99 46.0345C250.405 46.0345 251.681 45.0165 251.681 42.7262Z" fill="white"/>
<mask id="mask1" mask-type="alpha" maskUnits="userSpaceOnUse" x="165" y="66" width="27" height="26">
<ellipse cx="178.368" cy="79.0539" rx="12.7533" ry="12.7242" fill="#C4C4C4"/>
</mask>
<g mask="url(#mask1)">
<ellipse cx="178.368" cy="79.0539" rx="12.7533" ry="12.7242" fill="#F7E5BC"/>
<path d="M193.034 87.0185L191.301 91.007C191.166 91.3219 190.968 91.6064 190.721 91.8438C190.473 92.0811 190.18 92.2665 189.859 92.3889C189.538 92.5113 189.196 92.5682 188.853 92.5563C188.509 92.5444 188.172 92.4639 187.86 92.3196L181.383 89.3788L184.609 84.3048L188.556 86.501L189.138 84.7845C191.175 85.5922 192.263 86.2991 193.034 87.0185Z" fill="#F7E5BC"/>
<path d="M185.507 85.0874C188.113 85.5165 188.354 86.0593 189.05 87.4224L186.254 87.1069L185.507 85.0874Z" fill="#F7E5BC"/>
<path d="M173.236 63.4663C172.718 63.6275 172.281 63.9793 172.013 64.4505C171.745 64.9216 171.667 65.4768 171.794 66.0033L174.388 76.5677L179.03 75.6084L175.906 64.9052C175.827 64.6344 175.696 64.3819 175.519 64.1623C175.342 63.9428 175.122 63.7608 174.874 63.6268C174.625 63.4928 174.352 63.4096 174.071 63.3821C173.79 63.3545 173.506 63.3832 173.236 63.4663Z" fill="#D6569B"/>
<path d="M175.817 74.0938L177.651 74.0181L175.703 67.6568C175.676 67.5653 175.631 67.4804 175.569 67.4073C175.508 67.3342 175.432 67.2744 175.347 67.2318C175.262 67.1892 175.168 67.1646 175.073 67.1595C174.977 67.1544 174.882 67.169 174.792 67.2024C174.635 67.2622 174.506 67.3777 174.429 67.5267C174.352 67.6757 174.333 67.8479 174.375 68.0102L175.817 74.0938Z" fill="#E374B0"/>
<path d="M183.977 63.4158C184.497 63.5718 184.938 63.9196 185.211 64.3885C185.483 64.8573 185.567 65.4122 185.444 65.9402L182.965 76.5172L178.309 75.6211L181.32 64.88C181.396 64.6083 181.525 64.3544 181.7 64.1331C181.875 63.9118 182.093 63.7277 182.34 63.5913C182.588 63.455 182.86 63.3692 183.141 63.3391C183.422 63.309 183.706 63.3351 183.977 63.4158Z" fill="#D6569B"/>
<path d="M182.218 74.0686L180.397 74.0055L182.269 67.6189C182.296 67.5275 182.341 67.4427 182.403 67.3699C182.464 67.2972 182.54 67.2381 182.626 67.1965C182.712 67.1548 182.805 67.1316 182.901 67.1283C182.996 67.125 183.091 67.1416 183.18 67.1771C183.336 67.2344 183.467 67.3469 183.546 67.4934C183.625 67.6399 183.648 67.8102 183.61 67.9723L182.218 74.0686Z" fill="#E374B0"/>
<path d="M187.418 89.4671L186.659 91.8653L186.557 92.1682L185.621 95.0964H168.214C168.05 94.4527 168.252 94.3265 168.695 93.6071C169.138 92.8876 168.91 93.0769 168.973 91.3351C169.024 90.1108 169.467 88.9749 171.048 87.5612C171.529 87.1447 171.642 86.9806 172.136 86.5263L172.288 86.3874L172.364 86.3117L172.465 86.236L184.356 84.3679L186.747 88.3438L187.418 89.4671Z" fill="#F7E5BC"/>
<path d="M186.659 91.8653C186.583 93.0138 186.481 94.0993 186.355 95.0964H173.565C173.578 94.5789 173.591 93.9352 173.616 93.1527C173.614 93.0683 173.618 92.9839 173.629 92.9002V91.9284C173.54 89.6186 172.882 88.0409 171.048 87.5612C171.389 87.2205 171.744 86.8797 172.136 86.5263L172.288 86.3874L172.465 86.236L184.356 84.3679C185.292 84.7087 185.912 84.9485 186.621 85.668C186.697 86.5767 186.735 87.4729 186.747 88.3438C186.76 89.5681 186.722 90.7419 186.659 91.8653Z" fill="#1F3A70"/>
<path d="M185.518 79.3723L171.716 79.9231C169.899 79.9956 168.486 81.5236 168.558 83.336L168.558 83.341C168.631 85.1534 170.163 86.5639 171.979 86.4914L185.781 85.9406C187.597 85.8681 189.011 84.3401 188.938 82.5277L188.938 82.5226C188.866 80.7102 187.334 79.2998 185.518 79.3723Z" fill="#F06EA8"/>
<path d="M184.797 73.2673L171.386 73.8281C169.467 73.9084 167.976 75.5261 168.056 77.4414L168.061 77.5561C168.142 79.4714 169.763 80.959 171.683 80.8787L185.093 80.3179C187.013 80.2377 188.504 78.6199 188.423 76.7047L188.418 76.5899C188.338 74.6746 186.716 73.187 184.797 73.2673Z" fill="#F06EA8"/>
<path d="M185.735 85.8321C187.506 85.7563 188.961 84.3301 188.961 82.563C188.967 81.9205 188.783 81.2905 188.432 80.7517C188.081 80.2129 187.578 79.7893 186.988 79.5338C187.432 79.1952 187.789 78.7546 188.027 78.2492C188.265 77.7438 188.377 77.1887 188.354 76.6308V76.5172C188.334 76.0613 188.225 75.6136 188.032 75.1999C187.839 74.7862 187.566 74.4145 187.228 74.1062C186.891 73.7979 186.496 73.5589 186.066 73.403C185.637 73.2472 185.18 73.1774 184.723 73.1977L172.756 73.7026C171.68 75.7599 171.832 77.9687 172.629 79.5591C172.745 79.7998 172.811 80.0618 172.822 80.3288C172.833 80.5958 172.789 80.8622 172.692 81.1115C171.541 84.166 173.059 86.3748 173.059 86.3748L185.735 85.8321Z" fill="#E05FA3"/>
<path d="M176.072 79.6446C176.376 79.4461 176.392 78.9353 176.109 78.5037C175.826 78.072 175.35 77.883 175.046 78.0815C174.742 78.28 174.725 78.7908 175.008 79.2224C175.292 79.6541 175.768 79.8431 176.072 79.6446Z" fill="#1B1926"/>
<path d="M182.066 78.7021C182.197 78.2321 182.042 77.7782 181.719 77.6882C181.396 77.5982 181.027 77.9062 180.896 78.3762C180.764 78.8462 180.92 79.3001 181.243 79.3901C181.566 79.4801 181.934 79.1721 182.066 78.7021Z" fill="#1B1926"/>
<path d="M177.398 81.162C178.233 82.5757 179.46 82.9038 180.283 81.0737C180.292 81.0573 180.297 81.0385 180.297 81.0195C180.296 81.0005 180.29 80.982 180.28 80.9662C180.269 80.9504 180.254 80.9378 180.237 80.93C180.22 80.9223 180.2 80.9196 180.182 80.9222L177.487 80.9979C177.469 81 177.451 81.0065 177.436 81.0168C177.421 81.027 177.409 81.0408 177.4 81.0569C177.391 81.073 177.386 81.091 177.386 81.1093C177.386 81.1276 177.39 81.1457 177.398 81.162Z" fill="#751B40"/>
<path d="M179.081 80.9601L177.487 80.9979C177.469 81 177.451 81.0065 177.436 81.0168C177.421 81.027 177.409 81.0408 177.4 81.0569C177.391 81.073 177.386 81.091 177.386 81.1093C177.386 81.1276 177.39 81.1457 177.398 81.162C178.12 82.3737 179.119 82.7902 179.916 81.73C179.718 81.3981 179.428 81.1307 179.081 80.9601Z" fill="#9C2455"/>
</g>
<g clip-path="url(#clip0)">
<rect x="201.324" y="66.3296" width="30.6078" height="12.7242" rx="4" fill="#BED3FF"/>
<rect x="234.483" y="71.4193" width="30.6078" height="7.63455" rx="3.31898" fill="#72767D"/>
</g>
<path d="M201.324 84.9177C201.324 83.0847 202.81 81.5987 204.643 81.5987H320.437C322.27 81.5987 323.755 83.0847 323.755 84.9177V113.908C323.755 115.741 322.27 117.227 320.437 117.227H204.643C202.81 117.227 201.324 115.741 201.324 113.908V84.9177Z" fill="#1C1B29"/>
<path d="M226.831 95.0971C226.831 93.2641 228.317 91.7781 230.15 91.7781H315.335C317.168 91.7781 318.654 93.2641 318.654 95.0971V103.728C318.654 105.561 317.168 107.047 315.335 107.047H230.15C228.317 107.047 226.831 105.561 226.831 103.728V95.0971Z" fill="#DCDDDE"/>
<path d="M213.44 106.411C211.592 106.411 210.251 104.939 210.251 102.912V97.5041C210.251 94.9649 212.033 93.0506 214.396 93.0506C216.759 93.0506 218.541 94.9649 218.541 97.5041V101.958H217.266V97.5041C217.266 95.6603 216.059 94.323 214.396 94.323C212.734 94.323 211.527 95.6603 211.527 97.5041V102.912C211.527 104.021 212.119 105.139 213.44 105.139C214.761 105.139 215.353 104.021 215.353 102.912V98.1403C215.353 97.7573 215.26 96.8679 214.396 96.8679C213.533 96.8679 213.44 97.7573 213.44 98.1403V102.594H212.164V98.1403C212.164 96.6178 213.062 95.5954 214.396 95.5954C215.731 95.5954 216.628 96.6178 216.628 98.1403V102.912C216.628 104.939 215.287 106.411 213.44 106.411Z" fill="#B9BBBE"/>
<mask id="mask2" mask-type="alpha" maskUnits="userSpaceOnUse" x="165" y="127" width="27" height="26">
<ellipse cx="178.368" cy="140.13" rx="12.7533" ry="12.7243" fill="#C4C4C4"/>
</mask>
<g mask="url(#mask2)">
<ellipse cx="178.368" cy="140.13" rx="12.7533" ry="12.7243" fill="#FFB869"/>
<path d="M171.824 144.286C173.312 149.45 179.3 153.027 184.103 149.652C188.907 146.277 184.137 139.358 184.137 139.358C184.137 139.358 186.742 132.81 180.213 131.258C173.684 129.705 172.06 132.54 171.824 144.286Z" fill="#4D7AE8"/>
<path d="M181.499 140.506C180.77 140.506 180.179 139.72 180.179 138.751C180.179 137.781 180.77 136.995 181.499 136.995C182.227 136.995 182.818 137.781 182.818 138.751C182.818 139.72 182.227 140.506 181.499 140.506Z" fill="#DBE7FF"/>
<path d="M182.064 140.083C181.878 140.071 181.747 139.774 181.771 139.42C181.795 139.067 181.965 138.791 182.152 138.804C182.338 138.816 182.47 139.113 182.445 139.466C182.421 139.82 182.251 140.096 182.064 140.083Z" fill="#201E2F"/>
<path d="M183.021 135.477C182.933 135.214 182.765 134.986 182.541 134.825C182.316 134.663 182.046 134.576 181.769 134.576C181.492 134.576 181.222 134.663 180.998 134.825C180.773 134.986 180.605 135.214 180.518 135.477H183.021Z" fill="#201E2F"/>
<path d="M182.886 142.936C181.6 143.273 180.213 142.969 179.063 141.721C178.913 141.55 178.702 141.443 178.475 141.425C178.247 141.406 178.022 141.476 177.845 141.619C177.653 141.75 177.52 141.95 177.475 142.178C177.431 142.406 177.479 142.642 177.608 142.834C179.367 145.703 182.108 146.142 183.799 144.522C183.915 144.418 184.001 144.285 184.049 144.137C184.096 143.988 184.103 143.83 184.07 143.678C184.046 143.549 183.996 143.426 183.922 143.317C183.849 143.209 183.753 143.116 183.642 143.047C183.53 142.977 183.406 142.931 183.275 142.912C183.145 142.893 183.012 142.901 182.886 142.936Z" fill="#590942"/>
<path d="M181.904 143.071C182.236 143.074 182.567 143.028 182.886 142.936H183.19V143.78C183.19 143.78 182.683 144.151 180.788 143.948V143.476L177.473 142.362C177.474 142.223 177.509 142.086 177.573 141.963C177.638 141.84 177.731 141.733 177.845 141.653C177.845 141.644 177.849 141.636 177.855 141.629C177.861 141.623 177.87 141.619 177.879 141.619C178.018 141.524 178.184 141.477 178.352 141.484C178.386 141.451 178.454 141.484 178.488 141.484H178.792C178.826 141.518 178.86 141.518 178.86 141.552C178.86 141.586 178.928 141.552 178.928 141.586L179.063 141.687C179.263 141.916 179.49 142.12 179.739 142.294L180.213 142.598C180.434 142.734 180.673 142.836 180.923 142.902C181.239 143.01 181.571 143.067 181.904 143.071Z" fill="#DBE7FF"/>
<path d="M177.845 141.619C177.845 141.61 177.849 141.602 177.855 141.596C177.861 141.589 177.87 141.586 177.879 141.586C178.018 141.491 178.184 141.443 178.352 141.451C178.386 141.417 178.454 141.451 178.488 141.451H178.792C178.826 141.484 178.86 141.484 178.86 141.518C178.86 141.552 178.928 141.518 178.928 141.552L179.063 141.653C179.169 141.793 179.295 141.918 179.435 142.024L178.488 142.598L177.473 142.261C177.484 142.133 177.524 142.01 177.588 141.899C177.652 141.788 177.74 141.693 177.845 141.619Z" fill="#B5CDFF"/>
<path d="M173.211 133.62C174.428 130.92 176.56 130.38 180.213 131.258C180.949 131.422 181.656 131.695 182.31 132.068C182.513 133.148 180.856 133.485 177.777 132.506C178.792 134.329 176.695 137.569 173.211 133.62Z" fill="#201E2F"/>
<path d="M177.473 131.156L177.642 128.929C177.657 128.725 177.628 128.521 177.557 128.33C177.486 128.139 177.374 127.965 177.23 127.821C177.085 127.677 176.911 127.566 176.72 127.495C176.528 127.424 176.324 127.395 176.12 127.41C175.89 127.423 175.667 127.491 175.47 127.609C175.273 127.727 175.107 127.891 174.987 128.087C174.868 128.283 174.797 128.505 174.782 128.734C174.768 128.963 174.809 129.192 174.902 129.401L175.917 131.696L177.473 131.156Z" fill="#201E2F"/>
<path d="M168.678 143.071L169.692 143.442L171.824 142.058V143.78L173.583 145.163C173.952 145.467 174.257 145.841 174.477 146.264C174.698 146.688 174.831 147.151 174.868 147.627L174.936 149.011C177.507 151.137 181.025 151.812 184.103 149.652C184.604 149.319 185.049 148.909 185.423 148.437L186.471 148.809C186.471 148.809 184.34 157.753 180.788 159.373C177.236 160.993 174.767 159.373 174.767 159.373C171.046 146.75 172.128 144.387 162.927 148.032L162.487 145.467L168.678 143.071Z" fill="#EF6767"/>
<path d="M176.052 139.054L169.354 132.81L168.745 133.587L173.921 143.206L176.052 139.054Z" fill="#4D7AE8"/>
<path d="M173.616 137.637L170.978 135.78L173.008 139.426L172.635 138.008L173.616 137.637Z" fill="#3366E0"/>
</g>
<g clip-path="url(#clip1)">
<rect x="201.324" y="127.406" width="39.8278" height="16.5949" rx="3.31898" fill="#FDD171"/>
<rect x="244.471" y="134.044" width="39.8278" height="9.95695" rx="3.31898" fill="#72767D"/>
</g>
<path d="M201.324 145.994C201.324 144.161 202.81 142.675 204.643 142.675H320.437C322.27 142.675 323.755 144.161 323.755 145.994V152.08C323.755 153.913 322.27 155.399 320.437 155.399H201.324V145.994Z" fill="#DCDDDE"/>
<path d="M201.324 155.399H262.54V164.805C262.54 166.638 261.054 168.124 259.221 168.124H204.643C202.81 168.124 201.324 166.638 201.324 164.805V155.399Z" fill="#DCDDDE"/>
<mask id="mask3" mask-type="alpha" maskUnits="userSpaceOnUse" x="165" y="178" width="27" height="26">
<ellipse cx="178.368" cy="191.027" rx="12.7533" ry="12.7242" fill="#C4C4C4"/>
</mask>
<g mask="url(#mask3)">
<ellipse cx="178.368" cy="191.027" rx="12.7533" ry="12.7242" fill="#FF82A6"/>
<path d="M185.571 181.29L185.534 181.398L185.423 181.664L185.385 181.772L185.299 181.965C183.397 186.393 179.745 189.655 177.326 191.922C174.82 194.259 172 196.236 168.947 197.795C165.939 199.234 164.578 197.939 164.912 195.484L165.213 194.251L166.692 188.04L166.754 187.738C167.756 183.69 169.302 181.366 174.334 180.114L181.991 178.244L182.015 178.232C184.689 177.589 186.551 178.489 185.571 181.29Z" fill="url(#paint1_linear)"/>
<path d="M184.781 178.266C182.351 178.669 177.804 181.584 173.295 185.868C168.785 190.152 165.34 194.881 165.031 197.204C165.459 198.443 166.766 198.83 168.945 197.795C171.999 196.236 174.819 194.259 177.325 191.922C179.744 189.654 183.397 186.392 185.299 181.964L185.385 181.771L185.422 181.662L185.534 181.397L185.571 181.288C186.153 179.646 185.761 178.662 184.781 178.266Z" fill="url(#paint2_linear)"/>
<path d="M177.579 190.321C181.958 186.175 184.863 182.137 184.068 181.301C183.274 180.466 179.08 183.149 174.701 187.294C170.322 191.44 167.416 195.478 168.211 196.314C169.006 197.149 173.2 194.466 177.579 190.321Z" fill="#6B3143"/>
<path d="M176.655 197.513L175.497 198.351C175.217 198.536 174.982 198.781 174.81 199.069C174.638 199.356 174.533 199.679 174.501 200.013L174.308 201.524L172.268 203.395C171.841 203.814 171.59 204.378 171.565 204.975L171.578 206.416C171.578 206.416 182.741 212.36 188.741 211.299C194.741 210.237 191.083 199.963 191.083 199.963C191.03 199.862 190.95 199.778 190.852 199.72C190.754 199.661 190.642 199.631 190.528 199.631L188.746 199.507L187.984 197.648C187.913 197.475 187.802 197.323 187.659 197.203C187.516 197.084 187.346 197.001 187.164 196.963L181.908 195.852L176.655 197.513Z" fill="#EF6270"/>
<path d="M176.913 200.619C175.314 200.314 175.423 200.352 175.877 199.617C176.137 199.163 176.518 198.789 176.977 198.537L176.913 200.619Z" fill="#BD3C53"/>
<path d="M179.357 185.859C179.164 185.652 177.555 186.8 175.772 188.455C173.989 190.11 172.704 191.611 172.896 191.819C175.042 195.081 176.474 198.18 176.916 200.617L185.634 202.327C185.16 194.6 181.538 189.316 179.357 185.859Z" fill="#FFB685"/>
<path d="M182.68 192.729C182.607 192.454 182.395 192.272 182.207 192.322C182.019 192.372 181.926 192.635 181.999 192.909C182.072 193.184 182.284 193.366 182.472 193.316C182.66 193.266 182.753 193.003 182.68 192.729Z" fill="#543247"/>
<path d="M179.817 194.349C179.953 194.153 179.854 193.849 179.595 193.67C179.337 193.491 179.016 193.505 178.88 193.702C178.744 193.898 178.843 194.203 179.102 194.381C179.36 194.56 179.681 194.546 179.817 194.349Z" fill="#543247"/>
<path d="M181.612 197.025C182.343 196.668 183.013 196.311 183.327 196.398C183.642 196.485 183.504 197.065 183.16 197.716C182.815 198.367 182.914 198.077 182.115 197.865C181.316 197.652 181.052 197.298 181.612 197.025Z" fill="#C74153"/>
<path d="M181.916 196.907L181.355 197.301C181.378 197.531 181.704 197.764 182.115 197.865C182.527 197.965 183 198.006 183.16 197.716L183.307 197.403C183.103 197.232 182.536 196.815 181.916 196.907Z" fill="#A82C3C"/>
<path d="M183.024 196.396C182.536 196.563 182.063 196.774 181.612 197.025C181.296 197.18 181.319 197.35 181.463 197.521L183.143 196.76C183.24 196.712 183.12 196.53 183.024 196.396Z" fill="white"/>
<path d="M185.141 194.126C185.154 194.09 185.13 194.042 185.142 194.005C185.113 193.76 185.009 193.529 184.843 193.345C184.677 193.162 184.458 193.034 184.216 192.98C184.274 193.032 184.32 193.097 184.35 193.17C184.38 193.242 184.393 193.321 184.387 193.399C184.382 193.477 184.359 193.553 184.32 193.621C184.281 193.689 184.226 193.747 184.161 193.791C183.927 193.925 183.665 194.001 183.395 194.014C183.044 194.053 182.706 194.169 182.405 194.352C182.104 194.536 181.847 194.783 181.652 195.077C180.415 195.018 179.984 195.801 179.108 196.23C178.871 196.352 178.617 196.436 178.354 196.477C177.491 196.627 177.348 196.275 177.327 195.802C176.375 196.569 176.974 197.664 177.712 197.937C178.147 198.147 178.73 198.043 179.34 197.564C180.854 197.94 181.389 197.739 182.261 196.318C183.702 196.669 184.629 196.096 184.7 194.764C184.821 194.703 184.925 194.613 185.002 194.502C185.079 194.39 185.127 194.261 185.141 194.126Z" fill="#6B3143"/>
<path d="M182.261 196.317C183.702 196.669 184.629 196.096 184.7 194.764C184.821 194.703 184.925 194.613 185.002 194.501C185.079 194.39 185.127 194.261 185.141 194.126C185.154 194.09 185.13 194.041 185.142 194.005C185.117 193.879 185.078 193.757 185.024 193.641C185.041 193.841 184.982 194.041 184.86 194.201C184.738 194.361 184.56 194.47 184.362 194.507C183.93 195.472 183.055 195.658 182.049 195.456C182.049 195.456 180.921 197.032 179.359 196.68C178.26 197.579 177.084 197.459 176.836 196.585C176.814 196.875 176.887 197.164 177.045 197.408C177.203 197.653 177.437 197.838 177.711 197.937C178.147 198.147 178.73 198.043 179.34 197.564C180.854 197.94 181.389 197.739 182.261 196.317Z" fill="#5E2737"/>
</g>
<g clip-path="url(#clip2)">
<rect x="201.324" y="178.303" width="30.6078" height="12.7242" rx="3.31898" fill="#FFA78B"/>
<rect x="234.483" y="183.393" width="30.6078" height="7.63455" rx="3.31898" fill="#72767D"/>
</g>
<path d="M201.324 196.891C201.324 195.058 202.81 193.572 204.643 193.572H320.437C322.27 193.572 323.755 195.058 323.755 196.891V202.977C323.755 204.81 322.27 206.296 320.437 206.296H204.643C202.81 206.296 201.324 204.81 201.324 202.977V196.891Z" fill="#DCDDDE"/>
<mask id="mask4" mask-type="alpha" maskUnits="userSpaceOnUse" x="165" y="216" width="27" height="26">
<ellipse cx="178.368" cy="229.2" rx="12.7533" ry="12.7242" fill="#C4C4C4"/>
</mask>
<g mask="url(#mask4)">
<ellipse cx="178.368" cy="229.2" rx="12.7533" ry="12.7242" fill="#F7E5BC"/>
<path d="M193.034 237.165L191.301 241.153C191.166 241.468 190.968 241.753 190.721 241.99C190.473 242.227 190.18 242.413 189.859 242.535C189.538 242.657 189.196 242.714 188.853 242.702C188.509 242.691 188.172 242.61 187.86 242.466L181.383 239.525L184.609 234.451L188.556 236.647L189.138 234.931C191.175 235.738 192.263 236.445 193.034 237.165Z" fill="#F7E5BC"/>
<path d="M185.507 235.234C188.113 235.663 188.354 236.205 189.05 237.569L186.254 237.253L185.507 235.234Z" fill="#F7E5BC"/>
<path d="M173.236 213.612C172.718 213.774 172.281 214.125 172.013 214.597C171.745 215.068 171.667 215.623 171.794 216.149L174.388 226.714L179.03 225.755L175.906 215.051C175.827 214.781 175.696 214.528 175.519 214.308C175.342 214.089 175.122 213.907 174.874 213.773C174.625 213.639 174.352 213.556 174.071 213.528C173.79 213.501 173.506 213.529 173.236 213.612Z" fill="#D6569B"/>
<path d="M175.817 224.24L177.651 224.164L175.703 217.803C175.676 217.711 175.631 217.627 175.569 217.553C175.508 217.48 175.432 217.421 175.347 217.378C175.262 217.335 175.168 217.311 175.073 217.306C174.977 217.301 174.882 217.315 174.792 217.349C174.635 217.408 174.506 217.524 174.429 217.673C174.352 217.822 174.333 217.994 174.375 218.156L175.817 224.24Z" fill="#E374B0"/>
<path d="M183.977 213.562C184.497 213.718 184.938 214.066 185.211 214.535C185.483 215.003 185.567 215.558 185.444 216.086L182.965 226.663L178.309 225.767L181.32 215.026C181.396 214.754 181.525 214.501 181.7 214.279C181.875 214.058 182.093 213.874 182.34 213.737C182.588 213.601 182.86 213.515 183.141 213.485C183.422 213.455 183.706 213.481 183.977 213.562Z" fill="#D6569B"/>
<path d="M182.218 224.215L180.397 224.152L182.269 217.765C182.296 217.674 182.341 217.589 182.403 217.516C182.464 217.443 182.54 217.384 182.626 217.343C182.712 217.301 182.805 217.278 182.901 217.274C182.996 217.271 183.091 217.288 183.18 217.323C183.336 217.381 183.467 217.493 183.546 217.64C183.625 217.786 183.648 217.956 183.61 218.118L182.218 224.215Z" fill="#E374B0"/>
<path d="M187.418 239.613L186.659 242.011L186.557 242.314L185.621 245.243H168.214C168.05 244.599 168.252 244.473 168.695 243.753C169.138 243.034 168.91 243.223 168.973 241.481C169.024 240.257 169.467 239.121 171.048 237.707C171.529 237.291 171.642 237.127 172.136 236.672L172.288 236.534L172.364 236.458L172.465 236.382L184.356 234.514L186.747 238.49L187.418 239.613Z" fill="#F7E5BC"/>
<path d="M186.659 242.011C186.583 243.16 186.481 244.245 186.355 245.243H173.565C173.578 244.725 173.591 244.081 173.616 243.299C173.614 243.214 173.618 243.13 173.629 243.046V242.075C173.54 239.765 172.882 238.187 171.048 237.707C171.389 237.367 171.744 237.026 172.136 236.672L172.288 236.534L172.465 236.382L184.356 234.514C185.292 234.855 185.912 235.095 186.621 235.814C186.697 236.723 186.735 237.619 186.747 238.49C186.76 239.714 186.722 240.888 186.659 242.011Z" fill="#1F3A70"/>
<path d="M185.518 229.518L171.716 230.069C169.899 230.142 168.486 231.67 168.558 233.482L168.558 233.487C168.631 235.3 170.163 236.71 171.979 236.638L185.781 236.087C187.597 236.014 189.011 234.486 188.938 232.674L188.938 232.669C188.866 230.856 187.334 229.446 185.518 229.518Z" fill="#F06EA8"/>
<path d="M184.797 223.413L171.386 223.974C169.467 224.055 167.976 225.672 168.056 227.588L168.061 227.702C168.142 229.618 169.763 231.105 171.683 231.025L185.093 230.464C187.013 230.384 188.504 228.766 188.423 226.851L188.418 226.736C188.338 224.821 186.716 223.333 184.797 223.413Z" fill="#F06EA8"/>
<path d="M185.735 235.978C187.506 235.902 188.961 234.476 188.961 232.709C188.967 232.067 188.783 231.437 188.432 230.898C188.081 230.359 187.578 229.935 186.988 229.68C187.432 229.341 187.789 228.901 188.027 228.395C188.265 227.89 188.377 227.335 188.354 226.777V226.663C188.334 226.207 188.225 225.76 188.032 225.346C187.839 224.932 187.566 224.561 187.228 224.252C186.891 223.944 186.496 223.705 186.066 223.549C185.637 223.393 185.18 223.324 184.723 223.344L172.756 223.849C171.68 225.906 171.832 228.115 172.629 229.705C172.745 229.946 172.811 230.208 172.822 230.475C172.833 230.742 172.789 231.008 172.692 231.258C171.541 234.312 173.059 236.521 173.059 236.521L185.735 235.978Z" fill="#E05FA3"/>
<path d="M176.072 229.791C176.376 229.592 176.392 229.081 176.109 228.65C175.826 228.218 175.35 228.029 175.046 228.228C174.742 228.426 174.725 228.937 175.008 229.369C175.292 229.8 175.768 229.989 176.072 229.791Z" fill="#1B1926"/>
<path d="M182.066 228.848C182.197 228.378 182.042 227.924 181.719 227.834C181.396 227.744 181.027 228.052 180.896 228.522C180.764 228.992 180.92 229.446 181.243 229.536C181.566 229.626 181.934 229.318 182.066 228.848Z" fill="#1B1926"/>
<path d="M177.398 231.308C178.233 232.722 179.46 233.05 180.283 231.22C180.292 231.203 180.297 231.185 180.297 231.166C180.296 231.147 180.29 231.128 180.28 231.112C180.269 231.096 180.254 231.084 180.237 231.076C180.22 231.068 180.2 231.066 180.182 231.068L177.487 231.144C177.469 231.146 177.451 231.153 177.436 231.163C177.421 231.173 177.409 231.187 177.4 231.203C177.391 231.219 177.386 231.237 177.386 231.255C177.386 231.274 177.39 231.292 177.398 231.308Z" fill="#751B40"/>
<path d="M179.081 231.106L177.487 231.144C177.469 231.146 177.451 231.153 177.436 231.163C177.421 231.173 177.409 231.187 177.4 231.203C177.391 231.219 177.386 231.237 177.386 231.255C177.386 231.274 177.39 231.292 177.398 231.308C178.12 232.52 179.119 232.936 179.916 231.876C179.718 231.544 179.428 231.277 179.081 231.106Z" fill="#9C2455"/>
</g>
<g clip-path="url(#clip3)">
<rect x="201.324" y="216.476" width="30.6078" height="12.7242" rx="3.31898" fill="#BED3FF"/>
<rect x="234.483" y="221.565" width="30.6078" height="7.63455" rx="3.31898" fill="#72767D"/>
</g>
<path d="M201.324 235.064C201.324 233.231 202.81 231.745 204.643 231.745H320.437C322.27 231.745 323.755 233.231 323.755 235.064V244.469H201.324V235.064Z" fill="#DCDDDE"/>
<path d="M201.324 244.469H323.755V253.874C323.755 255.707 322.27 257.193 320.437 257.193H204.643C202.81 257.193 201.324 255.707 201.324 253.874V244.469Z" fill="#DCDDDE"/>
<path fill-rule="evenodd" clip-rule="evenodd" d="M61.7183 52.333C61.4601 52.333 61.2647 52.0996 61.3099 51.8454L61.6759 49.7881H59.6192C59.3614 49.7881 59.166 49.5555 59.2106 49.3016L59.2882 48.8589C59.323 48.6605 59.4954 48.5157 59.6969 48.5157H61.8991L62.575 44.6984H60.5183C60.2605 44.6984 60.0651 44.4658 60.1097 44.2119L60.1873 43.7692C60.2221 43.5708 60.3945 43.426 60.596 43.426H62.7982L63.19 41.2234C63.2253 41.0254 63.3974 40.8812 63.5985 40.8812H64.031C64.2892 40.8812 64.4847 41.1145 64.4395 41.3687L64.0735 43.426H67.8995L68.2913 41.2234C68.3266 41.0254 68.4987 40.8812 68.6998 40.8812H69.1324C69.3906 40.8812 69.586 41.1145 69.5408 41.3687L69.1748 43.426H71.2315C71.4893 43.426 71.6847 43.6586 71.6401 43.9126L71.5625 44.3552C71.5277 44.5537 71.3553 44.6984 71.1538 44.6984H68.9516L68.2757 48.5157H70.3324C70.5902 48.5157 70.7856 48.7483 70.741 49.0023L70.6634 49.4449C70.6286 49.6434 70.4562 49.7881 70.2547 49.7881H68.0525L67.6607 51.9908C67.6254 52.1888 67.4533 52.333 67.2522 52.333H66.8196C66.5614 52.333 66.366 52.0996 66.4112 51.8454L66.7772 49.7881H62.9512L62.5594 51.9908C62.5241 52.1888 62.352 52.333 62.1509 52.333H61.7183ZM63.8506 44.6984L63.1747 48.5157H67.0007L67.6766 44.6984H63.8506Z" fill="#B9BBBE"/>
<rect x="79.5305" y="38.9725" width="58.0274" height="15.2691" rx="3.31898" fill="#B9BBBE"/>
<path fill-rule="evenodd" clip-rule="evenodd" d="M61.7183 82.8712C61.4601 82.8712 61.2647 82.6378 61.3099 82.3836L61.6759 80.3263H59.6192C59.3614 80.3263 59.166 80.0937 59.2106 79.8398L59.2882 79.3971C59.323 79.1987 59.4954 79.0539 59.6969 79.0539H61.8991L62.575 75.2366H60.5183C60.2605 75.2366 60.0651 75.004 60.1097 74.7501L60.1873 74.3074C60.2221 74.109 60.3945 73.9642 60.596 73.9642H62.7982L63.19 71.7616C63.2253 71.5636 63.3974 71.4194 63.5985 71.4194H64.031C64.2892 71.4194 64.4847 71.6527 64.4395 71.9069L64.0735 73.9642H67.8995L68.2913 71.7616C68.3266 71.5636 68.4987 71.4194 68.6998 71.4194H69.1324C69.3906 71.4194 69.586 71.6527 69.5408 71.9069L69.1748 73.9642H71.2315C71.4893 73.9642 71.6847 74.1968 71.6401 74.4508L71.5625 74.8934C71.5277 75.0919 71.3553 75.2366 71.1538 75.2366H68.9516L68.2757 79.0539H70.3324C70.5902 79.0539 70.7856 79.2865 70.741 79.5405L70.6634 79.9831C70.6286 80.1816 70.4562 80.3263 70.2547 80.3263H68.0525L67.6607 82.529C67.6254 82.727 67.4533 82.8712 67.2522 82.8712H66.8196C66.5614 82.8712 66.366 82.6378 66.4112 82.3836L66.7772 80.3263H62.9512L62.5594 82.529C62.5241 82.727 62.352 82.8712 62.1509 82.8712H61.7183ZM63.8506 75.2366L63.1747 79.0539H67.0007L67.6766 75.2366H63.8506Z" fill="#B9BBBE"/>
<rect x="79.5305" y="69.5107" width="52.9261" height="15.2691" rx="3.31898" fill="#B9BBBE"/>
<path fill-rule="evenodd" clip-rule="evenodd" d="M61.7183 113.409C61.4601 113.409 61.2647 113.176 61.3099 112.922L61.6759 110.865H59.6192C59.3614 110.865 59.166 110.632 59.2106 110.378L59.2882 109.935C59.323 109.737 59.4954 109.592 59.6969 109.592H61.8991L62.575 105.775H60.5183C60.2605 105.775 60.0651 105.542 60.1097 105.288L60.1873 104.846C60.2221 104.647 60.3945 104.502 60.596 104.502H62.7982L63.19 102.3C63.2253 102.102 63.3974 101.958 63.5985 101.958H64.031C64.2892 101.958 64.4847 102.191 64.4395 102.445L64.0735 104.502H67.8995L68.2913 102.3C68.3266 102.102 68.4987 101.958 68.6998 101.958H69.1324C69.3906 101.958 69.586 102.191 69.5408 102.445L69.1748 104.502H71.2315C71.4893 104.502 71.6847 104.735 71.6401 104.989L71.5625 105.432C71.5277 105.63 71.3553 105.775 71.1538 105.775H68.9516L68.2757 109.592H70.3324C70.5902 109.592 70.7856 109.825 70.741 110.079L70.6634 110.521C70.6286 110.72 70.4562 110.865 70.2547 110.865H68.0525L67.6607 113.067C67.6254 113.265 67.4533 113.409 67.2522 113.409H66.8196C66.5614 113.409 66.366 113.176 66.4112 112.922L66.7772 110.865H62.9512L62.5594 113.067C62.5241 113.265 62.352 113.409 62.1509 113.409H61.7183ZM63.8506 105.775L63.1747 109.592H67.0007L67.6766 105.775H63.8506Z" fill="#B9BBBE"/>
<rect x="79.5305" y="100.049" width="58.0274" height="15.2691" rx="3.31898" fill="#B9BBBE"/>
<path fill-rule="evenodd" clip-rule="evenodd" d="M61.7183 143.948C61.4601 143.948 61.2647 143.714 61.3099 143.46L61.6759 141.403H59.6192C59.3614 141.403 59.166 141.17 59.2106 140.916L59.2882 140.473C59.323 140.275 59.4954 140.13 59.6969 140.13H61.8991L62.575 136.313H60.5183C60.2605 136.313 60.0651 136.08 60.1097 135.826L60.1873 135.384C60.2221 135.185 60.3945 135.041 60.596 135.041H62.7982L63.19 132.838C63.2253 132.64 63.3974 132.496 63.5985 132.496H64.031C64.2892 132.496 64.4847 132.729 64.4395 132.983L64.0735 135.041H67.8995L68.2913 132.838C68.3266 132.64 68.4987 132.496 68.6998 132.496H69.1324C69.3906 132.496 69.586 132.729 69.5408 132.983L69.1748 135.041H71.2315C71.4893 135.041 71.6847 135.273 71.6401 135.527L71.5625 135.97C71.5277 136.168 71.3553 136.313 71.1538 136.313H68.9516L68.2757 140.13H70.3324C70.5902 140.13 70.7856 140.363 70.741 140.617L70.6634 141.06C70.6286 141.258 70.4562 141.403 70.2547 141.403H68.0525L67.6607 143.605C67.6254 143.803 67.4533 143.948 67.2522 143.948H66.8196C66.5614 143.948 66.366 143.714 66.4112 143.46L66.7772 141.403H62.9512L62.5594 143.605C62.5241 143.803 62.352 143.948 62.1509 143.948H61.7183ZM63.8506 136.313L63.1747 140.13H67.0007L67.6766 136.313H63.8506Z" fill="#B9BBBE"/>
<rect x="79.5305" y="130.587" width="42.7234" height="15.2691" rx="3.31898" fill="#B9BBBE"/>
<path fill-rule="evenodd" clip-rule="evenodd" d="M61.7183 174.486C61.4601 174.486 61.2647 174.252 61.3099 173.998L61.6759 171.941H59.6192C59.3614 171.941 59.166 171.708 59.2106 171.454L59.2882 171.012C59.323 170.813 59.4954 170.668 59.6969 170.668H61.8991L62.575 166.851H60.5183C60.2605 166.851 60.0651 166.619 60.1097 166.365L60.1873 165.922C60.2221 165.724 60.3945 165.579 60.596 165.579H62.7982L63.19 163.376C63.2253 163.178 63.3974 163.034 63.5985 163.034H64.031C64.2892 163.034 64.4847 163.267 64.4395 163.521L64.0735 165.579H67.8995L68.2913 163.376C68.3266 163.178 68.4987 163.034 68.6998 163.034H69.1324C69.3906 163.034 69.586 163.267 69.5408 163.521L69.1748 165.579H71.2315C71.4893 165.579 71.6847 165.811 71.6401 166.065L71.5625 166.508C71.5277 166.706 71.3553 166.851 71.1538 166.851H68.9516L68.2757 170.668H70.3324C70.5902 170.668 70.7856 170.901 70.741 171.155L70.6634 171.598C70.6286 171.796 70.4562 171.941 70.2547 171.941H68.0525L67.6607 174.144C67.6254 174.342 67.4533 174.486 67.2522 174.486H66.8196C66.5614 174.486 66.366 174.252 66.4112 173.998L66.7772 171.941H62.9512L62.5594 174.144C62.5241 174.342 62.352 174.486 62.1509 174.486H61.7183ZM63.8506 166.851L63.1747 170.668H67.0007L67.6766 166.851H63.8506Z" fill="#B9BBBE"/>
<rect x="79.5305" y="161.125" width="58.0274" height="15.2691" rx="3.31898" fill="#B9BBBE"/>
</g>
<defs>
<linearGradient id="paint0_linear" x1="0" y1="276.361" x2="488" y2="276.361" gradientUnits="userSpaceOnUse">
<stop stop-color="#CCCFDE"/>
<stop offset="0.89" stop-color="#D2D4E2"/>
<stop offset="1" stop-color="#D3D5E3"/>
</linearGradient>
<linearGradient id="paint1_linear" x1="174.729" y1="180.832" x2="175.847" y2="194.042" gradientUnits="userSpaceOnUse">
<stop stop-color="#FFC285"/>
<stop offset="1" stop-color="#DB8D6B"/>
</linearGradient>
<linearGradient id="paint2_linear" x1="163.601" y1="194.347" x2="187.422" y2="182.647" gradientUnits="userSpaceOnUse">
<stop stop-color="#D67569"/>
<stop offset="1" stop-color="#E39E7F"/>
</linearGradient>
<clipPath id="clip0">
<rect width="63.7663" height="12.7242" fill="white" transform="translate(201.324 66.3296)"/>
</clipPath>
<clipPath id="clip1">
<rect width="63.7663" height="12.7243" fill="white" transform="translate(201.324 127.406)"/>
</clipPath>
<clipPath id="clip2">
<rect width="63.7663" height="12.7242" fill="white" transform="translate(201.324 178.303)"/>
</clipPath>
<clipPath id="clip3">
<rect width="63.7663" height="12.7242" fill="white" transform="translate(201.324 216.476)"/>
</clipPath>
</defs>
</svg>