<svg width="526" height="307" viewBox="0 0 526 307" fill="none" xmlns="http://www.w3.org/2000/svg">
<g clip-path="url(#clip0)">
<path d="M482.827 2.4386H43.1733C39.1832 2.4386 35.9487 5.67498 35.9487 9.66725V282.614C35.9487 286.606 39.1832 289.843 43.1733 289.843H482.827C486.817 289.843 490.051 286.606 490.051 282.614V9.66725C490.051 5.67498 486.817 2.4386 482.827 2.4386Z" fill="#11111A"/>
<path d="M482.827 2.43857C484.751 2.46149 486.588 3.24236 487.941 4.61185C489.293 5.98134 490.051 7.82905 490.051 9.75432V282.614C490.051 284.531 489.29 286.37 487.935 287.726C486.58 289.081 484.743 289.843 482.827 289.843H43.1732C41.2572 289.843 39.4196 289.081 38.0647 287.726C36.7098 286.37 35.9487 284.531 35.9487 282.614V9.75432C35.9486 7.82905 36.7069 5.98134 38.0593 4.61185C39.4118 3.24236 41.2492 2.46149 43.1732 2.43857H482.827ZM482.827 -0.174194H43.1732C40.5566 -0.151228 38.055 0.904939 36.2129 2.76441C34.3708 4.62389 33.3373 7.13613 33.3374 9.75432V282.614C33.3374 285.224 34.3737 287.727 36.2183 289.573C38.0628 291.419 40.5646 292.456 43.1732 292.456H482.827C485.435 292.456 487.937 291.419 489.782 289.573C491.626 287.727 492.663 285.224 492.663 282.614V9.75432C492.663 7.13613 491.629 4.62389 489.787 2.76441C487.945 0.904939 485.443 -0.151228 482.827 -0.174194Z" fill="#4B4C52"/>
<g clip-path="url(#clip1)">
<path d="M483 8.99988H43V279H483V8.99988Z" fill="#292841"/>
<path d="M97.3931 33.6984C97.3931 33.1213 96.9429 32.713 96.3942 32.713C95.8315 32.713 95.3813 33.1213 95.3813 33.6984C95.3813 34.2614 95.8315 34.6556 96.3942 34.6556C96.9429 34.6556 97.3931 34.2614 97.3931 33.6984ZM97.2243 43.1154V35.7957H95.5361V42.9746C95.5361 43.5658 95.2547 43.777 94.7905 43.777C94.5935 43.777 94.3965 43.7629 94.2418 43.7207L94.4669 45.1002C94.5794 45.1424 94.8749 45.1565 95.1281 45.1565C96.3802 45.1565 97.2243 44.5793 97.2243 43.1154Z" fill="white"/>
<path d="M98.9959 35.7957V40.6802C98.9959 41.9611 99.6571 42.7353 100.937 42.7353C101.838 42.7353 102.569 42.2427 103.202 41.6374L103.357 42.5946H104.792V35.7957H103.104V40.3846C102.611 40.8914 102.077 41.2292 101.556 41.2292C100.937 41.2292 100.684 40.835 100.684 40.2438V35.7957H98.9959Z" fill="white"/>
<path d="M111.548 40.5957C111.548 39.3148 110.859 38.8362 109.1 38.3858C108.087 38.1183 107.834 37.9072 107.834 37.5412C107.834 37.1752 108.143 36.9218 108.777 36.9218C109.452 36.9218 110.254 37.1611 110.929 37.5412L111.154 36.1336C110.479 35.838 109.663 35.655 108.777 35.655C107.201 35.655 106.272 36.4855 106.272 37.6679C106.272 38.9066 106.962 39.3852 108.608 39.8075C109.691 40.0749 109.986 40.272 109.986 40.7506C109.986 41.201 109.592 41.4685 108.861 41.4685C108.017 41.4685 107.116 41.1447 106.385 40.6661L106.16 42.0738C106.807 42.4257 107.82 42.7353 108.805 42.7353C110.591 42.7353 111.548 41.933 111.548 40.5957Z" fill="white"/>
<path d="M116.517 42.5946L116.305 41.1729C116.151 41.2151 115.968 41.2292 115.771 41.2292C115.124 41.2292 114.885 40.9336 114.885 40.3846V37.1752H116.474L116.263 35.7957H114.885V33.3887L113.21 33.6421V35.7957H112.254V37.1752H113.21V40.6661C113.21 42.2145 114.111 42.7072 115.447 42.7072C115.94 42.7072 116.249 42.6509 116.517 42.5946Z" fill="white"/>
<path d="M121.059 39.357V37.7242H117.402V39.357H121.059Z" fill="white"/>
<path d="M127.693 42.0738L127.468 40.6239C126.849 41.1025 126.272 41.2714 125.681 41.2714C124.696 41.2714 123.922 40.5957 123.922 39.1881C123.922 37.8368 124.626 37.1189 125.625 37.1189C126.3 37.1189 126.835 37.3441 127.383 37.7523L127.622 36.2321C127.13 35.9224 126.427 35.655 125.54 35.655C123.697 35.655 122.22 36.8655 122.22 39.2304C122.22 41.4544 123.557 42.7213 125.442 42.7213C126.342 42.7213 127.046 42.5101 127.693 42.0738Z" fill="white"/>
<path d="M134.839 42.5946V37.696C134.839 36.4292 134.164 35.655 132.897 35.655C131.997 35.655 131.294 36.1336 130.731 36.6544V32.4315L129.043 32.699V42.5946H130.731V38.0057C131.223 37.4849 131.758 37.1471 132.278 37.1471C132.897 37.1471 133.151 37.5553 133.151 38.1465V42.5946H134.839Z" fill="white"/>
<path d="M138.458 33.6984C138.458 33.1213 138.007 32.713 137.459 32.713C136.896 32.713 136.446 33.1213 136.446 33.6984C136.446 34.2614 136.896 34.6556 137.459 34.6556C138.007 34.6556 138.458 34.2614 138.458 33.6984ZM138.289 42.5946V35.7957H136.601V42.5946H138.289Z" fill="white"/>
<path d="M141.833 42.5946V32.4315L140.145 32.699V42.5946H141.833Z" fill="white"/>
<path d="M145.378 42.5946V32.4315L143.69 32.699V42.5946H145.378Z" fill="white"/>
<path d="M149.091 33.6984C149.091 33.1213 148.641 32.713 148.092 32.713C147.53 32.713 147.08 33.1213 147.08 33.6984C147.08 34.2614 147.53 34.6556 148.092 34.6556C148.641 34.6556 149.091 34.2614 149.091 33.6984ZM148.922 42.5946V35.7957H147.234V42.5946H148.922Z" fill="white"/>
<path d="M156.505 42.5946V37.696C156.505 36.4292 155.829 35.655 154.563 35.655C153.649 35.655 152.931 36.1477 152.298 36.7529L152.143 35.7957H150.708V42.5946H152.397V38.0057C152.889 37.4849 153.424 37.1471 153.944 37.1471C154.563 37.1471 154.816 37.5553 154.816 38.1465V42.5946H156.505Z" fill="white"/>
<path fill-rule="evenodd" clip-rule="evenodd" d="M81.6604 32.1893C81.3924 32.0839 81.0844 32.1421 80.8795 32.3378L77.8038 35.5579H75.6545C75.2604 35.5579 74.938 35.8665 74.938 36.2422V40.3477C74.938 40.7241 75.2604 41.032 75.6545 41.032H77.8038L80.8795 44.2535C81.0844 44.4492 81.3924 44.5081 81.6604 44.402C81.9283 44.2959 82.1024 44.0462 82.1024 43.7691V32.8209C82.1024 32.5451 81.9283 32.294 81.6604 32.1893ZM83.5353 33.5051V34.8736C85.5105 34.8736 87.1175 36.4091 87.1175 38.2949C87.1175 40.1814 85.5105 41.7162 83.5353 41.7162V43.0847C86.3008 43.0847 88.5504 40.9368 88.5504 38.2949C88.5504 35.6543 86.3008 33.5051 83.5353 33.5051ZM83.5353 36.2421C84.7203 36.2421 85.6846 37.1638 85.6846 38.2949C85.6846 39.4273 84.7203 40.3477 83.5353 40.3477V38.9792C83.9301 38.9792 84.2517 38.6719 84.2517 38.2949C84.2517 37.9179 83.9301 37.6106 83.5353 37.6106V36.2421Z" fill="#B9BBBE"/>
<mask id="mask0" mask-type="alpha" maskUnits="userSpaceOnUse" x="348" y="143" width="102" height="60">
<rect x="348.49" y="143.427" width="100.951" height="59.4898" rx="6.33937" fill="#C4C4C4"/>
</mask>
<g mask="url(#mask0)">
<path d="M449.417 143.427H348.525V202.881H449.417V143.427Z" fill="#F7E5BC"/>
<path d="M449.417 197.94V176.646C444.912 174.98 434.283 177.797 429.379 184.582C423.607 178.712 412.486 178.337 402.256 184.582C399.511 177.703 389.234 172.702 375.813 177.562C374.804 169.439 359.928 162.349 348.525 171.857V202.893H444.466C445.777 202.887 447.033 202.363 447.96 201.436C448.887 200.508 449.411 199.252 449.417 197.94Z" fill="#6ADBC6"/>
<path d="M410.491 183.056C421.613 183.126 431.116 188.432 435.691 202.917H402.256L410.491 183.056Z" fill="#44C9C5"/>
<path d="M421.965 202.893H449.417V190.122C442.754 190.803 430.67 193.362 421.965 202.893Z" fill="#44C9C5"/>
<path d="M428.863 196.86H368.938C365.16 200.452 364.973 202.893 364.973 202.893H433.345C433.345 202.893 431.491 198.902 428.863 196.86Z" fill="#FAFAFA"/>
<path d="M430.271 199.489C430.469 199.324 430.601 199.094 430.644 198.84C430.687 198.586 430.638 198.325 430.506 198.104C429.637 196.672 429.356 195.545 427.385 194.512C425.414 193.479 424.124 192.235 418.117 191.46C416.897 188.314 417.155 187.352 408.075 186.647H382.969C378.839 187.305 378.558 187.305 377.83 189.746C377.103 192.188 377.127 191.883 374.968 192.751C372.809 193.62 369.454 193.784 368.164 196.649C367.741 197.588 367.577 198.268 370.041 202.893H425.367C427.1 201.906 428.741 200.767 430.271 199.489Z" fill="#CC4F79"/>
<path d="M410.491 187.657C414.832 188.408 414.668 188.408 411.735 191.859C408.802 195.31 405.071 198.503 400.871 200.217C394.302 202.893 388.671 200.381 385.245 196.39C380.271 190.592 378.136 187.657 382.335 187.657H410.491Z" fill="#590942"/>
<path d="M423.467 155.001L421.519 154.132C421.507 154.132 421.495 154.127 421.486 154.118C421.477 154.11 421.472 154.098 421.472 154.085C421.472 154.073 421.477 154.061 421.486 154.052C421.495 154.043 421.507 154.038 421.519 154.038L423.467 153.17C423.473 153.17 423.479 153.167 423.483 153.163C423.488 153.158 423.49 153.152 423.49 153.146L424.358 151.198C424.358 151.174 424.405 151.174 424.429 151.198L425.297 153.146C425.297 153.17 425.297 153.17 425.32 153.17L427.268 154.038C427.279 154.051 427.286 154.068 427.286 154.085C427.286 154.103 427.279 154.119 427.268 154.132L425.32 155.001H425.297L424.429 156.949C424.405 156.996 424.358 156.996 424.358 156.949L423.49 155.001H423.467Z" fill="#FAFAFA"/>
<path d="M368.797 157.748L367.53 157.184C367.507 157.184 367.507 157.137 367.53 157.137L368.797 156.574C368.797 156.568 368.799 156.562 368.804 156.557C368.808 156.553 368.814 156.55 368.82 156.55L369.384 155.283C369.384 155.259 369.431 155.259 369.431 155.283L369.994 156.55H370.017L371.284 157.137C371.308 157.137 371.308 157.184 371.284 157.184L370.017 157.748C370.017 157.754 370.015 157.76 370.01 157.764C370.006 157.769 370 157.771 369.994 157.771L369.431 159.039H369.384L368.82 157.771C368.797 157.771 368.797 157.771 368.797 157.748Z" fill="#F7D78D"/>
<path d="M385.808 168.594C384.119 163.899 381.162 160.471 379.754 159.837C378.347 159.203 378.699 160.001 380.013 163.969C381.326 167.937 381.35 174.44 383.79 174.487C386.23 174.533 385.808 168.594 385.808 168.594Z" fill="#2E64E8"/>
<path d="M382.711 169.838C381.702 167.819 381.632 166.833 381.233 165.307C381.021 164.485 380.716 163.335 380.458 162.419C381.678 164.603 383.814 169.462 384.259 171.012C384.705 172.561 383.72 171.834 382.711 169.838Z" fill="#1C4BBA"/>
<path d="M408.075 168.899C410.468 163.899 414.292 160.354 416.052 159.767C417.812 159.18 417.343 160.001 415.466 164.227C413.588 168.453 413.119 175.566 410.139 175.449C407.159 175.332 408.075 168.899 408.075 168.899Z" fill="#2E64E8"/>
<path d="M399.159 155.494C401.893 155.494 404.109 153.276 404.109 150.54C404.109 147.805 401.893 145.587 399.159 145.587C396.424 145.587 394.208 147.805 394.208 150.54C394.208 153.276 396.424 155.494 399.159 155.494Z" fill="#201E2F"/>
<path d="M403.878 151.835C404.045 150.562 401.983 149.241 399.272 148.884C396.562 148.527 394.228 149.269 394.061 150.542C393.893 151.815 395.955 153.136 398.666 153.493C401.377 153.85 403.71 153.108 403.878 151.835Z" fill="#41314A"/>
<path d="M407.441 154.508C402.326 149.719 393.926 149.108 388.154 153.264C382.382 157.419 383.579 163.899 384.518 171.012L408.943 171.716C409.952 167.843 412.533 159.321 407.441 154.508Z" fill="#4D7AE8"/>
<path d="M409.506 169.603L384.822 168.876C380.294 178.83 375.789 197.353 396.132 197.94C415.536 198.503 414.034 180.825 409.506 169.603Z" fill="#4D7AE8"/>
<path d="M409.506 169.603C410.562 165.26 411.735 158.569 407.441 154.508L406.972 154.109H405.681C405.681 154.109 406.221 162.49 405.775 165.824C405.329 169.157 405.494 169.509 406.503 169.955C407.512 170.401 408.45 170.941 408.262 175.214C408.075 179.487 407.817 180.05 408.755 185.121C409.694 190.192 408.427 193.432 405.775 196.108C414.762 191.343 413.072 178.477 409.506 169.603Z" fill="#2E64E8"/>
<path d="M390.43 188.784C393.105 192.376 400.332 193.291 403.265 188.925C404.743 186.741 400.848 186.624 396.906 186.647C392.964 186.671 388.999 186.835 390.43 188.784Z" fill="#3366E0"/>
<path d="M400.629 170.146C400.692 168.034 399.115 166.273 397.107 166.213C395.1 166.154 393.421 167.818 393.359 169.93C393.296 172.043 394.873 173.804 396.88 173.863C398.888 173.923 400.566 172.259 400.629 170.146Z" fill="#DBE7FF"/>
<path d="M398.333 170.625C398.372 169.809 397.773 169.118 396.997 169.081C396.22 169.045 395.559 169.676 395.521 170.492C395.482 171.308 396.081 171.999 396.858 172.036C397.634 172.073 398.295 171.441 398.333 170.625Z" fill="#201E2F"/>
<path d="M393.035 163.382C394.56 160.189 400.191 160.518 401.481 163.64L393.035 163.382Z" fill="#201E2F"/>
<path d="M391.627 176.74L392.307 176.975L392.988 177.139L393.668 177.304L394.349 177.398C396.197 177.619 398.072 177.394 399.816 176.74L400.472 176.482L401.106 176.177L401.74 175.848L402.373 175.472H402.443C402.645 175.361 402.866 175.292 403.095 175.267C403.324 175.242 403.555 175.263 403.775 175.329C403.996 175.394 404.201 175.503 404.379 175.649C404.558 175.794 404.705 175.974 404.813 176.177C404.956 176.446 405.027 176.747 405.019 177.052C405.011 177.356 404.924 177.653 404.766 177.914C404.013 179.134 402.964 180.144 401.716 180.849C400.469 181.564 399.091 182.02 397.664 182.189C396.236 182.359 394.79 182.238 393.41 181.835C392.037 181.419 390.794 180.659 389.797 179.628C389.473 179.292 389.297 178.84 389.305 178.374C389.314 177.907 389.508 177.463 389.844 177.139C390.068 176.934 390.341 176.79 390.636 176.72C390.932 176.65 391.241 176.657 391.533 176.74H391.627Z" fill="#400015"/>
<path d="M390.876 180.544C391.65 181.095 392.505 181.523 393.41 181.811C394.79 182.215 396.236 182.336 397.664 182.166C399.091 181.997 400.469 181.541 401.716 180.825C402.604 180.315 403.397 179.656 404.063 178.877C403.035 177.865 401.835 177.046 400.52 176.459H400.473L399.816 176.717C398.072 177.37 396.197 177.596 394.349 177.374L393.668 177.28H393.598C392.444 178.136 391.511 179.255 390.876 180.544Z" fill="#590942"/>
<path d="M403.546 177.656L403.617 175.285C403.219 175.187 402.799 175.246 402.443 175.449H402.373L401.74 175.825L401.106 176.153L400.473 176.459L399.816 176.717C398.072 177.37 396.197 177.596 394.349 177.374L393.668 177.28L392.988 177.116L392.307 176.952L391.627 176.717H391.533C391.304 176.654 391.065 176.638 390.829 176.67L390.782 177.891C395.451 180.168 400.731 178.877 403.546 177.656Z" fill="#DBE7FF"/>
<path d="M392.518 177.022L392.307 176.975L391.627 176.74H391.533C391.304 176.678 391.065 176.662 390.829 176.693L390.782 177.914C391.262 178.14 391.756 178.336 392.26 178.501L392.518 177.022Z" fill="#B5CDFF"/>
<path d="M400.942 178.548C401.834 178.326 402.705 178.028 403.546 177.656L403.617 175.285C403.219 175.187 402.799 175.246 402.443 175.449H402.373L401.74 175.825L401.106 176.153L400.871 176.271L400.942 178.548Z" fill="#B5CDFF"/>
<path d="M402.748 173.336L406.362 175.144C406.409 172.96 404.602 172.702 402.748 173.336Z" fill="#3366E0"/>
<path d="M386.981 178.149L390.313 174.862C387.779 174.792 386.77 176.482 386.981 178.149Z" fill="#3366E0"/>
<path d="M388.975 181.506C390.102 183.102 391.251 184.581 391.251 184.581C388.952 184.394 388.975 181.506 388.975 181.506Z" fill="#3366E0"/>
<path d="M407.441 154.508C402.326 149.719 393.926 149.108 388.154 153.264C385.503 155.165 384.353 157.701 383.978 160.612C387.145 163.054 387.497 158.804 388.835 154.391C393.574 158.241 400.754 158.288 405.353 154.86L405.541 158.593C405.752 162.208 408.192 162.631 410.374 160.706C410.093 158.429 409.271 156.222 407.441 154.508Z" fill="#201E2F"/>
<path d="M391.561 160.273C392.16 159.663 392.391 158.918 392.077 158.609C391.763 158.3 391.022 158.544 390.423 159.154C389.823 159.765 389.592 160.51 389.906 160.819C390.221 161.128 390.961 160.884 391.561 160.273Z" fill="#618AED"/>
<path d="M414.598 162.161C413.324 163.993 412.187 165.915 411.195 167.913C410.609 169.134 411.219 169.298 411.407 170.777C411.594 172.256 412.063 171.552 412.674 169.04C413.284 166.528 413.612 165.636 414.222 164.274C414.832 162.912 415.865 160.33 414.598 162.161Z" fill="#1C4BBA"/>
<path d="M417.695 192.634C416.545 195.709 413.495 202.893 413.495 202.893H404.555C409.295 199.583 412.885 195.85 414.504 192.986C416.123 190.122 416.451 188.408 417.671 191.601C417.807 191.93 417.815 192.299 417.695 192.634Z" fill="#BA3B66"/>
<path d="M416.029 202.893C420.322 197.799 421.73 196.062 422.88 195.404C424.03 194.747 425.954 193.737 423.889 196.883C421.824 200.029 418.352 202.893 418.352 202.893H416.029Z" fill="#BA3B66"/>
<path d="M386.395 202.893C383.063 198.855 380.763 194.911 379.895 192.728C379.027 190.545 378.769 190.005 378.558 191.225C378.347 192.446 377.878 193.01 378.3 194.7C378.722 196.39 380.107 200.968 380.975 202.893H386.395Z" fill="#BA3B66"/>
<path d="M372.668 202.893H371.355C369.853 199.09 369.243 197.376 369.172 196.108C369.102 194.841 370.627 199.043 372.668 202.893Z" fill="#BA3B66"/>
<path d="M378.135 202.917H375.367C374.639 197.4 374.639 196.32 374.804 194.77C374.968 193.221 375.742 194.559 376.305 197.329C376.731 199.247 377.344 201.119 378.135 202.917Z" fill="#BA3B66"/>
<path d="M367.014 192.118C369.477 188.126 372.129 186.178 375.343 184.417C378.558 182.656 378.98 181.647 376.61 180.849C374.241 180.051 372.199 180.356 369.36 181.53C366.521 182.703 364.503 183.384 363.635 186.718C362.767 190.052 363.987 192.071 367.014 192.118Z" fill="#542113"/>
<path d="M367.835 187.939C369.36 181.529 370.393 176.67 371.378 172.303C372.363 167.936 373.466 165.401 371.777 164.626C370.088 163.852 369.172 164.133 366.943 169.11C364.714 174.087 363.729 177.679 363.002 180.262C362.274 182.844 359.834 189.864 367.835 187.939Z" fill="#542113"/>
<path d="M364.644 177.891L363.166 177.679C363.964 169.181 364.386 165.565 364.574 163.124C364.761 160.682 363.753 160.635 362.204 160.565C360.655 160.494 360.092 161.128 359.412 164.321C358.731 167.514 357.91 173.054 357.605 175.238C357.3 177.421 356.784 182.445 356.831 184.042C356.878 185.638 364.644 186.366 364.644 177.891Z" fill="#542113"/>
<path d="M357.464 180.027C357.699 176.717 357.206 167.89 357.159 166.246C357.112 164.603 356.526 164.791 355.118 164.744C353.71 164.697 353.123 165.331 352.936 169.204C352.748 173.078 352.443 177.28 352.49 179.229C351.477 181.973 351.092 184.909 351.364 187.821C351.645 190.897 352.044 191.718 352.607 192.681C353.17 193.644 356.526 194.723 360.819 195.146C365.113 195.569 365.512 194.958 367.014 192.118C368.515 189.277 365.7 181.624 365.7 181.624L357.464 180.027Z" fill="#542113"/>
<path d="M351.645 190.028C351.012 191.507 349.768 195.005 348.548 198.48C348.686 199.692 349.264 200.811 350.173 201.624C351.081 202.438 352.256 202.889 353.475 202.893H365.512C365.489 202.494 365.16 196.86 366.286 193.432C366.286 193.432 353.077 186.741 351.645 190.028Z" fill="#542113"/>
<path d="M366.287 183.408C363.518 185.168 362.744 186.013 362.063 187.234C361.383 188.455 360.726 188.572 358.215 188.619C355.705 188.666 355.658 188.713 354.954 185.732C354.25 182.75 355.306 181.482 358.027 181.6C361.641 181.741 367.952 182.468 366.287 183.408Z" fill="#4A1A0D"/>
<path d="M353.64 178.266H362.931C360.045 176.952 356.01 177.116 353.64 178.266Z" fill="#4A1A0D"/>
<path d="M364.597 178.689C365.981 179.182 368.68 180.332 368.68 180.332C366.709 177.421 364.597 178.689 364.597 178.689Z" fill="#4A1A0D"/>
<path d="M366.099 172.444C367.53 172.726 370.393 173.43 370.393 173.43C367.976 170.871 366.099 172.444 366.099 172.444Z" fill="#4A1A0D"/>
<path d="M359.107 170.425C360.444 170.543 363.142 170.871 363.142 170.871C360.538 168.664 359.107 170.425 359.107 170.425Z" fill="#4A1A0D"/>
<path d="M353.429 172.491C354.531 172.327 356.807 172.139 356.807 172.139C354.273 170.754 353.429 172.491 353.429 172.491Z" fill="#4A1A0D"/>
<path d="M377.877 181.506C375.719 183.149 372.504 183.478 369.431 185.051C366.357 186.624 365.817 188.291 364.972 190.591C364.436 192.113 363.989 193.665 363.635 195.24C365.418 195.052 365.934 194.16 367.014 192.117C369.477 188.126 372.129 186.178 375.343 184.417C377.76 183.126 378.605 182.234 377.877 181.506Z" fill="#732D1A"/>
<path d="M366.286 193.432L367.014 192.117C367.155 191.859 367.319 191.648 367.46 191.413C365.935 193.456 361.946 193.878 358.52 194.113C355.094 194.348 352.279 193.244 351.645 190.028C351.246 190.967 349.815 194.606 348.525 197.987V202.893H365.512C365.489 202.494 365.16 196.86 366.286 193.432Z" fill="#4A1A0D"/>
<path d="M371.8 164.626C372.023 165.447 372.04 166.31 371.847 167.138C371.401 169.275 370.393 173.43 368.257 181.976L369.313 181.576C370.111 178.102 370.768 175.097 371.378 172.303C372.363 167.983 373.466 165.425 371.8 164.626Z" fill="#732D1A"/>
<path d="M364.574 163.124C364.386 165.542 363.94 169.298 363.166 177.679L362.532 177.538L363.565 160.729C364.292 160.94 364.691 161.504 364.574 163.124Z" fill="#732D1A"/>
<path d="M435.996 187.657L443.434 182.257C441.088 181.999 436.465 182.257 435.996 187.657Z" fill="#44C9C5"/>
</g>
<mask id="mask1" mask-type="alpha" maskUnits="userSpaceOnUse" x="348" y="75" width="102" height="60">
<rect x="348.49" y="75.2612" width="100.951" height="59.4898" rx="6.33937" fill="#C4C4C4"/>
</mask>
<g mask="url(#mask1)">
<path d="M449.437 75.2612H348.49V134.739H449.437V75.2612Z" fill="#5E87F9"/>
<path d="M348.49 104.994C357.857 102.434 368.937 105.816 372.294 113.379C382.366 110.161 394.01 116.126 399.503 123.149H348.49V104.994Z" fill="#6E94FF"/>
<path d="M449.437 94.1439C443.309 93.1105 436.079 94.4727 433.872 97.5259C427.299 96.2341 419.692 98.6532 416.101 101.471H449.437V94.1439Z" fill="#7A9DFF"/>
<path d="M425.421 126.554C423.542 122.538 423.589 122.374 420.256 121.176L424.693 127.541L425.421 126.554Z" fill="#FF707E"/>
<path d="M373.914 91.1374L374.125 91.3253L374.571 91.748L374.736 91.8889L375.088 92.1943C382.929 98.9347 392.977 101.777 399.785 103.82C408.565 106.45 415.866 107.225 421.336 107.249C428.449 107.178 429.881 103.467 426.876 99.0521L425.186 96.9619L416.5 86.3932L416.077 85.8765C410.349 79.0891 405.208 76.036 394.385 78.3845L377.929 81.9544H377.882C372.13 83.2226 369.43 86.722 373.914 91.1374Z" fill="url(#paint0_linear)"/>
<path d="M392.859 79.6999C386.286 81.3204 375.018 84.6084 375.018 84.6084L372.294 84.9842C373.257 83.5985 375.252 82.5417 377.882 81.9545H377.929L394.385 78.3847C399.503 77.2808 403.33 77.3983 406.569 78.5021C401.569 77.3043 398.658 78.2672 392.859 79.6999Z" fill="#FFFDC4"/>
<path d="M399.292 104.689C393.517 102.951 381.168 98.0423 376.379 93.2512C377.506 94.3785 376.403 92.3587 378.562 93.4156C389.925 98.9583 415.725 106.45 421.336 107.249C415.842 107.578 405.184 106.45 399.292 104.689Z" fill="#FFFDC4"/>
<path d="M372.6 84.6084C377.67 83.0818 389.103 84.4675 401.78 88.4366C414.997 92.5701 425.491 98.2772 428.308 102.481C428.637 105.229 426.477 107.202 421.336 107.249C416.195 107.296 408.565 106.45 399.785 103.82C392.977 101.777 382.929 98.9348 375.088 92.1944L374.736 91.889L374.572 91.7481L374.125 91.3254L373.914 91.1375C371.308 88.5541 371.144 86.2994 372.6 84.6084Z" fill="url(#paint1_linear)"/>
<path d="M421.448 103.816C422.189 101.451 412.81 96.4063 400.499 92.5469C388.189 88.6874 377.609 87.4752 376.869 89.8393C376.128 92.2033 385.507 97.2485 397.818 101.108C410.128 104.967 420.708 106.18 421.448 103.816Z" fill="#6B3143"/>
<path d="M376.966 90.6912C376.827 90.4241 376.785 90.1167 376.849 89.8222C376.902 89.6899 376.982 89.5699 377.083 89.47L389.784 94.9187L380.253 88.6479C380.667 88.6244 381.083 88.6244 381.497 88.6479L390.324 94.5429C390.846 94.4705 391.375 94.4705 391.897 94.5429L387.061 89.2351L388.892 89.5639L392.601 94.6368C393.352 94.7308 394.221 94.8952 395.183 95.1066L392.413 90.3154L394.057 90.7147L395.888 95.271L397.625 95.7407L396.357 91.3253C397.015 91.4819 397.672 91.6698 398.329 91.889L398.94 96.0695H398.799L399.268 96.2339L400.606 92.5701L402.085 93.0633L399.761 96.3748L400.935 96.7741L404.269 93.7914L406.029 94.4255L401.921 97.1264L403.142 97.5961L408.236 95.271L410.396 96.1399L404.081 97.9718L405.56 98.6529L414.504 98.0423C415.255 98.4181 415.983 98.7938 416.641 99.1696H406.546L407.25 99.6159L419.528 101.048C420.056 101.428 420.537 101.869 420.96 102.364L407.837 100.156C407.878 100.199 407.907 100.252 407.924 100.309C407.94 100.366 407.942 100.427 407.931 100.485C407.911 100.536 407.879 100.582 407.839 100.618C407.798 100.655 407.749 100.682 407.696 100.696L421.289 104.078C421.078 104.36 420.655 104.595 420.045 104.759L406.405 100.814C405.671 100.773 404.942 100.679 404.222 100.532L415.068 104.877C414.551 104.853 413.988 104.783 413.401 104.712L402.813 100.25L402.438 100.18L409.246 104.031C408.213 103.82 407.133 103.608 406.006 103.327L401.099 99.8507L398.447 99.0757C397.32 98.7234 396.263 98.3476 395.301 97.9953L391.122 98.7704C389.714 98.2537 388.399 97.7135 387.178 97.1733L393.564 97.2908H393.54L383.751 95.5998C382.647 95.0361 381.638 94.4959 380.769 93.9792L391.592 96.3748L390.887 95.9755L376.966 90.6912Z" fill="#7A384C"/>
<path d="M433.708 134.751H376.802C377.811 133.717 379.032 133.083 380.98 132.191L385.371 131.58L386.99 131.369L390.512 130.876L393.188 130.523L394.784 130.312L395.465 130.218L402.062 129.326L403.588 129.114L406.076 128.785L407.062 128.645L408.987 128.386L409.457 128.316L413.73 127.729L423.871 126.366L424.388 126.296C424.692 126.272 424.999 126.272 425.303 126.296C430.116 126.413 431.783 128.551 433.708 134.751Z" fill="#2347A1"/>
<path d="M425.162 132.496L423.378 134.751H412.978L418.754 128.926L421.289 130.336L425.162 132.496Z" fill="#2A52C2"/>
<path d="M424.388 126.296L424.106 126.695C424.012 126.789 423.942 126.93 423.824 127.071L423.519 127.47C422.979 128.175 422.228 129.161 421.289 130.336L419.082 133.013L418.354 133.859C418.096 134.14 417.861 134.446 417.603 134.751H381.38C381.098 133.177 380.98 132.191 380.98 132.191C380.977 131.946 381.041 131.705 381.165 131.494C381.289 131.282 381.469 131.109 381.685 130.993L384.971 129.091H384.995V128.856C384.995 128.762 384.971 128.692 384.971 128.621C384.971 128.551 384.924 127.87 384.924 127.588V127.282C384.907 127.142 384.899 127.001 384.901 126.86C384.889 126.83 384.881 126.798 384.877 126.766L384.76 124.793C384.737 124.402 384.811 124.01 384.975 123.654C385.139 123.298 385.387 122.987 385.699 122.75L390.042 119.321L390.418 119.015L391.639 118.076L394.667 115.704L396.381 115.469H396.404L398.681 115.117H398.705L401.804 114.671L402.696 114.53L404.996 114.177L406.1 114.013H406.288L406.898 114.107L407.696 114.224L409.316 114.483C410.023 114.595 410.698 114.857 411.297 115.249C411.896 115.642 412.405 116.157 412.79 116.761L414.575 119.509L414.716 119.556L415.819 119.884L419.505 120.988L420.256 121.2L420.749 121.388H420.796C421.783 121.824 422.582 122.598 423.05 123.572L424.388 126.296Z" fill="#EF6270"/>
<path d="M415.819 119.861C414.95 117.677 414.481 115.093 408.987 113.989L404.926 113.379L405.255 116.69L412.931 121.763L415.819 119.861Z" fill="#FF707E"/>
<path d="M424.388 126.296L424.106 126.695C424.012 126.789 423.942 126.93 423.824 127.071L423.519 127.47C422.979 128.175 422.228 129.161 421.289 130.335L419.082 133.013L418.354 133.858L417.58 134.751H400.606C401.006 133.342 401.592 131.228 401.874 130.03C401.92 129.791 401.983 129.556 402.062 129.326C402.461 127.846 402.79 126.93 400.325 126.554L400.583 125.262L401.71 119.555L401.992 118.029L402.226 116.925L402.602 115.046L402.696 114.553L404.996 114.201L406.1 114.036H406.288L406.898 114.13L407.696 114.248L409.316 114.506C410.023 114.619 410.698 114.88 411.297 115.273C411.896 115.665 412.405 116.18 412.79 116.784L414.575 119.532L414.716 119.579L415.819 119.908L419.505 121.012L420.256 121.223L420.749 121.411H420.796C421.783 121.847 422.582 122.622 423.05 123.595L424.388 126.296Z" fill="#E05164"/>
<path d="M408.753 120.19C411.523 118.099 411.335 118.264 409.785 117.254C408.853 116.645 407.775 116.296 406.663 116.244L408.753 120.19Z" fill="#BD3C53"/>
<path d="M409.457 128.316L404.926 134.751H401.522C403.377 132.731 405.325 130.594 407.062 128.645C409.527 125.826 411.57 123.36 412.345 122.162L412.11 123.689L411.945 124.769L409.457 128.316Z" fill="#E05164"/>
<path d="M415.279 132.285C414.341 133.163 413.353 133.986 412.321 134.751H408.072C410.067 133.905 412.697 132.684 414.41 131.604C416.993 129.983 416.664 130.993 415.279 132.285Z" fill="#E05164"/>
<path d="M389.221 120.847C386.145 123.525 384.619 122.797 391.873 132.755L393.611 131.604L398.681 125.92L392.249 117.818L389.221 120.847Z" fill="#C74153"/>
<path d="M390.16 94.1438C390.347 93.5332 394.503 94.2378 399.48 95.7174C404.457 97.197 408.307 98.888 408.142 99.4986C407.109 107.766 407.274 115.093 408.753 120.19L393.611 131.604C387.272 116.338 389.197 102.81 390.16 94.1438Z" fill="#FFB685"/>
<path d="M396.827 115.14L402.696 115.046L403.33 118.475C401.029 120.777 397.672 119.861 395.958 118.334C393.705 120.307 391.498 120.284 389.948 118.546L389.901 118.499C389.761 117.559 389.62 116.62 389.526 115.68C391.92 114.976 396.827 115.14 396.827 115.14Z" fill="#FE9B77"/>
<path d="M402.696 124.347C401.24 114.412 401.569 102.458 401.757 96.4453C405.56 97.7135 408.283 98.9817 408.142 99.4984C407.109 107.765 407.274 115.093 408.753 120.189L402.696 124.347Z" fill="#FE9B77"/>
<g style="mix-blend-mode:multiply" opacity="0.4">
<path d="M390.16 94.1438C390.347 93.5332 394.503 94.2378 399.48 95.7174C404.456 97.197 408.307 98.888 408.142 99.4986C408.001 100.555 407.884 101.589 407.79 102.622C402.391 101.965 394.902 102.81 389.221 104.548C389.408 100.602 389.831 97.0796 390.16 94.1438Z" fill="#A8387E"/>
</g>
<path d="M395.7 81.6024L392.883 82.1425L393.704 83.4577L395.7 81.6024Z" fill="#FFCD8F"/>
<path d="M400.52 110.629C400.856 110.029 400.779 109.347 400.349 109.107C399.919 108.866 399.298 109.158 398.963 109.758C398.628 110.358 398.704 111.039 399.135 111.28C399.565 111.52 400.185 111.229 400.52 110.629Z" fill="#543247"/>
<path d="M403.33 78.8308C403.33 78.8308 401.874 78.7134 401.24 79.2066C401.968 80.0521 403.33 78.8308 403.33 78.8308Z" fill="#FFD08F"/>
<path d="M398.681 78.8073C395.583 78.0793 395.324 79.6998 395.324 79.6998L398.681 78.8073Z" fill="#FFFDC4"/>
<path d="M421.477 97.9719C421.312 99.0992 418.8 99.8273 418.8 99.8273L419.833 100.626C422.439 100.555 423.12 99.2402 423.12 99.2402C422.64 98.7367 422.085 98.3091 421.477 97.9719Z" fill="#D4655B"/>
<path d="M428.144 102.857C427.721 104.102 422.345 103.35 422.345 103.35L422.181 103.984C426.148 104.689 427.862 104.337 427.862 104.337C427.862 104.337 428.097 103.961 428.144 102.857Z" fill="#D4655B"/>
<path d="M408.354 91.3253C408.048 92.7814 406.264 93.7678 406.264 93.7678L403.353 92.8754C404.175 91.7011 404.527 90.0806 404.527 90.0806C404.527 90.0806 406.522 90.6207 408.354 91.3253Z" fill="#DC7363"/>
<path d="M389.127 134.704L389.056 134.751H386.098C385.863 133.835 385.605 132.684 385.37 131.58C385.136 130.476 385.018 129.678 384.971 129.067V128.832C384.971 128.738 384.948 128.668 384.948 128.597C384.948 128.527 384.901 127.846 384.901 127.564V127.259C384.884 127.119 384.876 126.977 384.877 126.836C384.866 126.806 384.858 126.774 384.854 126.742C385.43 128.348 386.153 129.897 387.014 131.369C387.788 132.707 388.563 133.882 389.127 134.704Z" fill="#D14658"/>
<path d="M419.505 120.965C417.71 123.328 415.782 125.586 413.73 127.729C411.288 130.335 408.706 132.872 406.663 134.751H404.269C405.56 133.083 407.25 130.829 408.987 128.386C410.044 126.86 411.124 125.263 412.11 123.689C412.603 122.914 413.072 122.139 413.518 121.387C413.894 120.753 414.246 120.143 414.575 119.532H414.716L415.819 119.861L419.505 120.965Z" fill="#CC4355"/>
<path d="M411.64 119.509L404.151 126.742L402.696 133.06L410.913 122.656L411.64 119.509Z" fill="#E65568"/>
<path d="M393.164 130.453L408.588 119.649L408.87 119.438C409.316 119.039 409.668 119.039 408.753 120.19L393.611 131.604L393.164 130.453Z" fill="#BD3C53"/>
<path d="M431.031 86.7221L429.083 85.8532C429.059 85.8532 429.059 85.7827 429.083 85.7827L431.031 84.9137H431.055L431.924 82.9644C431.924 82.9409 431.994 82.9409 431.994 82.9644L432.863 84.9137H432.886L434.835 85.7827C434.858 85.7827 434.858 85.8532 434.835 85.8532L432.886 86.7221H432.863L431.994 88.6715H431.924L431.055 86.7221H431.031Z" fill="#FF99B9"/>
<path d="M364.148 117.16L362.2 116.291C362.187 116.291 362.175 116.286 362.167 116.277C362.158 116.268 362.153 116.256 362.153 116.244C362.153 116.232 362.158 116.22 362.167 116.211C362.175 116.202 362.187 116.197 362.2 116.197L364.148 115.328H364.172L365.04 113.402C365.04 113.355 365.087 113.355 365.111 113.402L365.979 115.328H366.003L367.951 116.197C367.963 116.21 367.969 116.227 367.969 116.244C367.969 116.261 367.963 116.278 367.951 116.291L366.003 117.16H365.979L365.111 119.086C365.087 119.133 365.04 119.133 365.04 119.086L364.172 117.16H364.148Z" fill="#5580F9"/>
<path d="M421.289 92.2414C418.167 89.3996 415.561 88.2253 415.561 88.2253C418.472 88.8124 420.561 89.7754 421.289 92.2414Z" fill="#EB9363"/>
<path d="M389.596 79.6999L384.643 80.7802C385.23 79.6529 385.887 79.4415 389.596 79.6999Z" fill="#FFFDC4"/>
<path d="M398.564 117.888C396.522 117.888 394.573 117.841 393.963 118.358C393.352 118.874 394.315 120.072 395.817 121.199C396.475 121.693 396.78 121.74 398.353 120.354C399.503 119.367 400.137 117.864 398.564 117.888Z" fill="#C74153"/>
<path d="M397.719 117.982L399.433 118.264C399.667 118.757 399.151 119.673 398.353 120.354C396.78 121.74 396.475 121.693 395.817 121.2L395.137 120.636C395.395 120.025 396.216 118.475 397.719 117.982Z" fill="#A82C3C"/>
<path d="M394.667 118.076C395.559 117.865 397.038 117.888 398.564 117.888C399.433 117.865 399.621 118.334 399.433 118.898L394.784 118.992C394.526 118.992 394.573 118.475 394.667 118.076Z" fill="white"/>
<path d="M387.882 115.187C387.413 114.365 387.671 113.05 388.681 112.369C388.623 112.523 388.6 112.687 388.612 112.851C388.625 113.015 388.673 113.174 388.754 113.317C388.834 113.46 388.945 113.584 389.078 113.68C389.212 113.776 389.364 113.841 389.526 113.872C390.089 113.966 391.122 113.755 391.568 113.59C392.812 113.12 394.221 113.097 395.911 113.966C398.212 112.721 399.761 113.802 401.851 113.802C402.423 113.807 402.992 113.728 403.541 113.567C405.302 113.05 405.278 112.204 404.879 111.312C407.391 111.899 407.274 114.577 406.17 115.751C405.513 116.573 404.292 116.949 402.672 116.549C400.137 118.71 398.893 118.851 395.911 116.949C393.493 118.968 391.169 118.757 389.784 116.221C389.784 116.221 388.375 116.103 387.882 115.187Z" fill="#6B3143"/>
<path d="M395.911 116.949C393.493 118.968 391.169 118.757 389.784 116.221C389.784 116.221 387.601 116.033 387.648 114.365C387.929 115.023 389.08 115.657 390.16 115.422C391.897 116.831 393.751 116.408 395.489 115.07C395.489 115.07 399.174 117.043 401.78 114.882C404.762 115.61 406.875 114.248 406.522 112.369C407.227 113.426 406.921 114.952 406.17 115.751C405.513 116.573 404.292 116.949 402.672 116.549C400.137 118.71 398.893 118.851 395.911 116.949Z" fill="#5E2737"/>
<path d="M393.556 111.273C393.986 111.089 394.127 110.457 393.873 109.861C393.619 109.264 393.065 108.929 392.635 109.112C392.206 109.295 392.064 109.928 392.318 110.524C392.573 111.121 393.127 111.456 393.556 111.273Z" fill="#543247"/>
</g>
<ellipse cx="208.52" cy="244.435" rx="14.864" ry="14.8725" fill="#DBE7FF"/>
<path d="M214.42 242.049C214.237 241.936 214.009 241.926 213.817 242.022L212.236 242.813V241.337C212.236 240.654 211.681 240.098 210.997 240.098H203.565C202.882 240.098 202.327 240.654 202.327 241.337V247.534C202.327 248.218 202.882 248.773 203.565 248.773H210.997C211.681 248.773 212.236 248.218 212.236 247.534V246.058L213.817 246.849C213.905 246.893 213.999 246.914 214.094 246.914C214.207 246.914 214.32 246.883 214.42 246.822C214.602 246.709 214.713 246.51 214.713 246.295V242.577C214.713 242.361 214.602 242.163 214.42 242.049Z" fill="#1C1B29"/>
<ellipse cx="243.822" cy="244.435" rx="14.864" ry="14.8725" fill="#DBE7FF"/>
<path fill-rule="evenodd" clip-rule="evenodd" d="M237.629 240.408C237.629 239.724 238.184 239.168 238.867 239.168H248.777C249.46 239.168 250.015 239.724 250.015 240.408V247.224C250.015 247.908 249.46 248.464 248.777 248.464H244.441V249.703H246.919V250.942H240.725V249.703H243.203V248.464H238.867C238.184 248.464 237.629 247.908 237.629 247.224V240.408ZM244.565 246.504V244.807C242.499 244.807 241.139 245.466 240.106 246.914C240.522 244.846 241.674 242.786 244.565 242.367V240.717L247.538 243.607L244.565 246.504Z" fill="#1C1B29"/>
<ellipse cx="279.124" cy="244.435" rx="14.864" ry="14.8725" fill="#DBE7FF"/>
<path d="M275.842 243.816H274.789C274.789 244.553 274.999 245.241 275.346 245.848L276.108 245.086C275.941 244.702 275.842 244.274 275.842 243.816Z" fill="#1C1B29"/>
<path d="M277.272 243.869C277.275 243.886 277.278 243.903 277.278 243.921L280.982 240.209V240.098C280.982 239.069 280.152 238.239 279.124 238.239C278.096 238.239 277.266 239.069 277.266 240.098V243.816C277.266 243.834 277.269 243.852 277.272 243.869Z" fill="#1C1B29"/>
<path d="M278.953 246.972L278.482 247.443L278.042 247.886C278.194 247.926 278.348 247.958 278.505 247.98V250.632H279.743V247.98C281.775 247.677 283.459 245.929 283.459 243.816H282.407C282.407 245.675 280.833 246.976 279.124 246.976C279.067 246.976 279.01 246.975 278.953 246.972Z" fill="#1C1B29"/>
<path d="M284.698 239.645L283.912 238.858L273.55 249.226L274.337 250.013L276.932 247.422L277.693 246.654L278.721 245.625L280.976 243.37L284.698 239.645Z" fill="#1C1B29"/>
<ellipse cx="314.426" cy="244.435" rx="14.864" ry="14.8725" fill="#E7366B"/>
<path fill-rule="evenodd" clip-rule="evenodd" d="M320.073 237.691L321.167 238.787L319.237 240.717L321.167 242.648L320.073 243.744L318.142 241.813L316.212 243.744L315.118 242.648L317.048 240.717L315.118 238.787L316.212 237.691L318.142 239.622L320.073 237.691ZM318.142 250.632H315.046C311.283 250.632 308.233 247.58 308.233 243.816V240.717C308.233 240.375 308.51 240.098 308.852 240.098H311.33C311.672 240.098 311.949 240.375 311.949 240.717V243.196C311.949 243.539 311.672 243.816 311.33 243.816H310.71C310.749 246.256 312.568 248.154 315.046 248.154V247.534C315.046 247.191 315.322 246.914 315.665 246.914H318.142C318.485 246.914 318.762 247.191 318.762 247.534V250.013C318.762 250.355 318.485 250.632 318.142 250.632Z" fill="white"/>
<mask id="mask2" mask-type="alpha" maskUnits="userSpaceOnUse" x="73" y="56" width="267" height="166">
<path d="M339.819 63.0102C339.819 59.5091 336.981 56.6708 333.479 56.6708H79.8445C76.3434 56.6708 73.5051 59.5091 73.5051 63.0102V215.168C73.5051 218.669 76.3434 221.507 79.8445 221.507H333.479C336.981 221.507 339.819 218.669 339.819 215.168V63.0102Z" fill="#A8BFFF"/>
</mask>
<g mask="url(#mask2)">
<path d="M339.819 63.0102C339.819 59.5091 336.981 56.6708 333.479 56.6708H79.8445C76.3434 56.6708 73.5051 59.5091 73.5051 63.0102V215.168C73.5051 218.669 76.3434 221.507 79.8445 221.507H333.479C336.981 221.507 339.819 218.669 339.819 215.168V63.0102Z" fill="#A8BFFF"/>
<path d="M227.719 172.118C236.886 145.162 262.712 140.886 276.089 147.641C274.231 133.202 292.935 103.271 328.299 121.552H339.819V216.55H228.958L227.719 172.118Z" fill="#C2D2FF"/>
<path d="M111.161 174.101C108.683 167.037 97.5353 149.437 73.5051 152.412V204.218H165.972C165.724 178.067 136.615 163.876 111.161 174.101Z" fill="#C2D2FF"/>
<path d="M73.5051 221.507H339.819V161.088H293.988V208.989H277.266V193.931H238.991L169.812 161.831H139.278V151.173H124.167V189.159L116.425 186.681L105.896 197.959H73.5051V221.507Z" fill="#648AE8"/>
<path d="M105.896 205.581H73.5051V208.983H105.896V205.581Z" fill="#7B6EB3"/>
<path d="M117.85 221.569L129.865 209.547H155.939V221.507L117.85 221.569Z" fill="#6273E3"/>
<path d="M328.299 216.549H259.987V221.544H328.299V216.549Z" fill="#6273E3"/>
<path d="M225.8 94.2858C227.783 94.2858 229.392 92.6766 229.392 90.6916C229.392 88.7066 227.783 87.0974 225.8 87.0974C223.816 87.0974 222.207 88.7066 222.207 90.6916C222.207 92.6766 223.816 94.2858 225.8 94.2858Z" fill="#7D2952"/>
<path d="M201.274 102.589C203.258 102.589 204.866 100.98 204.866 98.9953C204.866 97.0103 203.258 95.4011 201.274 95.4011C199.29 95.4011 197.682 97.0103 197.682 98.9953C197.682 100.98 199.29 102.589 201.274 102.589Z" fill="#7D2952"/>
<path d="M169.75 111.017C171.734 111.017 173.342 109.408 173.342 107.423C173.342 105.438 171.734 103.829 169.75 103.829C167.766 103.829 166.158 105.438 166.158 107.423C166.158 109.408 167.766 111.017 169.75 111.017Z" fill="#7D2952"/>
<path d="M147.144 115.231C149.128 115.231 150.736 113.622 150.736 111.637C150.736 109.652 149.128 108.043 147.144 108.043C145.16 108.043 143.552 109.652 143.552 111.637C143.552 113.622 145.16 115.231 147.144 115.231Z" fill="#7D2952"/>
<path d="M122.556 117.896C124.54 117.896 126.149 116.287 126.149 114.302C126.149 112.317 124.54 110.707 122.556 110.707C120.572 110.707 118.964 112.317 118.964 114.302C118.964 116.287 120.572 117.896 122.556 117.896Z" fill="#7D2952"/>
<path d="M99.2075 117.276C101.191 117.276 102.8 115.667 102.8 113.682C102.8 111.697 101.191 110.088 99.2075 110.088C97.2236 110.088 95.6154 111.697 95.6154 113.682C95.6154 115.667 97.2236 117.276 99.2075 117.276Z" fill="#7D2952"/>
<path d="M321.177 171.932C323.161 171.932 324.769 170.323 324.769 168.338C324.769 166.353 323.161 164.744 321.177 164.744C319.193 164.744 317.585 166.353 317.585 168.338C317.585 170.323 319.193 171.932 321.177 171.932Z" fill="#7D2952"/>
<path d="M334.864 56.6708H73.5051V104.573C126.087 118.577 213.289 97.3222 261.473 67.1435C277.823 147.145 339.819 171.994 339.819 171.994V61.6283C339.819 60.3135 339.297 59.0526 338.368 58.1229C337.438 57.1931 336.178 56.6708 334.864 56.6708V56.6708Z" fill="#7D2952"/>
<path d="M73.5051 56.6711V66.4001C135.191 100.917 216.386 82.388 250.449 56.6711H73.5051Z" fill="#70254A"/>
<path d="M339.819 56.6709H286.928C288.972 104.511 310.958 141.878 339.819 161.088V56.6709Z" fill="#70254A"/>
<path d="M254.041 159.538C250.944 166.851 245.37 180.856 245.37 180.856L259.553 189.655C265.251 176.332 267.171 169.268 268.1 165.549C269.029 161.831 269.648 158.237 264.817 155.325C259.987 152.412 257.324 151.854 254.041 159.538Z" fill="#F073AB"/>
<path d="M266.49 181.909L258.005 201.491C257.341 203.037 256.374 204.434 255.161 205.6C253.948 206.765 252.514 207.675 250.943 208.276C249.372 208.877 247.697 209.156 246.017 209.098C244.336 209.04 242.684 208.644 241.159 207.936L209.449 193.497L225.242 168.586L244.565 179.368L247.414 170.941C257.385 174.907 262.712 178.377 266.49 181.909Z" fill="#F7E5BC"/>
<path d="M229.639 172.428C242.398 174.535 243.574 177.2 246.981 183.892L233.293 182.343L229.639 172.428Z" fill="#F7E5BC"/>
<path d="M169.564 66.2759C167.027 67.0671 164.885 68.7946 163.574 71.1077C162.263 73.4209 161.88 76.1465 162.504 78.7316L175.2 130.599L197.929 125.89L182.632 73.3403C182.249 72.0107 181.605 70.7708 180.737 69.6931C179.87 68.6154 178.797 67.7216 177.58 67.0638C176.363 66.406 175.027 65.9976 173.651 65.8623C172.275 65.727 170.885 65.8676 169.564 66.2759Z" fill="#D6569B"/>
<path d="M182.198 118.453L191.179 118.082L181.641 86.8495C181.509 86.4005 181.286 85.9836 180.986 85.6246C180.686 85.2657 180.315 84.9724 179.896 84.7631C179.478 84.5538 179.021 84.433 178.554 84.4081C178.087 84.3833 177.62 84.4549 177.182 84.6186C176.413 84.9124 175.78 85.4793 175.403 86.211C175.026 86.9427 174.931 87.7877 175.138 88.5846L182.198 118.453Z" fill="#E374B0"/>
<path d="M177.367 118.081C172.041 97.7558 166.839 78.4836 164.485 69.808C163.481 71.0372 162.779 72.4846 162.435 74.0342C162.091 75.5838 162.114 77.1925 162.503 78.7314L172.165 118.267L177.367 118.081Z" fill="#F06EA8"/>
<path d="M222.145 66.0281C224.692 66.7939 226.853 68.5013 228.187 70.8033C229.522 73.1053 229.93 75.8293 229.33 78.4218L217.191 130.351L194.399 125.952L209.139 73.2164C209.51 71.8826 210.142 70.636 211 69.5496C211.857 68.4633 212.923 67.559 214.134 66.8896C215.345 66.2202 216.677 65.7993 218.053 65.6513C219.428 65.5034 220.82 65.6315 222.145 66.0281Z" fill="#D6569B"/>
<path d="M197.434 115.231L199.54 119.383C199.54 119.383 207.591 83.689 211.369 69.1264C210.342 70.3142 209.581 71.709 209.139 73.2163L197.434 115.231Z" fill="#F06EA8"/>
<path d="M213.537 118.329L204.618 118.02L213.784 86.6636C213.915 86.2148 214.138 85.7985 214.439 85.4413C214.74 85.0841 215.113 84.7939 215.533 84.5896C215.953 84.3853 216.411 84.2713 216.878 84.2549C217.345 84.2386 217.81 84.3202 218.244 84.4947C219.01 84.7759 219.648 85.3282 220.036 86.0474C220.424 86.7665 220.535 87.6029 220.349 88.3987L213.537 118.329Z" fill="#E374B0"/>
<path d="M225.77 114.156L160.117 116.909C150.718 117.303 143.419 125.246 143.813 134.649L143.837 135.213C144.231 144.616 152.168 151.92 161.567 151.526L227.22 148.772C236.618 148.378 243.918 140.436 243.524 131.032L243.5 130.469C243.106 121.065 235.168 113.762 225.77 114.156Z" fill="#F06EA8"/>
<path d="M169.502 211.158C165.662 207.564 161.884 204.218 161.079 202.917C160.274 201.615 161.636 201.181 163.556 200.5C165.476 199.818 167.21 202.173 169.192 206.201C171.174 210.229 173.032 214.381 169.502 211.158Z" fill="#F2C591"/>
<path d="M238.991 193.931L235.275 205.705L234.78 207.192L230.197 221.569H144.976C144.171 218.408 145.162 217.789 147.33 214.257C149.497 210.724 148.383 211.654 148.692 203.102C148.94 197.091 151.108 191.514 158.849 184.574C161.203 182.529 161.76 181.723 164.176 179.492L164.919 178.811L165.291 178.439L165.786 178.067L224.003 168.896L235.709 188.416L238.991 193.931Z" fill="#F7E5BC"/>
<path d="M233.293 193.993C236.886 184.388 237.009 183.582 238.248 186.371C239.487 189.159 240.23 188.974 234.284 196.782C228.339 204.59 231.745 198.145 233.293 193.993Z" fill="#E8C282"/>
<path d="M235.275 205.705C234.904 211.344 234.408 216.673 233.789 221.569H171.174C171.236 219.028 171.298 215.868 171.422 212.026C171.412 211.612 171.432 211.197 171.484 210.786V206.015C171.05 194.675 167.83 186.928 158.849 184.574C160.522 182.901 162.256 181.227 164.176 179.492L164.919 178.811L165.786 178.067L224.003 168.896C228.586 170.569 231.621 171.746 235.089 175.278C235.461 179.74 235.647 184.14 235.709 188.416C235.771 194.427 235.585 200.19 235.275 205.705Z" fill="#1F3A70"/>
<path d="M224.003 168.896L223.198 169.02L222.393 169.825C219.42 182.281 213.165 195.294 213.165 195.294C213.165 195.294 213.475 198.455 217.81 192.32C222.145 186.185 225.861 178.935 227.719 172.118L224.003 168.896Z" fill="#172E5C"/>
<path d="M172.289 178.129C183.561 191.7 187.401 194.737 191.55 197.525C195.7 200.314 192.231 196.162 187.896 189.717C183.561 183.272 178.482 175.279 178.482 175.279L172.289 178.129Z" fill="#172E5C"/>
<path d="M235.027 207.068C234.718 212.15 234.284 216.983 233.789 221.569H171.174C171.236 219.028 171.298 215.868 171.422 212.026C171.412 211.612 171.432 211.198 171.484 210.787V206.015C184.985 209.299 202.822 215.186 206.848 216.612L234.78 207.192L235.027 207.068Z" fill="#172E5C"/>
<path d="M176.748 185.999C176.748 185.999 176.191 187.115 173.775 188.788C171.36 190.461 170.679 191.205 170.431 190.647C169.487 188.69 168.118 186.968 166.426 185.607C164.733 184.246 162.758 183.279 160.645 182.777C162.256 181.166 164.052 179.493 165.972 177.695C174.642 181.414 176.748 185.999 176.748 185.999Z" fill="#244AB0"/>
<path d="M218.863 168.896L207.096 212.955L176.996 170.197L218.863 168.896Z" fill="#D4BF9B"/>
<path d="M213.351 189.531L193.284 184.264C189.692 183.334 191.488 184.574 193.284 186.805C195.08 189.036 205.795 201.243 209.201 205.147L213.351 189.531Z" fill="#CCAC89"/>
<path d="M183.561 177.261L211.059 180.918C214.156 181.289 214.218 177.943 215.828 171.436L186.162 173.605L183.561 177.261Z" fill="#CF518A"/>
<path d="M229.689 144.369L162.12 147.073C153.226 147.429 146.305 154.931 146.661 163.829L146.662 163.854C147.018 172.752 154.515 179.677 163.409 179.321L230.978 176.617C239.871 176.261 246.792 168.759 246.437 159.861L246.436 159.836C246.08 150.938 238.582 144.013 229.689 144.369Z" fill="#F06EA8"/>
<path d="M230.754 176.084C239.425 175.712 246.547 168.71 246.547 160.034C246.576 156.88 245.675 153.786 243.956 151.141C242.238 148.496 239.779 146.416 236.885 145.162C239.064 143.5 240.809 141.336 241.974 138.855C243.138 136.374 243.687 133.648 243.574 130.909V130.351C243.479 128.113 242.943 125.915 241.998 123.884C241.052 121.853 239.716 120.028 238.065 118.514C236.414 117 234.481 115.827 232.376 115.062C230.271 114.296 228.037 113.954 225.799 114.054L167.21 116.532C161.946 126.633 162.689 137.478 166.591 145.286C167.16 146.468 167.481 147.754 167.535 149.065C167.588 150.376 167.372 151.684 166.901 152.908C161.265 167.904 168.697 178.749 168.697 178.749L230.754 176.084Z" fill="#E05FA3"/>
<path d="M197.682 221.569H159.531C159.531 220.825 159.531 220.144 159.593 219.462V219.338C159.593 219.152 159.654 218.966 159.654 218.718C159.701 218.36 159.784 218.007 159.902 217.665L160.088 217.045L160.46 216.178L160.955 215.434L161.327 214.938L161.574 214.752C162.575 213.745 163.778 212.964 165.105 212.459C166.853 211.761 168.757 211.547 170.617 211.84L171.422 212.026C178.854 213.203 185.233 214.195 190.683 215.558L191.426 215.868C192.169 216.115 192.861 216.493 193.47 216.983L193.842 217.231L194.213 217.541C194.337 217.665 194.461 217.727 194.523 217.851L194.895 218.223C195.027 218.292 195.134 218.4 195.204 218.532L195.576 218.904L197.186 220.887L197.682 221.569Z" fill="#FF8FB1"/>
<path d="M183.444 145.706C184.932 144.731 185.015 142.223 183.629 140.104C182.243 137.985 179.913 137.057 178.425 138.031C176.936 139.006 176.853 141.514 178.239 143.633C179.625 145.752 181.955 146.68 183.444 145.706Z" fill="#1B1926"/>
<path d="M212.789 141.078C213.433 138.771 212.673 136.542 211.092 136.101C209.51 135.659 207.706 137.171 207.063 139.479C206.419 141.786 207.179 144.015 208.76 144.457C210.341 144.898 212.145 143.386 212.789 141.078Z" fill="#1B1926"/>
<path d="M154.328 147.083C150.674 145.719 149.745 145.286 147.206 144.48C148.848 146.743 151.016 148.572 153.523 149.809L152.78 150.429C154.467 150.6 156.162 150.683 157.858 150.677C161.389 150.553 162.008 150.057 154.328 147.083Z" fill="#E05FA3"/>
<path d="M155.557 127.091C158.289 124.604 159.72 121.725 158.753 120.662C157.786 119.599 154.788 120.754 152.055 123.241C149.323 125.729 147.892 128.607 148.859 129.671C149.826 130.734 152.824 129.579 155.557 127.091Z" fill="#F792C0"/>
<path d="M151.17 212.831C156.372 210.724 158.168 209.857 159.902 209.237C161.636 208.617 160.15 207.936 156.186 206.201C152.223 204.466 151.294 203.846 151.046 207.254C150.798 210.662 149.498 213.513 151.17 212.831Z" fill="#FAD596"/>
<path d="M161.451 211.034C152.532 213.451 152.47 214.69 152.222 216.24C151.975 217.789 152.222 219.152 155.505 216.673C158.246 214.633 161.169 212.849 164.238 211.344C165.972 210.6 165.043 210.043 161.451 211.034Z" fill="#F7D08D"/>
<path d="M172.97 210.972C174.642 202.049 174.457 199.632 175.2 199.446C175.943 199.26 177.368 201.491 178.73 204.28C180.093 207.068 172.97 210.972 172.97 210.972Z" fill="#172E5C"/>
<path d="M170.617 211.84C167.768 212.212 162.318 212.274 161.698 221.569H159.531C159.445 220.256 159.57 218.938 159.902 217.665L160.088 217.045L160.46 216.178L160.955 215.434L161.327 214.938L161.574 214.752C162.575 213.745 163.778 212.964 165.105 212.459C166.853 211.761 168.757 211.547 170.617 211.84Z" fill="#F278B0"/>
<path d="M191.612 221.569C192.851 218.718 193.284 216.859 191.426 215.868C192.598 216.281 193.657 216.96 194.523 217.851L194.895 218.223C195.027 218.293 195.135 218.401 195.204 218.533L195.576 218.904L197.186 220.887L197.682 221.569H191.612Z" fill="#F278B0"/>
<path d="M189.94 153.156C194.028 160.096 200.035 161.707 204.061 152.722C204.108 152.642 204.132 152.549 204.13 152.456C204.127 152.363 204.099 152.272 204.047 152.194C203.995 152.117 203.922 152.055 203.837 152.017C203.752 151.979 203.658 151.965 203.565 151.978L190.374 152.35C190.284 152.36 190.199 152.392 190.125 152.443C190.05 152.493 189.989 152.561 189.947 152.64C189.904 152.719 189.881 152.807 189.88 152.897C189.879 152.987 189.899 153.076 189.94 153.156Z" fill="#751B40"/>
<path d="M177.863 147.145C180.712 141.692 186.224 143.984 186.224 143.984L183.499 150.057L177.863 147.145Z" fill="#E05FA3"/>
<path d="M205.733 142.683C211.431 140.39 214.156 145.719 214.156 145.719L208.148 148.57L205.733 142.683Z" fill="#E05FA3"/>
<path d="M198.177 152.164L190.374 152.35C190.284 152.36 190.199 152.392 190.125 152.443C190.05 152.493 189.989 152.561 189.947 152.64C189.904 152.719 189.881 152.807 189.88 152.897C189.879 152.987 189.899 153.075 189.94 153.156C193.47 159.105 198.363 161.15 202.265 155.944C201.297 154.315 199.877 153.002 198.177 152.164Z" fill="#9C2455"/>
<path d="M244.627 182.653C244.627 182.653 248.653 192.444 250.015 196.348C251.378 200.252 249.458 199.818 247.29 199.508C245.123 199.198 244.937 196.348 244.627 191.204C244.318 186.061 243.389 180.174 244.627 182.653Z" fill="#FAD596"/>
<path d="M248.901 180.05C249.52 184.264 251.688 188.168 252.121 189.221C252.555 190.275 255.775 189.593 258.562 188.911C261.349 188.23 259.615 187.238 256.209 184.388C252.802 181.537 248.343 176.642 248.901 180.05Z" fill="#FAD596"/>
<path d="M123.423 202.916L119.274 201.057C119.212 201.057 119.212 200.933 119.274 200.933L123.423 199.074L125.281 194.922H125.467L127.325 199.074L131.475 200.933C131.537 200.933 131.537 201.057 131.475 201.057L127.325 202.916L125.467 207.068H125.281L123.423 202.916Z" fill="#3366E0"/>
<path d="M256.394 119.197L254.475 118.329C254.413 118.329 254.413 118.267 254.475 118.267L256.394 117.4L257.262 115.417H257.385L258.252 117.4L260.234 118.267L258.252 119.135L257.385 121.056C257.323 121.118 257.323 121.118 257.262 121.056L256.394 119.135V119.197Z" fill="#FAFAFA"/>
<path d="M138.969 95.0293L136.987 94.1617L138.969 93.2942L139.836 91.3112H139.898L140.765 93.2942H140.827L142.747 94.1617C142.809 94.1617 142.809 94.2237 142.747 94.2237L140.827 95.0912H140.765L139.898 97.0123C139.898 97.0742 139.836 97.0742 139.836 97.0123L138.969 95.0912V95.0293Z" fill="#F7E5BC"/>
<path d="M321.177 56.6708H311.515V221.544H321.177V56.6708Z" fill="#783837"/>
<path d="M98.5263 56.6708H88.8647V221.544H98.5263V56.6708Z" fill="#783837"/>
<path d="M321.177 56.6708H311.515V182.269H321.177V56.6708Z" fill="#571E2F"/>
<path d="M98.5263 56.6708H88.8647V131.622H98.5263V56.6708Z" fill="#571E2F"/>
<path d="M260.73 88.8324C262.714 88.8324 264.322 87.2233 264.322 85.2383C264.322 83.2533 262.714 81.6441 260.73 81.6441C258.746 81.6441 257.138 83.2533 257.138 85.2383C257.138 87.2233 258.746 88.8324 260.73 88.8324Z" fill="#7D2952"/>
<path d="M240.106 88.1507C242.09 88.1507 243.698 86.5415 243.698 84.5565C243.698 82.5715 242.09 80.9623 240.106 80.9623C238.122 80.9623 236.514 82.5715 236.514 84.5565C236.514 86.5415 238.122 88.1507 240.106 88.1507Z" fill="#7D2952"/>
<path d="M73.5051 107.423V114.549C74.4472 114.549 75.3516 114.179 76.0235 113.519C76.6954 112.858 77.081 111.96 77.0973 111.017C77.0973 110.064 76.7188 109.15 76.0452 108.476C75.3715 107.802 74.4578 107.423 73.5051 107.423V107.423Z" fill="#7D2952"/>
<path d="M265.065 104.139C267.049 104.139 268.657 102.529 268.657 100.544C268.657 98.5595 267.049 96.9503 265.065 96.9503C263.081 96.9503 261.473 98.5595 261.473 100.544C261.473 102.529 263.081 104.139 265.065 104.139Z" fill="#7D2952"/>
<path d="M286.928 140.204C288.912 140.204 290.52 138.595 290.52 136.61C290.52 134.625 288.912 133.016 286.928 133.016C284.944 133.016 283.336 134.625 283.336 136.61C283.336 138.595 284.944 140.204 286.928 140.204Z" fill="#7D2952"/>
<path d="M299.686 154.767C301.67 154.767 303.278 153.158 303.278 151.173C303.278 149.188 301.67 147.579 299.686 147.579C297.702 147.579 296.094 149.188 296.094 151.173C296.094 153.158 297.702 154.767 299.686 154.767Z" fill="#7D2952"/>
<path d="M273.984 120.808C275.967 120.808 277.576 119.199 277.576 117.214C277.576 115.229 275.967 113.62 273.984 113.62C272 113.62 270.391 115.229 270.391 117.214C270.391 119.199 272 120.808 273.984 120.808Z" fill="#7D2952"/>
<path d="M304.517 172.49H302.039V177.355H304.517V172.49Z" fill="#5177D6"/>
<path d="M330.777 188.478H328.299V193.342H330.777V188.478Z" fill="#5177D6"/>
<path d="M309.471 192.382H306.994V197.246H309.471V192.382Z" fill="#5177D6"/>
<path d="M303.278 205.581H300.801V210.446H303.278V205.581Z" fill="#5177D6"/>
<path d="M267.481 207.998H265.003V212.862H267.481V207.998Z" fill="#5177D6"/>
<path d="M144.852 179.616H142.375V184.481H144.852V179.616Z" fill="#5177D6"/>
<path d="M110.975 207.998H108.498V212.862H110.975V207.998Z" fill="#5177D6"/>
<path d="M140.455 148.942H122.99V151.191H140.455V148.942Z" fill="#8F80CF"/>
<path d="M289.033 205.581H277.266V208.983H289.033V205.581Z" fill="#8F80CF"/>
</g>
</g>
<path d="M526 287.143H0V299.937H526V287.143Z" fill="#414159"/>
<path d="M0 299.946L0.6093 300.991C1.91469 303.096 3.70559 304.859 5.83187 306.129C6.70585 306.716 7.73895 307.02 8.79133 307H517.209C518.261 307.02 519.294 306.716 520.168 306.129C522.287 304.879 524.054 303.111 525.304 300.991L526 299.946H0Z" fill="#11111A"/>
</g>
<defs>
<linearGradient id="paint0_linear" x1="394.296" y1="80.1108" x2="404.556" y2="106.532" gradientUnits="userSpaceOnUse">
<stop stop-color="#FFC285"/>
<stop offset="1" stop-color="#DB8D6B"/>
</linearGradient>
<linearGradient id="paint1_linear" x1="428.343" y1="95.6257" x2="371.679" y2="95.6257" gradientUnits="userSpaceOnUse">
<stop stop-color="#D67569"/>
<stop offset="1" stop-color="#E39E7F"/>
</linearGradient>
<clipPath id="clip0">
<rect width="526" height="307" fill="white"/>
</clipPath>
<clipPath id="clip1">
<rect width="668.409" height="459.013" fill="white" transform="translate(42.651 9.49304)"/>
</clipPath>
</defs>
</svg>